<?xml version="1.0" encoding="UTF-8" standalone="no"?>
<svg
   xmlns:dc="http://purl.org/dc/elements/1.1/"
   xmlns:cc="http://creativecommons.org/ns#"
   xmlns:rdf="http://www.w3.org/1999/02/22-rdf-syntax-ns#"
   xmlns:svg="http://www.w3.org/2000/svg"
   xmlns="http://www.w3.org/2000/svg"
   xmlns:sodipodi="http://sodipodi.sourceforge.net/DTD/sodipodi-0.dtd"
   xmlns:inkscape="http://www.inkscape.org/namespaces/inkscape"
   sodipodi:docname="32-42.svg"
   inkscape:version="1.0 (4035a4f, 2020-05-01)"
   id="svg6626"
   version="1.1"
   viewBox="0 0 79.087265 161.14189"
   height="161.14189mm"
   width="79.087265mm">
  <defs
     id="defs6620" />
  <sodipodi:namedview
     inkscape:window-maximized="0"
     inkscape:window-y="23"
     inkscape:window-x="0"
     inkscape:window-height="943"
     inkscape:window-width="1248"
     fit-margin-bottom="0"
     fit-margin-right="0"
     fit-margin-left="0"
     fit-margin-top="0"
     showgrid="false"
     inkscape:document-rotation="0"
     inkscape:current-layer="layer1"
     inkscape:document-units="mm"
     inkscape:cy="164.52011"
     inkscape:cx="-24.82946"
     inkscape:zoom="0.35"
     inkscape:pageshadow="2"
     inkscape:pageopacity="0.0"
     borderopacity="1.0"
     bordercolor="#666666"
     pagecolor="#ffffff"
     id="base" />
  <metadata
     id="metadata6623">
    <rdf:RDF>
      <cc:Work
         rdf:about="">
        <dc:format>image/svg+xml</dc:format>
        <dc:type
           rdf:resource="http://purl.org/dc/dcmitype/StillImage" />
        <dc:title></dc:title>
      </cc:Work>
    </rdf:RDF>
  </metadata>
  <g
     transform="translate(-112.40279,-104.63739)"
     id="layer1"
     inkscape:groupmode="layer"
     inkscape:label="Ebene 1">
    <path
       inkscape:export-ydpi="90"
       inkscape:export-xdpi="90"
       style="fill:#000000;stroke-width:0.282223"
       d="m 149.61134,265.50113 c -2.26441,-0.62179 -3.86768,-1.70279 -6.09755,-4.1113 -7.12123,-7.69177 -11.46618,-18.8078 -14.17187,-36.25701 -1.38326,-8.92076 -1.96562,-17.06512 -2.16253,-30.24374 -0.14108,-9.44132 -0.30934,-12.79889 -0.71498,-14.26642 -0.63828,-2.30925 -2.20015,-5.46669 -5.22456,-10.56182 -2.15756,-3.63477 -4.54851,-8.82955 -4.90126,-10.64892 -0.0916,-0.47242 -0.71947,-2.76395 -1.39525,-5.09228 -2.51525,-8.66594 -3.2122,-18.17663 -1.86953,-25.51212 1.02111,-5.57858 3.79561,-14.40621 5.67377,-18.05201 0.25101,-0.48723 0.66853,-1.33601 0.92783,-1.88612 0.25934,-0.55013 0.88271,-1.21291 1.38535,-1.4728 0.96807,-0.50064 9.34432,-1.63997 17.27913,-2.35032 6.89687,-0.61742 22.93335,-0.51904 29.87447,0.18327 8.67458,0.87771 13.95707,1.67525 14.87401,2.24564 1.61637,1.00548 5.17426,10.359 6.88221,18.09305 2.47289,11.19778 1.98716,19.18066 -1.89706,31.17705 -1.78929,5.52617 -3.6026,9.46339 -7.57516,16.44797 -3.99113,7.01726 -3.79964,6.05821 -4.08576,20.46111 -0.13682,6.888 -0.43355,14.8255 -0.65935,17.63889 -1.81554,22.61908 -6.01458,37.56862 -13.16028,46.85333 -4.74768,6.16888 -8.84532,8.49035 -12.98163,7.35455 z m 3.40151,-7.2508 c 1.93768,-1.18155 4.33561,-4.51824 6.81008,-9.47609 3.27259,-6.55704 4.04247,-8.48589 5.14294,-12.88531 3.01718,-12.06206 4.35539,-25.17889 4.50912,-44.19813 l 0.0857,-10.60662 -2.64584,1.14628 c -5.9075,2.55941 -12.82194,3.93711 -17.62014,3.51079 -3.55293,-0.3157 -7.56325,-1.33672 -11.26654,-2.86851 -1.67183,-0.6915 -3.27781,-1.33486 -3.56887,-1.42966 -0.46341,-0.15093 -0.52064,1.13414 -0.46061,10.341 0.12155,18.64165 1.53145,31.96097 4.73504,44.73274 2.05085,8.17609 6.83968,17.46098 10.89578,21.1254 1.62309,1.46632 1.89557,1.51528 3.38331,0.60811 z m 6.31735,-80.63409 c 3.38001,-0.99506 9.11905,-3.58956 12.54901,-5.67315 1.70908,-1.03821 2.31563,-1.68227 3.38483,-3.59416 0.71642,-1.28112 1.6315,-3.13616 2.0335,-4.12233 0.40199,-0.9862 1.15178,-2.50935 1.66621,-3.38483 1.24601,-2.12054 3.32647,-8.12069 4.40207,-12.69571 1.09573,-4.66065 1.44343,-11.00983 0.85776,-15.66277 -0.86778,-6.89412 -4.39375,-18.33352 -5.84211,-18.9537 -1.6203,-0.69382 -13.81162,-1.77002 -22.22627,-1.96204 -8.9491,-0.20422 -14.97327,0.075 -25.04725,1.16078 -3.82744,0.41252 -5.45995,0.73059 -5.89983,1.14949 -1.46685,1.3968 -4.71996,11.87309 -5.59477,18.01735 -0.50436,3.54225 -0.22922,10.95649 0.55067,14.83978 1.40601,7.00091 4.37727,15.24731 7.3824,20.48896 1.54141,2.68856 1.99985,3.19194 4.2326,4.64719 4.85484,3.1643 10.5189,5.65014 15.0506,6.60538 2.83667,0.59794 8.98446,0.17486 12.50058,-0.86024 z"
       id="path4720"
       inkscape:connector-curvature="0"
       inkscape:transform-center-x="-601.04076"
       inkscape:transform-center-y="8.8388162" />
  </g>
</svg>
