<?xml version="1.0" encoding="UTF-8" standalone="no"?>
<svg
   xmlns:dc="http://purl.org/dc/elements/1.1/"
   xmlns:cc="http://creativecommons.org/ns#"
   xmlns:rdf="http://www.w3.org/1999/02/22-rdf-syntax-ns#"
   xmlns:svg="http://www.w3.org/2000/svg"
   xmlns="http://www.w3.org/2000/svg"
   xmlns:sodipodi="http://sodipodi.sourceforge.net/DTD/sodipodi-0.dtd"
   xmlns:inkscape="http://www.inkscape.org/namespaces/inkscape"
   sodipodi:docname="12_22.svg"
   inkscape:version="1.0 (4035a4f, 2020-05-01)"
   id="svg3616"
   version="1.1"
   viewBox="0 0 79.206939 161.49729"
   height="161.49728mm"
   width="79.20694mm">
  <defs
     id="defs3610" />
  <sodipodi:namedview
     inkscape:window-maximized="0"
     inkscape:window-y="23"
     inkscape:window-x="0"
     inkscape:window-height="943"
     inkscape:window-width="1248"
     fit-margin-bottom="0"
     fit-margin-right="0"
     fit-margin-left="0"
     fit-margin-top="0"
     showgrid="false"
     inkscape:document-rotation="0"
     inkscape:current-layer="layer1"
     inkscape:document-units="mm"
     inkscape:cy="279.44122"
     inkscape:cx="121.12492"
     inkscape:zoom="1"
     inkscape:pageshadow="2"
     inkscape:pageopacity="0.0"
     borderopacity="1.0"
     bordercolor="#666666"
     pagecolor="#ffffff"
     id="base" />
  <metadata
     id="metadata3613">
    <rdf:RDF>
      <cc:Work
         rdf:about="">
        <dc:format>image/svg+xml</dc:format>
        <dc:type
           rdf:resource="http://purl.org/dc/dcmitype/StillImage" />
        <dc:title></dc:title>
      </cc:Work>
    </rdf:RDF>
  </metadata>
  <g
     transform="translate(-106.35517,-100.85765)"
     id="layer1"
     inkscape:groupmode="layer"
     inkscape:label="Ebene 1">
    <path
       inkscape:export-filename="/Users/ingmarkappel/Desktop/tooth menu.png"
       style="fill:#000000;stroke-width:0.282223"
       d="m 148.23389,101.13581 c 2.26441,0.62179 3.86769,1.70276 6.09756,4.11127 7.12125,7.6918 11.46617,18.80779 14.17187,36.257 1.38325,8.92073 1.96562,17.06513 2.16252,30.24375 0.14109,9.44132 0.30935,12.79889 0.71499,14.26642 0.63827,2.30925 2.20015,5.4667 5.22455,10.56182 2.15756,3.63477 4.54852,8.82955 4.90127,10.64893 0.0916,0.47241 0.71947,2.76394 1.39525,5.09227 2.51528,8.66595 3.2122,18.17661 1.86952,25.5121 -1.0211,5.57858 -3.7956,14.4062 -5.67376,18.05201 -0.25101,0.48722 -0.66853,1.33601 -0.92784,1.88612 -0.25933,0.55013 -0.8827,1.2129 -1.38534,1.4728 -0.96808,0.50063 -9.34432,1.63997 -17.27911,2.35032 -6.89689,0.61742 -22.93338,0.51903 -29.87449,-0.18328 -8.67458,-0.87771 -13.95705,-1.67524 -14.87399,-2.24564 -1.6164,-1.00547 -5.17429,-10.35899 -6.88224,-18.09304 -2.47289,-11.19778 -1.98715,-19.18064 1.89707,-31.17703 1.78929,-5.52616 3.60259,-9.46339 7.57515,-16.44797 3.99116,-7.01725 3.79965,-6.05821 4.08576,-20.46111 0.13682,-6.888 0.43355,-14.8255 0.65936,-17.63889 1.81553,-22.61909 6.01458,-37.5686 13.16027,-46.85328 4.74769,-6.1689 8.84533,-8.490405 12.98163,-7.35457 z m -3.40151,7.25079 c -1.93768,1.18158 -4.33558,4.51824 -6.81008,9.47609 -3.27259,6.55701 -4.04246,8.48586 -5.14293,12.88528 -3.01718,12.06207 -4.3554,25.17891 -4.50912,44.19814 l -0.0857,10.60662 2.64583,-1.14628 c 5.90751,-2.55941 12.82195,-3.93711 17.62015,-3.51078 3.55292,0.31569 7.56324,1.33671 11.26653,2.8685 1.67183,0.69151 3.27782,1.33486 3.56887,1.42966 0.46341,0.15093 0.52065,-1.13414 0.46062,-10.34099 -0.12155,-18.64165 -1.53145,-31.96099 -4.73504,-44.73276 -2.05085,-8.17609 -6.83965,-17.46094 -10.89578,-21.12534 -1.62309,-1.46635 -1.89557,-1.51534 -3.38331,-0.60814 z m -6.31735,80.63408 c -3.38,0.99506 -9.11905,3.58955 -12.54901,5.67314 -1.70908,1.03821 -2.31563,1.68227 -3.38483,3.59416 -0.71642,1.28112 -1.6315,3.13617 -2.03349,4.12234 -0.402,0.98619 -1.15178,2.50935 -1.66621,3.38483 -1.24599,2.12053 -3.32647,8.12069 -4.40208,12.69571 -1.09573,4.66064 -1.4434,11.0098 -0.85776,15.66274 0.86778,6.89412 4.39375,18.33352 5.84212,18.9537 1.62029,0.69382 13.81161,1.77002 22.22626,1.96204 8.9491,0.20422 14.97328,-0.075 25.04725,-1.16078 3.82745,-0.41253 5.45996,-0.73059 5.89986,-1.14949 1.46685,-1.39681 4.71994,-11.87309 5.59477,-18.01735 0.50433,-3.54226 0.22919,-10.95646 -0.5507,-14.83975 -1.406,-7.00092 -4.37726,-15.24731 -7.3824,-20.48897 -1.54141,-2.68856 -1.99985,-3.19193 -4.23259,-4.64718 -4.85482,-3.16431 -10.51891,-5.65015 -15.0506,-6.60539 -2.83668,-0.59794 -8.98446,-0.17486 -12.50059,0.86025 z"
       id="path4688-0"
       inkscape:connector-curvature="0"
       inkscape:transform-center-x="601.04081"
       inkscape:transform-center-y="-8.8388279"
       inkscape:export-xdpi="90"
       inkscape:export-ydpi="90" />
    <path
       inkscape:export-ydpi="90"
       inkscape:export-xdpi="90"
       inkscape:transform-center-y="-8.8388279"
       inkscape:transform-center-x="601.04081"
       inkscape:connector-curvature="0"
       id="path4688-0-6"
       d="m 185.4279,226.28054 c 0.28691,4.25113 0.11647,8.33516 -0.53681,11.90426 -1.0211,5.57858 -3.7956,14.4062 -5.67376,18.05201 -0.25101,0.48722 -0.66853,1.33601 -0.92784,1.88612 -0.25933,0.55013 -0.8827,1.2129 -1.38534,1.4728 -0.96808,0.50063 -9.34432,1.63997 -17.27911,2.35032 -6.89689,0.61742 -22.93338,0.51903 -29.87449,-0.18328 -8.67459,-0.87771 -13.95706,-1.67524 -14.874,-2.24564 -1.6164,-1.00547 -5.17427,-10.35899 -6.88224,-18.09304 -1.17441,-5.31802 -1.68152,-9.91092 -1.47421,-14.55299 l 7.24551,10.52911 64.56066,-0.48319 z"
       style="fill:#808080;fill-opacity:1;stroke:#000000;stroke-width:1;stroke-miterlimit:4;stroke-dasharray:2, 1;stroke-dashoffset:0;stroke-opacity:1"
       inkscape:export-filename="/Users/ingmarkappel/Desktop/tooth menu.png"
       sodipodi:nodetypes="cssscsscscccc" />
  </g>
</svg>
