<?xml version="1.0" encoding="UTF-8" standalone="no"?>
<svg
   xmlns:dc="http://purl.org/dc/elements/1.1/"
   xmlns:cc="http://creativecommons.org/ns#"
   xmlns:rdf="http://www.w3.org/1999/02/22-rdf-syntax-ns#"
   xmlns:svg="http://www.w3.org/2000/svg"
   xmlns="http://www.w3.org/2000/svg"
   xmlns:sodipodi="http://sodipodi.sourceforge.net/DTD/sodipodi-0.dtd"
   xmlns:inkscape="http://www.inkscape.org/namespaces/inkscape"
   width="90.263588mm"
   height="189.29601mm"
   viewBox="0 0 90.263588 189.296"
   version="1.1"
   id="svg6024"
   inkscape:version="1.0 (4035a4f, 2020-05-01)"
   sodipodi:docname="33_43.svg">
  <defs
     id="defs6018" />
  <sodipodi:namedview
     id="base"
     pagecolor="#ffffff"
     bordercolor="#666666"
     borderopacity="1.0"
     inkscape:pageopacity="0.0"
     inkscape:pageshadow="2"
     inkscape:zoom="0.70349165"
     inkscape:cx="407.9159"
     inkscape:cy="478.03178"
     inkscape:document-units="mm"
     inkscape:current-layer="layer1"
     inkscape:document-rotation="0"
     showgrid="false"
     fit-margin-top="0"
     fit-margin-left="0"
     fit-margin-right="0"
     fit-margin-bottom="0"
     inkscape:window-width="1248"
     inkscape:window-height="943"
     inkscape:window-x="0"
     inkscape:window-y="23"
     inkscape:window-maximized="0" />
  <metadata
     id="metadata6021">
    <rdf:RDF>
      <cc:Work
         rdf:about="">
        <dc:format>image/svg+xml</dc:format>
        <dc:type
           rdf:resource="http://purl.org/dc/dcmitype/StillImage" />
        <dc:title></dc:title>
      </cc:Work>
    </rdf:RDF>
  </metadata>
  <g
     inkscape:label="Ebene 1"
     inkscape:groupmode="layer"
     id="layer1"
     transform="translate(-82.624157,-57.223345)">
    <path
       inkscape:export-ydpi="90"
       inkscape:export-xdpi="90"
       style="fill:#000000;stroke-width:0.282223"
       d="m 123.8706,246.12038 c -4.36741,-1.67781 -8.80846,-6.63456 -12.45731,-13.90326 -5.29051,-10.53941 -10.86581,-29.61126 -13.218698,-45.2182 -1.227977,-8.14448 -1.843503,-16.97203 -2.11582,-30.33889 -0.301723,-14.80786 -0.102446,-13.79739 -4.10241,-20.81386 -4.832463,-8.47708 -6.891302,-13.38955 -8.065346,-19.24496 -1.982329,-9.8872 -1.656617,-20.618754 0.854004,-28.134333 1.942253,-5.813664 4.128092,-8.988776 10.179755,-14.787709 8.444965,-8.092355 16.731295,-13.166457 25.320415,-15.505034 4.14643,-1.128917 10.7267,-1.056358 15.36982,0.169474 8.68031,2.291701 17.30473,7.167569 26.58928,15.032369 4.83362,4.094395 8.06535,9.72676 9.69349,16.893342 0.9175,4.038147 1.25701,12.715261 0.69991,17.883771 -1.02757,9.53313 -2.9052,14.86027 -9.0139,25.57641 -3.99739,7.01221 -3.80238,6.03064 -4.09786,20.6375 -0.35673,17.62806 -1.31036,28.10708 -3.51988,38.67458 -0.58307,2.78844 -1.29342,6.57341 -1.57847,8.41107 -1.21355,7.82489 -4.86607,20.27854 -8.05998,27.48215 -2.48779,5.61094 -4.92929,9.39644 -8.12546,12.59842 -3.73945,3.74622 -5.90973,4.81579 -10.07928,4.9674 -1.95524,0.0711 -3.44168,-0.0612 -4.27226,-0.38024 z m 6.21253,-7.38951 c 6.07935,-2.84359 12.89756,-17.2405 16.39627,-34.6222 0.42954,-2.13434 1.23669,-5.86492 1.7938,-8.29028 2.92862,-12.75006 4.16193,-25.15441 4.30586,-43.30372 0.0452,-5.67543 0.0754,-10.31886 0.0672,-10.31875 -0.008,1.1e-4 -1.59568,0.64634 -3.52777,1.43603 -4.4704,1.82705 -10.33639,3.59257 -14.62561,4.40193 -4.48846,0.84695 -12.12313,0.86631 -16.40413,0.0416 -3.65368,-0.70386 -10.31187,-2.7119 -13.14255,-3.96375 -1.06596,-0.47151 -1.95834,-0.85728 -1.98262,-0.85728 -0.28871,0 0.26388,24.44047 0.66605,29.45694 0.60172,7.50612 1.94962,17.25498 2.97519,21.51947 2.84846,11.84224 6.29158,23.15061 9.07146,29.79245 3.92123,9.36924 8.63939,15.50656 11.93744,15.52801 0.38805,0.003 1.49944,-0.36669 2.46944,-0.82048 z m 5.82084,-97.36308 c 5.14011,-1.21793 10.35473,-3.09061 15.39719,-5.52966 l 4.2847,-2.0725 1.80312,-3.15107 c 5.94896,-10.39574 7.72639,-16.43083 8.04672,-27.32368 0.26331,-8.962556 -0.54328,-13.506844 -3.31781,-18.690587 -2.72457,-5.090499 -13.82776,-13.601107 -22.43779,-17.198706 -11.05775,-4.620345 -19.21394,-3.578211 -30.34058,3.87666 -3.86899,2.592409 -5.79882,4.226391 -11.43254,9.680787 -4.045374,3.916539 -5.825914,6.784734 -7.142198,11.505125 -2.02692,7.268493 -1.472353,19.626611 1.246603,27.783141 1.658621,4.97563 6.406417,13.5667 8.069575,14.60173 4.62588,2.87892 13.37844,6.09602 19.59526,7.20273 4.05917,0.72254 11.63994,0.40307 16.22775,-0.68397 z"
       id="path4710-8"
       inkscape:connector-curvature="0"
       inkscape:export-filename="/Users/ingmarkappel/Desktop/tooth menu_lower_jaw.png" />
    <path
       sodipodi:nodetypes="cccsccc"
       inkscape:export-filename="/Users/ingmarkappel/Desktop/tooth menu_lower_jaw.png"
       inkscape:connector-curvature="0"
       id="path4710-8-3"
       d="m 84.928544,88.316712 c 1.94225,-5.81366 4.12809,-8.98877 10.17975,-14.7877 8.444966,-8.09236 16.731296,-13.16646 25.320416,-15.50504 4.14643,-1.12892 10.7267,-1.05636 15.36982,0.16948 8.68031,2.2917 17.30473,7.16756 26.58928,15.03237 4.83362,4.09439 8.06535,9.72676 9.69349,16.89334 -40.63012,13.277938 -82.643116,0.06812 -87.152756,-1.80245 z"
       style="fill:#ff0000;stroke-width:0.282223"
       inkscape:export-xdpi="90"
       inkscape:export-ydpi="90" />
  </g>
</svg>
