<?xml version="1.0" encoding="UTF-8" standalone="no"?>
<svg
   xmlns:dc="http://purl.org/dc/elements/1.1/"
   xmlns:cc="http://creativecommons.org/ns#"
   xmlns:rdf="http://www.w3.org/1999/02/22-rdf-syntax-ns#"
   xmlns:svg="http://www.w3.org/2000/svg"
   xmlns="http://www.w3.org/2000/svg"
   xmlns:sodipodi="http://sodipodi.sourceforge.net/DTD/sodipodi-0.dtd"
   xmlns:inkscape="http://www.inkscape.org/namespaces/inkscape"
   width="91.271965mm"
   height="183.75957mm"
   viewBox="0 0 91.271965 183.75956"
   version="1.1"
   id="svg6024"
   inkscape:version="1.0 (4035a4f, 2020-05-01)"
   sodipodi:docname="33_43.svg">
  <defs
     id="defs6018" />
  <sodipodi:namedview
     id="base"
     pagecolor="#ffffff"
     bordercolor="#666666"
     borderopacity="1.0"
     inkscape:pageopacity="0.0"
     inkscape:pageshadow="2"
     inkscape:zoom="0.76937223"
     inkscape:cx="272.79789"
     inkscape:cy="308.09974"
     inkscape:document-units="mm"
     inkscape:current-layer="layer1"
     inkscape:document-rotation="0"
     showgrid="false"
     fit-margin-top="0"
     fit-margin-left="0"
     fit-margin-right="0"
     fit-margin-bottom="0"
     inkscape:window-width="1248"
     inkscape:window-height="943"
     inkscape:window-x="0"
     inkscape:window-y="23"
     inkscape:window-maximized="0" />
  <metadata
     id="metadata6021">
    <rdf:RDF>
      <cc:Work
         rdf:about="">
        <dc:format>image/svg+xml</dc:format>
        <dc:type
           rdf:resource="http://purl.org/dc/dcmitype/StillImage" />
        <dc:title />
      </cc:Work>
    </rdf:RDF>
  </metadata>
  <g
     inkscape:label="Ebene 1"
     inkscape:groupmode="layer"
     id="layer1"
     transform="translate(-82.120576,-56.86608)">
    <path
       sodipodi:nodetypes="cccccsccscc"
       inkscape:export-ydpi="90"
       inkscape:export-xdpi="90"
       style="fill:#ffffff;stroke:#000000;stroke-width:1;stroke-miterlimit:4;stroke-dasharray:none;stroke-opacity:1"
       d="m 94.622195,144.842 c -4.832463,-8.47708 -9.537135,-22.38538 -10.711179,-28.24079 -1.982329,-9.8872 -1.656617,-20.618754 0.854004,-28.134333 1.942253,-5.813664 4.128092,-8.988776 10.179755,-14.787709 8.444965,-8.092355 16.731295,-13.166457 25.320415,-15.505034 4.14643,-1.128917 10.7267,-1.056358 15.36982,0.169474 8.68031,2.291701 17.30473,7.167569 26.58928,15.032369 4.83362,4.094395 8.06535,9.72676 9.69349,16.893342 0.9175,4.038147 1.25701,12.715261 0.69991,17.883771 -1.02757,9.53313 -7.13853,25.97277 -13.24723,36.68891 -23.78127,7.66761 -49.25266,11.56676 -64.748265,0 z"
       id="path4710-8"
       inkscape:connector-curvature="0"
       inkscape:export-filename="/Users/ingmarkappel/Desktop/tooth menu_lower_jaw.png" />
    <path
       sodipodi:nodetypes="csssssssscssssssssssssscsssscssssssssssscssccssssssssssssccsssssscssscccsssccsscsssscssssscsssssccccsssscscsss"
       inkscape:connector-curvature="0"
       id="path5207"
       d="m 136.10588,237.84765 c 1.52559,-1.5279 3.52848,-2.778 4.45084,-2.778 2.22205,0 4.05552,-1.82654 4.72545,-4.70756 0.68806,-2.95897 -0.69214,-5.44875 -3.37279,-6.08424 -2.90212,-0.68799 -2.85195,-3.49503 0.0625,-3.49503 2.94075,0 6.26416,-3.31911 6.26416,-6.25603 0,-2.41477 -3.19234,-5.64967 -5.57535,-5.64967 -0.63093,0 -1.14716,-0.71435 -1.14716,-1.58743 0,-1.31904 0.56022,-1.58742 3.31361,-1.58742 2.47158,0 3.646,-0.44827 4.62173,-1.76403 2.78183,-3.75139 0.85391,-8.75911 -3.70362,-9.62006 -1.88591,-0.35627 -2.55109,-0.92405 -2.55109,-2.17752 0,-1.49296 0.33591,-1.6361 2.81052,-1.19759 3.89336,0.68989 7.27325,-1.81316 7.27325,-5.38639 0,-3.34097 -1.41852,-4.99171 -5.02193,-5.84401 -2.83874,-0.67144 -2.91446,-0.79039 -2.68471,-4.21708 0.3658,-5.45563 0.82766,-6.30413 3.43145,-6.30413 3.09796,0 4.82326,-1.96138 5.94576,-6.75938 2.25195,-9.62563 1.81371,-10.32081 5.38843,-11.33242 1.83475,-0.51923 5.51976,-18.90411 5.51976,-19.27155 0,-0.36745 -18.10383,17.52052 -38.20832,17.52052 -20.1045,0 -37.887519,-13.96197 -37.887519,-13.61312 0,0.34884 2.648498,15.33067 4.255309,15.87948 3.092349,1.05618 3.416921,1.70197 5.503185,10.94955 1.007305,4.46486 2.628565,6.33576 5.852135,6.75298 2.85491,0.36952 3.40025,3.04879 0.62056,3.04879 -2.81572,0 -4.81358,2.37394 -4.81358,5.71973 0,3.20809 1.3486,4.57391 5.25714,5.32447 1.95597,0.37559 2.80166,1.01951 2.9944,2.27988 0.1477,0.96606 -0.15315,1.75647 -0.66842,1.75647 -1.92109,0 -5.06218,3.89841 -5.06218,6.28272 0,2.82167 2.80005,5.62298 5.62049,5.62298 1.06827,0 1.94233,0.32795 1.94233,0.7288 0,0.40084 0.22957,1.29377 0.5101,1.98429 0.32854,0.80867 0.0512,1.25548 -0.77933,1.25548 -1.724,0 -4.77266,3.75808 -4.77266,5.88328 0,2.56398 2.21958,5.04004 5.04296,5.62577 3.02729,0.62804 3.47898,3.41761 0.80845,4.99291 -2.16585,1.27757 -3.57214,4.70436 -2.92698,7.13232 0.30123,1.13366 1.60319,2.30583 3.30869,2.97892 2.18508,0.86236 2.93235,1.71561 3.35177,3.82731 0.29681,1.49464 1.52742,3.65049 2.73466,4.79077 1.97598,1.86638 2.82342,2.07324 8.4936,2.07324 6.10988,0 6.38175,-0.0832 9.07245,-2.778 z m -13.45507,-0.38092 c -2.16089,-0.776 -4.57054,-4.33935 -3.5721,-5.28239 0.28964,-0.27361 3.94976,0.13054 8.13357,0.89811 6.54727,1.20119 7.46268,1.55974 6.57157,2.5739 -2.14098,2.43666 -7.12996,3.24794 -11.13304,1.81038 z m 2.62173,-7.88982 c -6.39053,-1.23723 -12.00571,-2.61456 -12.47811,-3.06077 -1.24877,-1.17953 0.007,-4.1459 1.75451,-4.1459 2.77492,0 26.47313,4.77434 27.22548,5.48496 0.41049,0.38772 0.49421,1.45525 0.18608,2.37228 -0.73482,2.1868 -2.35939,2.12347 -16.68796,-0.65057 z m -0.14517,-8.64108 c -6.76683,-1.26162 -7.59262,-1.60535 -7.84566,-3.26596 -0.24235,-1.58987 0,-1.79126 1.68063,-1.40477 1.0799,0.24815 5.46127,1.07822 9.73636,1.84463 7.15205,1.28215 7.77291,1.54086 7.77291,3.23896 0,1.5104 -0.34332,1.76848 -1.89071,1.42133 -1.03988,-0.2333 -5.29398,-1.05868 -9.45353,-1.83419 z m 2.8733,-6.09447 c -19.94741,-3.77016 -18.41912,-3.30489 -18.41912,-5.60742 0,-1.09674 0.53107,-2.18656 1.1802,-2.42182 1.35472,-0.49105 32.47447,5.15173 33.5893,6.09058 0.85491,0.71997 -0.0179,4.70526 -1.03067,4.70526 -0.37511,0 -7.26898,-1.24497 -15.31971,-2.7666 z m -3.0125,-9.1793 c -7.42607,-1.37965 -9.46601,-2.04416 -9.7823,-3.18665 -0.21976,-0.79394 -0.24531,-1.58929 -0.0565,-1.76747 0.18871,-0.17818 5.34699,0.61925 11.46295,1.77205 10.2536,1.93272 11.14197,2.24068 11.40279,3.95301 0.24203,1.58904 -4.7e-4,1.79317 -1.68063,1.4146 -1.07992,-0.24331 -6.18567,-1.2268 -11.34612,-2.18554 z m 0.1392,-6.55326 c -16.73054,-3.15519 -17.66119,-3.4254 -17.92782,-5.20535 -0.15467,-1.03257 0.0732,-2.21204 0.50607,-2.62103 0.48955,-0.4624 7.42906,0.49394 18.348,2.52855 23.01034,4.2877 21.34207,3.82712 21.34207,5.89221 0,3.63023 0.15473,3.63436 -22.26832,-0.59438 z m 2.44509,-8.11852 c -5.96652,-1.10691 -11.69905,-2.18524 -12.73896,-2.39626 -1.84761,-0.37495 -2.8244,-3.52829 -1.09287,-3.52829 1.23675,0 26.38529,4.77451 26.6964,5.06837 0.45491,0.42968 -0.73555,2.86875 -1.40016,2.86875 -0.33891,0 -5.49791,-0.90566 -11.46441,-2.01257 z m -3.18394,-7.22567 c -10.11198,-1.92185 -18.71469,-3.68649 -19.11711,-3.92143 -1.11534,-0.65106 -0.87197,-4.0837 0.31864,-4.49526 0.57774,-0.19969 10.50393,1.39641 22.05826,3.54689 21.81489,4.06018 23.93606,4.81495 22.19037,7.89591 -0.99369,1.75376 0.85801,1.97392 -25.45016,-3.02611 z m -13.12636,-12.77065 v -1.83752 l 15.72845,0.21594 15.72843,0.21594 -0.25857,3.96202 c -0.14223,2.17911 -0.38603,4.15678 -0.54179,4.39483 -0.15576,0.23804 -7.11718,-0.81515 -15.46984,-2.34043 -14.46998,-2.64237 -15.18668,-2.85996 -15.18668,-4.61078 z m -7.56281,-5.3101 c 0,-0.36551 -2.38387,-9.55188 -3.0547,-11.77138 -0.39355,-1.30221 1.26369,-1.389 26.52688,-1.389 14.82066,0 26.93565,0.26788 26.92219,0.59529 -0.0135,0.3274 -0.75872,3.09548 -1.65615,6.15127 -0.89744,3.0558 -1.64271,5.82387 -1.65615,6.15128 -0.0249,0.60685 -47.08207,0.86925 -47.08207,0.26254 z"
       style="fill:#000000;stroke-width:1.00748" />
  </g>
</svg>
