<?xml version="1.0" encoding="UTF-8" standalone="no"?>
<svg
   xmlns:dc="http://purl.org/dc/elements/1.1/"
   xmlns:cc="http://creativecommons.org/ns#"
   xmlns:rdf="http://www.w3.org/1999/02/22-rdf-syntax-ns#"
   xmlns:svg="http://www.w3.org/2000/svg"
   xmlns="http://www.w3.org/2000/svg"
   xmlns:sodipodi="http://sodipodi.sourceforge.net/DTD/sodipodi-0.dtd"
   xmlns:inkscape="http://www.inkscape.org/namespaces/inkscape"
   width="91.271988mm"
   height="193.35742mm"
   viewBox="0 0 91.271988 193.35742"
   version="1.1"
   id="svg6024"
   inkscape:version="1.0 (4035a4f, 2020-05-01)"
   sodipodi:docname="33_43.svg">
  <defs
     id="defs6018" />
  <sodipodi:namedview
     id="base"
     pagecolor="#ffffff"
     bordercolor="#666666"
     borderopacity="1.0"
     inkscape:pageopacity="0.0"
     inkscape:pageshadow="2"
     inkscape:zoom="0.84400718"
     inkscape:cx="115.80409"
     inkscape:cy="378.88516"
     inkscape:document-units="mm"
     inkscape:current-layer="layer1"
     inkscape:document-rotation="0"
     showgrid="false"
     fit-margin-top="0"
     fit-margin-left="0"
     fit-margin-right="0"
     fit-margin-bottom="0"
     inkscape:window-width="1248"
     inkscape:window-height="943"
     inkscape:window-x="0"
     inkscape:window-y="23"
     inkscape:window-maximized="0" />
  <metadata
     id="metadata6021">
    <rdf:RDF>
      <cc:Work
         rdf:about="">
        <dc:format>image/svg+xml</dc:format>
        <dc:type
           rdf:resource="http://purl.org/dc/dcmitype/StillImage" />
        <dc:title />
      </cc:Work>
    </rdf:RDF>
  </metadata>
  <g
     inkscape:label="Ebene 1"
     inkscape:groupmode="layer"
     id="layer1"
     transform="translate(-82.649747,-53.161922)">
    <path
       id="path4710-8-6"
       style="fill:#91d8ff;stroke:#000000;stroke-width:3.77953;stroke-miterlimit:4;stroke-dasharray:none;stroke-opacity:1;fill-opacity:1"
       d="M 172.50977 1.9257812 C 162.13964 1.811435 152.00374 2.8099729 144.16797 4.9433594 C 111.70515 13.782076 80.386807 32.959643 48.46875 63.544922 C 25.596334 85.462153 17.334928 97.462647 9.9941406 119.43555 C 0.50518314 147.84088 -0.72469274 188.4025 6.7675781 225.77148 C 9.5139004 239.46838 17.37669 264.82202 27.296875 289.75391 C 94.418913 180.31839 -2.7211816 88.286133 137.4375 43.269531 C 155.89014 38.819716 185.1748 39.105654 205.83789 43.9375 C 334.79032 95.422013 242.54216 185.08189 314.98242 284.98828 C 328.64597 252.3526 339.48858 217.48344 342.03711 193.83984 C 344.14268 174.30521 342.85834 141.51033 339.39062 126.24805 C 333.23702 99.161756 321.02271 77.875269 302.75391 62.400391 C 267.66269 32.675158 235.06724 14.245531 202.25977 5.5839844 C 193.48537 3.2674515 182.87989 2.0401275 172.50977 1.9257812 z M 304.62109 308.19141 C 170.93321 331.81567 143.97897 325.73391 38.037109 314.58984 C 41.053842 320.97977 44.141917 327.05563 47.25 332.50781 C 151.82354 337.33896 187.23713 362.00786 291.96875 332.50781 C 296.22608 325.03942 300.4837 316.83157 304.62109 308.19141 z "
       transform="matrix(0.26458333,0,0,0.26458333,82.649747,53.161922)" />
    <path
       sodipodi:nodetypes="cccccccccccssscccccscsscscccccc"
       inkscape:export-ydpi="90"
       inkscape:export-xdpi="90"
       style="fill:#000000;stroke-width:0.282223"
       d="m 123.8706,246.12038 c -4.36741,-1.67781 -8.80846,-6.63456 -12.45731,-13.90326 -5.29051,-10.53941 -10.86581,-29.61126 -13.218698,-45.2182 -1.227977,-8.14448 -1.843503,-16.97203 -2.11582,-30.33889 -0.301723,-14.80786 -0.102446,-13.79739 -4.10241,-20.81386 21.772028,-30.20919 -5.307137,-55.964296 28.288828,-68.147036 4.14643,-1.128917 10.7267,-1.056362 15.36982,0.169474 30.75933,13.865297 5.5063,38.643942 27.96878,65.860892 -3.99739,7.01221 -3.80238,6.03064 -4.09786,20.6375 -0.35673,17.62806 -1.31036,28.10708 -3.51988,38.67458 -0.58307,2.78844 -1.29342,6.57341 -1.57847,8.41107 -1.21355,7.82489 -4.86607,20.27854 -8.05998,27.48215 -2.48779,5.61094 -4.92929,9.39644 -8.12546,12.59842 -3.73945,3.74622 -5.90973,4.81579 -10.07928,4.9674 -1.95524,0.0711 -3.44168,-0.0612 -4.27226,-0.38024 z m 6.21253,-7.38951 c 6.07935,-2.84359 12.89756,-17.2405 16.39627,-34.6222 0.42954,-2.13434 1.23669,-5.86492 1.7938,-8.29028 2.92862,-12.75006 4.16193,-25.15441 4.30586,-43.30372 0.0452,-5.67543 0.0754,-10.31886 0.0672,-10.31875 -0.008,1.1e-4 -1.59568,0.64634 -3.52777,1.43603 -4.4704,1.82705 -10.33639,3.59257 -14.62561,4.40193 -4.48846,0.84695 -12.12313,0.86631 -16.40413,0.0416 -3.65368,-0.70386 -10.31187,-2.7119 -13.14255,-3.96375 -1.06596,-0.47151 -1.95834,-0.85728 -1.98262,-0.85728 -0.28871,0 0.26388,24.44047 0.66605,29.45694 0.60172,7.50612 1.94962,17.25498 2.97519,21.51947 2.84846,11.84224 6.29158,23.15061 9.07146,29.79245 3.92123,9.36924 8.63939,15.50656 11.93744,15.52801 0.38805,0.003 1.49944,-0.36669 2.46944,-0.82048 z"
       id="path4710-8"
       inkscape:connector-curvature="0"
       inkscape:export-filename="/Users/ingmarkappel/Desktop/tooth menu_lower_jaw.png" />
  </g>
</svg>
