<?xml version="1.0" encoding="UTF-8" standalone="no"?>
<svg
   xmlns:dc="http://purl.org/dc/elements/1.1/"
   xmlns:cc="http://creativecommons.org/ns#"
   xmlns:rdf="http://www.w3.org/1999/02/22-rdf-syntax-ns#"
   xmlns:svg="http://www.w3.org/2000/svg"
   xmlns="http://www.w3.org/2000/svg"
   xmlns:sodipodi="http://sodipodi.sourceforge.net/DTD/sodipodi-0.dtd"
   xmlns:inkscape="http://www.inkscape.org/namespaces/inkscape"
   width="85.01329mm"
   height="156.52409mm"
   viewBox="0 0 85.01329 156.52409"
   version="1.1"
   id="svg4218"
   inkscape:version="1.0 (4035a4f, 2020-05-01)"
   sodipodi:docname="11_21.svg">
  <defs
     id="defs4212" />
  <sodipodi:namedview
     id="base"
     pagecolor="#ffffff"
     bordercolor="#666666"
     borderopacity="1.0"
     inkscape:pageopacity="0.0"
     inkscape:pageshadow="2"
     inkscape:zoom="0.59982706"
     inkscape:cx="248.31457"
     inkscape:cy="248.98631"
     inkscape:document-units="mm"
     inkscape:current-layer="layer1"
     inkscape:document-rotation="0"
     showgrid="false"
     fit-margin-top="0"
     fit-margin-left="0"
     fit-margin-right="0"
     fit-margin-bottom="0"
     inkscape:window-width="1248"
     inkscape:window-height="943"
     inkscape:window-x="0"
     inkscape:window-y="23"
     inkscape:window-maximized="0" />
  <metadata
     id="metadata4215">
    <rdf:RDF>
      <cc:Work
         rdf:about="">
        <dc:format>image/svg+xml</dc:format>
        <dc:type
           rdf:resource="http://purl.org/dc/dcmitype/StillImage" />
        <dc:title />
      </cc:Work>
    </rdf:RDF>
  </metadata>
  <g
     inkscape:label="Ebene 1"
     inkscape:groupmode="layer"
     id="layer1"
     transform="translate(-127.84342,-101.52819)">
    <path
       inkscape:connector-curvature="0"
       id="path5207"
       d="m 163.99293,104.18805 c -1.15808,1.46292 -2.67846,2.65985 -3.37862,2.65985 -1.68675,0 -3.07854,1.74886 -3.58707,4.50735 -0.5223,2.83313 0.52541,5.21702 2.56027,5.82548 2.20299,0.65873 2.16491,3.34639 -0.0475,3.34639 -2.2323,0 -4.7551,3.17795 -4.7551,5.98996 0,2.31207 2.4233,5.40939 4.23223,5.40939 0.47894,0 0.87081,0.68397 0.87081,1.51992 0,1.26294 -0.42526,1.51991 -2.51535,1.51991 -1.87617,0 -2.76768,0.4292 -3.50834,1.689 -2.11168,3.59185 -0.6482,8.38659 2.8114,9.21092 1.4316,0.34112 1.93653,0.88475 1.93653,2.08491 0,1.42947 -0.25499,1.56652 -2.13346,1.14666 -2.95543,-0.66055 -5.52108,1.73605 -5.52108,5.15731 0,3.19888 1.07679,4.77941 3.81211,5.59547 2.15489,0.64288 2.21235,0.75677 2.03796,4.03772 -0.27768,5.2236 -0.62827,6.03602 -2.60481,6.03602 -2.35164,0 -3.6613,1.87796 -4.51339,6.47191 -1.70945,9.21625 -1.77848,9.3752 -4.49203,10.34379 -1.39276,0.49714 -6.51383,6.67057 -6.51383,7.02238 0,0.35183 16.46804,-4.83916 31.72928,-4.83916 15.26124,0 31.85183,4.45691 31.85183,4.1229 0,-0.33401 -5.10203,-5.7674 -6.32176,-6.29287 -2.34739,-1.01126 -2.59377,-1.62959 -4.17745,-10.48388 -0.76463,-4.27496 -1.99533,-6.06629 -4.44234,-6.46577 -2.16714,-0.3538 -2.5811,-2.91912 -0.47106,-2.91912 2.13741,0 3.65397,-2.27298 3.65397,-5.47648 0,-3.07165 -1.02372,-4.37938 -3.99066,-5.09802 -1.48478,-0.35961 -2.12674,-0.97616 -2.27304,-2.18291 -0.11212,-0.92498 0.11624,-1.68178 0.50739,-1.68178 1.45829,0 3.84268,-3.7326 3.84268,-6.01551 0,-2.70166 -2.12552,-5.38384 -4.26649,-5.38384 -0.81092,0 -1.47442,-0.314 -1.47442,-0.6978 0,-0.38379 -0.17426,-1.23875 -0.38721,-1.8999 -0.24939,-0.77428 -0.0388,-1.20208 0.59159,-1.20208 1.30867,0 3.62291,-3.59825 3.62291,-5.63307 0,-2.45493 -1.68488,-4.82569 -3.8281,-5.38651 -2.29801,-0.60133 -2.64088,-3.27226 -0.61369,-4.78056 1.64409,-1.22323 2.7116,-4.50428 2.22185,-6.82898 -0.22866,-1.08545 -1.21696,-2.20777 -2.51161,-2.85223 -1.65868,-0.82569 -2.22594,-1.64265 -2.54431,-3.66454 -0.2253,-1.43107 -1.15946,-3.49523 -2.07586,-4.58701 -1.49997,-1.78702 -2.14326,-1.98508 -6.44747,-1.98508 -4.63799,0 -4.84436,0.0797 -6.88685,2.65986 z m 10.21368,0.36472 c 1.64032,0.743 3.46947,4.1548 2.71158,5.05773 -0.21988,0.26198 -2.99826,-0.12499 -6.17416,-0.85991 -4.97,-1.1501 -5.6649,-1.49341 -4.98846,-2.46443 1.62521,-2.33304 5.41233,-3.10981 8.45104,-1.73339 z m -1.99014,7.55427 c 4.85103,1.18461 9.11348,2.50336 9.47208,2.9306 0.94794,1.12936 -0.006,3.96957 -1.33183,3.96957 -2.10643,0 -20.09565,-4.57129 -20.66676,-5.25168 -0.3116,-0.37123 -0.37515,-1.39336 -0.14125,-2.27139 0.5578,-2.0938 1.791,-2.03316 12.66776,0.6229 z m 0.1102,8.27358 c 5.13668,1.20795 5.76352,1.53707 5.9556,3.12705 0.18398,1.52226 0,1.71508 -1.27575,1.34503 -0.81974,-0.2376 -4.14563,-1.03236 -7.39083,-1.76618 -5.42909,-1.22762 -5.90038,-1.47532 -5.90038,-3.1012 0,-1.44617 0.26061,-1.69328 1.43523,-1.36089 0.78935,0.22338 4.01863,1.01366 7.17613,1.75619 z m -2.18111,5.83527 c 15.142,3.60982 13.98188,3.16433 13.98188,5.36894 0,1.05008 -0.40313,2.09356 -0.89589,2.31882 -1.02836,0.47016 -24.65124,-4.93264 -25.49749,-5.83155 -0.64897,-0.68935 0.0136,-4.50515 0.78237,-4.50515 0.28474,0 5.51786,1.19201 11.62913,2.64894 z m 2.28678,8.7889 c 5.63709,1.32098 7.1856,1.95723 7.4257,3.05113 0.16682,0.76016 0.18621,1.5217 0.0428,1.6923 -0.14324,0.1706 -4.05886,-0.59291 -8.70147,-1.69669 -7.78346,-1.85052 -8.45782,-2.14538 -8.65581,-3.78489 -0.18373,-1.52145 3.5e-4,-1.7169 1.27576,-1.35443 0.81976,0.23296 4.69551,1.17462 8.61279,2.09258 z m -0.10567,6.27456 c 12.70008,3.021 13.40654,3.27972 13.60893,4.98396 0.11742,0.98866 -0.0555,2.11797 -0.38415,2.50956 -0.37161,0.44274 -5.63937,-0.47293 -13.92789,-2.42102 -17.46706,-4.10534 -16.20068,-3.66434 -16.20068,-5.6416 0,-3.47584 -0.11746,-3.47979 16.90379,0.5691 z m -1.85606,7.77324 c 4.52917,1.05983 8.8807,2.0923 9.6701,2.29435 1.40251,0.359 2.14398,3.37823 0.82959,3.37823 -0.93881,0 -20.02896,-4.57145 -20.26513,-4.85281 -0.34532,-0.41141 0.55835,-2.74676 1.06286,-2.74676 0.25727,0 4.17343,0.86716 8.70258,1.92699 z m 2.41691,6.91836 c 7.67596,1.84012 14.20626,3.52971 14.51173,3.75466 0.84664,0.62337 0.66192,3.91002 -0.24189,4.30407 -0.43855,0.1912 -7.97348,-1.33702 -16.74432,-3.39604 -16.5596,-3.8875 -18.16977,-4.61017 -16.84463,-7.5601 0.75431,-1.67917 -0.65132,-1.88997 19.31911,2.89741 z m 9.96417,12.22752 v 1.75937 l -11.9394,-0.20676 -11.93939,-0.20675 0.19629,-3.79352 c 0.10795,-2.08643 0.29304,-3.97999 0.41127,-4.20792 0.11823,-0.22792 5.40262,0.78049 11.74308,2.2409 10.98411,2.52999 11.52815,2.73832 11.52815,4.41468 z m 5.74091,5.08426 c 0,0.34997 1.80958,9.14564 2.31881,11.27075 0.29873,1.24684 -0.95928,1.32993 -20.13645,1.32993 -11.25031,0 -20.44674,-0.25649 -20.43653,-0.56998 0.0103,-0.31347 0.57594,-2.96383 1.25718,-5.88966 0.68124,-2.92583 1.24697,-5.57618 1.25718,-5.88966 0.0189,-0.58104 35.73981,-0.83228 35.73981,-0.25138 z"
       style="fill:#000000;stroke-width:0.858911"
       sodipodi:nodetypes="cscsssssscsscsccsssssssssssccssssssssccccssccscccsscsscsccccscccscssccccsscccssccssscssssscsssssccccsssscscscs" />
    <path
       sodipodi:nodetypes="cccccc"
       inkscape:export-ydpi="90"
       inkscape:export-xdpi="90"
       inkscape:connector-curvature="0"
       id="path4638-9-2"
       d="m 198.70362,184.63541 c 0.63827,2.30926 2.20015,5.4667 5.22455,10.56183 -16.64054,27.13088 -0.20475,53.68672 -31.83913,54.92654 -34.33411,-1.05361 -14.44236,-27.05196 -34.00367,-55.06034 3.10297,-5.33801 4.49374,-8.17211 5.11728,-10.42803 z"
       style="fill:#000000;stroke:none;stroke-width:2.082;stroke-miterlimit:4;stroke-dasharray:none;stroke-opacity:1"
       inkscape:export-filename="/Users/ingmarkappel/Desktop/tooth menu.png" />
    <path
       id="path4638-9-3"
       style="fill:#91d8ff;fill-opacity:1;stroke:#000000;stroke-width:1;stroke-miterlimit:4;stroke-dasharray:none;stroke-opacity:1"
       d="m 135.08743,196.62663 c -1.43333,2.89656 -2.49776,5.63433 -3.65508,9.263 -3.56204,11.16841 -3.98993,19.34292 -1.58388,30.23794 1.54367,6.99029 5.1215,16.73387 6.58875,17.9431 2.00005,1.64838 26.24279,3.85615 37.63336,3.42718 11.34296,-0.42718 28.40789,-2.26565 29.87621,-3.21841 2.04111,-1.32447 6.19706,-12.62535 7.73699,-21.03851 1.34269,-7.33549 0.64563,-16.84619 -1.86965,-25.51214 -0.67578,-2.32833 -1.30366,-4.61978 -1.39526,-5.09219 -0.18073,-0.93215 -0.89959,-2.75307 -1.84485,-4.79351 -12.08379,28.88729 0.88205,54.79899 -34.50797,56.13714 -38.98282,-1.15414 -21.77957,-27.24869 -36.97862,-57.3536 z" />
  </g>
</svg>
