<?xml version="1.0" encoding="UTF-8" standalone="no"?>
<svg
   xmlns:dc="http://purl.org/dc/elements/1.1/"
   xmlns:cc="http://creativecommons.org/ns#"
   xmlns:rdf="http://www.w3.org/1999/02/22-rdf-syntax-ns#"
   xmlns:svg="http://www.w3.org/2000/svg"
   xmlns="http://www.w3.org/2000/svg"
   xmlns:sodipodi="http://sodipodi.sourceforge.net/DTD/sodipodi-0.dtd"
   xmlns:inkscape="http://www.inkscape.org/namespaces/inkscape"
   sodipodi:docname="35,34_44,45.svg"
   inkscape:version="1.0 (4035a4f, 2020-05-01)"
   id="svg5422"
   version="1.1"
   viewBox="0 0 91.312638 176.03139"
   height="176.03139mm"
   width="91.312637mm">
  <defs
     id="defs5416" />
  <sodipodi:namedview
     inkscape:window-maximized="0"
     inkscape:window-y="23"
     inkscape:window-x="0"
     inkscape:window-height="943"
     inkscape:window-width="1248"
     fit-margin-bottom="0"
     fit-margin-right="0"
     fit-margin-left="0"
     fit-margin-top="0"
     showgrid="false"
     inkscape:document-rotation="0"
     inkscape:current-layer="layer1"
     inkscape:document-units="mm"
     inkscape:cy="335.90179"
     inkscape:cx="24.249971"
     inkscape:zoom="0.87016275"
     inkscape:pageshadow="2"
     inkscape:pageopacity="0.0"
     borderopacity="1.0"
     bordercolor="#666666"
     pagecolor="#ffffff"
     id="base" />
  <metadata
     id="metadata5419">
    <rdf:RDF>
      <cc:Work
         rdf:about="">
        <dc:format>image/svg+xml</dc:format>
        <dc:type
           rdf:resource="http://purl.org/dc/dcmitype/StillImage" />
        <dc:title />
      </cc:Work>
    </rdf:RDF>
  </metadata>
  <g
     transform="translate(-119.14334,-76.21198)"
     id="layer1"
     inkscape:groupmode="layer"
     inkscape:label="Ebene 1">
    <path
       inkscape:export-filename="/Users/ingmarkappel/Desktop/tooth menu_lower_jaw.png"
       style="fill:#808080;stroke:#000000;stroke-width:1;stroke-miterlimit:4;stroke-dasharray:none;stroke-opacity:1"
       d="m 130.62724,156.51564 c -6.0364,-10.58943 -9.53514,-19.66031 -10.56917,-28.92778 -1.43454,-12.85604 0.88618,-23.93868 6.5379,-31.220857 5.34952,-6.892798 16.55854,-14.780795 25.23518,-17.758832 10.69123,-3.669453 22.17285,-2.046393 35.84028,5.066481 4.34255,2.259894 9.4,5.359654 12.57723,7.708702 3.68585,2.724912 7.19954,9.103166 8.73255,15.851266 0.9175,4.03815 1.25701,12.71527 0.69991,17.88377 -1.02757,9.53313 -4.41375,21.31242 -10.52248,32.02859 -36.16686,19.84369 -68.5314,-0.63134 -68.5314,-0.63134 z"
       id="path4706-2"
       inkscape:connector-curvature="0"
       inkscape:export-xdpi="90"
       inkscape:export-ydpi="90"
       sodipodi:nodetypes="ccsccccscc" />
    <path
       style="fill:#000000;stroke-width:0.961;stroke-miterlimit:4;stroke-dasharray:none"
       d="m 172.82223,249.46537 c 1.38951,-1.5279 3.21373,-2.778 4.05381,-2.778 2.02385,0 3.69378,-1.82654 4.30394,-4.70756 0.62668,-2.95897 -0.6304,-5.44875 -3.07193,-6.08424 -2.64325,-0.68799 -2.59756,-3.49503 0.057,-3.49503 2.67842,0 5.70539,-3.31911 5.70539,-6.25603 0,-2.41477 -2.90758,-5.64967 -5.07804,-5.64967 -0.57465,0 -1.04482,-0.71435 -1.04482,-1.58743 0,-1.31905 0.51024,-1.58742 3.01803,-1.58742 2.25112,0 3.32078,-0.44827 4.20946,-1.76403 2.53369,-3.75139 0.77774,-8.75911 -3.37325,-9.62006 -1.71769,-0.35627 -2.32353,-0.92405 -2.32353,-2.17752 0,-1.49297 0.30594,-1.6361 2.55982,-1.19759 3.54606,0.68989 6.62446,-1.81317 6.62446,-5.3864 0,-3.34097 -1.29199,-4.99171 -4.57396,-5.84402 -2.58553,-0.67143 -2.65448,-0.79038 -2.44523,-4.21707 0.33317,-5.45562 0.75382,-6.30412 3.12536,-6.30412 2.82161,0 4.39301,-1.96139 5.41538,-6.75939 -0.7591,-8.81118 7.66305,-11.24112 9.48642,-18.2362 -20.97146,7.72311 -23.13485,8.13768 -34.78571,8.3276 -18.31115,0 -32.85866,-7.65193 -32.85866,-7.30307 3.29107,7.94233 6.51717,11.746 7.67316,17.34414 0.91746,4.46486 2.39409,6.33576 5.33013,6.75298 2.60024,0.36951 3.09693,3.04879 0.5652,3.04879 -2.56456,0 -4.38421,2.37392 -4.38421,5.71972 0,3.20809 1.22831,4.57391 4.7882,5.32446 1.7815,0.37559 2.55175,1.01952 2.72729,2.27989 0.13453,0.96605 -0.13947,1.75647 -0.60879,1.75647 -1.74972,0 -4.61062,3.89842 -4.61062,6.28272 0,2.82168 2.55028,5.62299 5.11912,5.62299 0.97298,0 1.76908,0.32795 1.76908,0.7288 0,0.40084 0.20909,1.29377 0.4646,1.98429 0.29923,0.80867 0.0466,1.25548 -0.70982,1.25548 -1.57021,0 -4.34693,3.75808 -4.34693,5.88328 0,2.56398 2.0216,5.04004 4.59313,5.62577 2.75725,0.62804 3.16865,3.41761 0.73634,4.9929 -1.97267,1.27758 -3.25352,4.70437 -2.6659,7.13232 0.27437,1.13367 1.46018,2.30584 3.01356,2.97893 1.99016,0.86236 2.67077,1.71561 3.05278,3.82731 0.27033,1.49464 1.39117,3.65049 2.49072,4.79077 1.79972,1.86638 2.57157,2.07323 7.73596,2.07323 5.56487,0 5.81249,-0.0832 8.26317,-2.77799 z m -12.25486,-0.38092 c -1.96812,-0.77601 -4.16283,-4.33935 -3.25346,-5.28239 0.26381,-0.27361 3.59744,0.13054 7.40803,0.89811 5.96325,1.20119 6.79701,1.55974 5.98539,2.5739 -1.95001,2.43666 -6.49396,3.24794 -10.13996,1.81038 z m 2.38788,-7.88982 c -5.8205,-1.23723 -10.93479,-2.61456 -11.36505,-3.06077 -1.13738,-1.17953 0.006,-4.1459 1.598,-4.1459 2.52739,0 24.11168,4.77434 24.79692,5.48496 0.37388,0.38772 0.45014,1.45525 0.16949,2.37228 -0.66927,2.1868 -2.14893,2.12347 -15.19936,-0.65057 z m -0.13223,-8.64108 c -6.16322,-1.26162 -6.91535,-1.60535 -7.14581,-3.26596 -0.22074,-1.58988 0,-1.79126 1.5307,-1.40477 0.98357,0.24814 4.97413,1.07822 8.86788,1.84463 6.51407,1.28215 7.07954,1.54086 7.07954,3.23896 0,1.5104 -0.31269,1.76848 -1.72205,1.42133 -0.94712,-0.2333 -4.82175,-1.05868 -8.61026,-1.83419 z m 2.61699,-6.09447 c -18.16807,-3.77017 -16.77611,-3.30489 -16.77611,-5.60742 0,-1.09674 0.48371,-2.18656 1.07494,-2.42182 1.23387,-0.49105 29.5777,5.15173 30.59307,6.09058 0.77867,0.71997 -0.0164,4.70526 -0.93872,4.70526 -0.34165,0 -6.62058,-1.24497 -13.95318,-2.7666 z m -2.74377,-9.1793 c -6.76365,-1.37965 -8.62163,-2.04416 -8.90971,-3.18665 -0.20016,-0.79394 -0.22343,-1.58929 -0.0514,-1.76747 0.17187,-0.17818 4.87002,0.61925 10.44044,1.77205 9.33896,1.93272 10.14809,2.24068 10.38563,3.95301 0.22045,1.58904 -4.2e-4,1.79317 -1.5307,1.4146 -0.98359,-0.24331 -5.6339,-1.2268 -10.33404,-2.18554 z m 0.12678,-6.55326 c -15.23815,-3.15519 -16.08579,-3.4254 -16.32863,-5.20535 -0.14088,-1.03258 0.0666,-2.21204 0.46093,-2.62104 0.44587,-0.4624 6.76637,0.49395 16.71132,2.52856 20.95779,4.2877 19.43833,3.82712 19.43833,5.89221 0,3.63023 0.14093,3.63435 -20.28195,-0.59438 z M 165.05,202.608 c -5.4343,-1.10693 -10.65547,-2.18525 -11.60263,-2.39627 -1.6828,-0.37495 -2.57244,-3.5283 -0.99538,-3.5283 1.12643,0 24.03168,4.77452 24.31505,5.06839 0.41433,0.42968 -0.66994,2.86875 -1.27527,2.86875 -0.30868,0 -5.00748,-0.90566 -10.44177,-2.01257 z m -2.89992,-7.22568 c -9.20997,-1.92185 -17.04532,-3.68649 -17.41184,-3.92143 -1.01584,-0.65106 -0.79419,-4.0837 0.29022,-4.49526 0.5262,-0.19969 9.56696,1.39641 20.09062,3.54689 19.86898,4.06018 21.80093,4.81495 20.21097,7.89591 -0.90506,1.75375 0.78148,1.97392 -23.17997,-3.02611 z m -11.95547,-12.77064 v -1.83753 l 14.32545,0.21594 14.32543,0.21594 -0.23552,3.96202 c -0.12953,2.17911 -0.35159,4.15678 -0.49346,4.39483 -0.14186,0.23804 -6.48231,-0.81515 -14.0899,-2.34044 -13.17924,-2.64236 -13.832,-2.85995 -13.832,-4.61076 z m -6.8882,-5.31011 c 0,-0.3655 -2.17123,-9.55188 -2.78222,-11.77138 11.12363,1.56401 48.68134,-0.79371 48.68134,-0.79371 -0.0122,0.32741 -0.69104,3.09548 -1.50843,6.15127 -0.81738,3.0558 -1.49617,5.82387 -1.50842,6.15129 -0.0227,0.60684 -42.88227,0.86924 -42.88227,0.26253 z"
       id="path5207"
       inkscape:connector-curvature="0"
       sodipodi:nodetypes="csssssssscssssssscccccsssssssssssssssscssccssssssssssssccsssssscssscccsssccsscsssscssssscssssscccsssssccsss" />
  </g>
</svg>
