<?xml version="1.0" encoding="UTF-8" standalone="no"?>
<svg
   xmlns:dc="http://purl.org/dc/elements/1.1/"
   xmlns:cc="http://creativecommons.org/ns#"
   xmlns:rdf="http://www.w3.org/1999/02/22-rdf-syntax-ns#"
   xmlns:svg="http://www.w3.org/2000/svg"
   xmlns="http://www.w3.org/2000/svg"
   xmlns:sodipodi="http://sodipodi.sourceforge.net/DTD/sodipodi-0.dtd"
   xmlns:inkscape="http://www.inkscape.org/namespaces/inkscape"
   width="92.307159mm"
   height="174.66684mm"
   viewBox="0 0 92.307159 174.66684"
   version="1.1"
   id="svg1810"
   inkscape:version="1.0 (4035a4f, 2020-05-01)"
   sodipodi:docname="15_25.svg">
  <defs
     id="defs1804" />
  <sodipodi:namedview
     id="base"
     pagecolor="#ffffff"
     bordercolor="#666666"
     borderopacity="1.0"
     inkscape:pageopacity="0.0"
     inkscape:pageshadow="2"
     inkscape:zoom="0.35"
     inkscape:cx="162.08776"
     inkscape:cy="432.93621"
     inkscape:document-units="mm"
     inkscape:current-layer="layer1"
     inkscape:document-rotation="0"
     showgrid="false"
     fit-margin-top="0"
     fit-margin-left="0"
     fit-margin-right="0"
     fit-margin-bottom="0"
     inkscape:window-width="1248"
     inkscape:window-height="943"
     inkscape:window-x="0"
     inkscape:window-y="23"
     inkscape:window-maximized="0" />
  <metadata
     id="metadata1807">
    <rdf:RDF>
      <cc:Work
         rdf:about="">
        <dc:format>image/svg+xml</dc:format>
        <dc:type
           rdf:resource="http://purl.org/dc/dcmitype/StillImage" />
        <dc:title></dc:title>
      </cc:Work>
    </rdf:RDF>
  </metadata>
  <g
     inkscape:label="Ebene 1"
     inkscape:groupmode="layer"
     id="layer1"
     transform="translate(-62.947612,-33.618961)">
    <path
       inkscape:export-filename="/Users/ingmarkappel/Desktop/tooth menu.png"
       inkscape:connector-curvature="0"
       id="path4542-5-1"
       d="m 145.45173,131.7323 c 6.03648,10.58937 7.94766,15.9561 8.98172,25.22361 1.43456,12.85601 -0.88615,23.93865 -6.53796,31.22082 -5.34952,6.89278 -16.55854,14.78077 -25.23518,17.75881 -10.69114,3.66945 -22.17286,2.04639 -35.840345,-5.06648 -4.342553,-2.2599 -9.399946,-5.35966 -12.577232,-7.70871 -3.685794,-2.72491 -7.19946,-9.10315 -8.732491,-15.85123 -0.917533,-4.03815 -1.257046,-12.71527 -0.699939,-17.88377 1.027599,-9.53314 2.905223,-14.86027 9.013923,-25.57639 38.538244,-24.79281 36.426384,-23.37049 71.627504,-2.11666 z"
       style="fill:#91d8ff;fill-opacity:1;stroke:#000000;stroke-width:1;stroke-miterlimit:4;stroke-dasharray:none;stroke-opacity:1"
       inkscape:export-xdpi="90"
       inkscape:export-ydpi="90"
       sodipodi:nodetypes="cccscccccc" />
    <path
       sodipodi:nodetypes="cccccccc"
       inkscape:export-ydpi="90"
       inkscape:export-xdpi="90"
       style="fill:#808080;fill-opacity:1;stroke:#000000;stroke-width:1;stroke-miterlimit:4;stroke-dasharray:none;stroke-opacity:1"
       d="m 110.56412,207.82859 c -7.2718,-0.14099 -15.067522,-2.44401 -23.744155,-6.95953 -4.342553,-2.2599 -9.399946,-5.35966 -12.577232,-7.70871 -3.685794,-2.72491 -7.19946,-9.10315 -8.732491,-15.85123 -0.917533,-4.03815 -1.257046,-12.71527 -0.699939,-17.88377 1.027599,-9.53314 2.905223,-14.86027 9.013923,-25.57639 20.1669,-12.974 29.202244,-18.76926 38.278074,-18.30055 z"
       id="path839"
       inkscape:connector-curvature="0"
       inkscape:export-filename="/Users/ingmarkappel/Desktop/tooth menu.png" />
  </g>
</svg>
