<?xml version="1.0" encoding="UTF-8" standalone="no"?>
<svg
   xmlns:dc="http://purl.org/dc/elements/1.1/"
   xmlns:cc="http://creativecommons.org/ns#"
   xmlns:rdf="http://www.w3.org/1999/02/22-rdf-syntax-ns#"
   xmlns:svg="http://www.w3.org/2000/svg"
   xmlns="http://www.w3.org/2000/svg"
   xmlns:sodipodi="http://sodipodi.sourceforge.net/DTD/sodipodi-0.dtd"
   xmlns:inkscape="http://www.inkscape.org/namespaces/inkscape"
   sodipodi:docname="14_24.svg"
   inkscape:version="1.0 (4035a4f, 2020-05-01)"
   id="svg2412"
   version="1.1"
   viewBox="0 0 95.133248 160.75854"
   height="160.75854mm"
   width="95.133247mm">
  <defs
     id="defs2406" />
  <sodipodi:namedview
     inkscape:window-maximized="0"
     inkscape:window-y="26"
     inkscape:window-x="459"
     inkscape:window-height="943"
     inkscape:window-width="1248"
     fit-margin-bottom="0"
     fit-margin-right="0"
     fit-margin-left="0"
     fit-margin-top="0"
     showgrid="false"
     inkscape:document-rotation="0"
     inkscape:current-layer="layer1"
     inkscape:document-units="mm"
     inkscape:cy="361.34128"
     inkscape:cx="0.58919649"
     inkscape:zoom="0.71060732"
     inkscape:pageshadow="2"
     inkscape:pageopacity="0.0"
     borderopacity="1.0"
     bordercolor="#666666"
     pagecolor="#ffffff"
     id="base" />
  <metadata
     id="metadata2409">
    <rdf:RDF>
      <cc:Work
         rdf:about="">
        <dc:format>image/svg+xml</dc:format>
        <dc:type
           rdf:resource="http://purl.org/dc/dcmitype/StillImage" />
        <dc:title />
      </cc:Work>
    </rdf:RDF>
  </metadata>
  <g
     transform="translate(-90.451406,-33.448624)"
     id="layer1"
     inkscape:groupmode="layer"
     inkscape:label="Ebene 1">
    <path
       sodipodi:nodetypes="cscsssssscsscsscssssssscsssscssssssssccsccsccscccssssscsscccssssscsssccccscccsscsssssssssscsssssccccsssssscsss"
       style="fill:#000000;stroke-width:0.855716"
       d="m 131.14063,36.03797 c -1.18076,1.424147 -2.73093,2.589358 -3.44481,2.589358 -1.71978,0 -3.13883,1.702506 -3.65734,4.387887 -0.53253,2.758039 0.5357,5.078747 2.61043,5.671083 2.24615,0.641272 2.20731,3.257698 -0.0484,3.257698 -2.27603,0 -4.84824,3.093722 -4.84824,5.831204 0,2.250798 2.47076,5.266028 4.31513,5.266028 0.48832,0 0.88786,0.665838 0.88786,1.479635 0,1.229471 -0.43359,1.479624 -2.56462,1.479624 -1.91292,0 -2.82188,0.417826 -3.57706,1.644242 -2.15304,3.496644 -0.6609,8.164308 2.86648,8.966795 1.45963,0.332075 1.97445,0.861301 1.97445,2.029655 0,1.391582 -0.25998,1.524995 -2.17524,1.116265 -3.01333,-0.643043 -5.62925,1.690034 -5.62925,5.020629 0,3.114097 1.09789,4.652733 3.8868,5.447167 2.19709,0.625844 2.25569,0.736707 2.07788,3.930704 -0.28312,5.085177 -0.64058,5.876056 -2.65583,5.876056 -2.39771,0 -3.73304,1.8282 -4.60182,6.30039 -1.74293,8.97198 -8.3423,8.83103 -10.35884,10.94701 -4.03005,4.22875 -1.56555,10.86612 -1.56555,11.20862 0,0.34248 19.08108,-9.96064 34.64127,-9.96064 15.5602,0 31.99548,9.99214 31.99548,9.99214 -0.32515,-0.002 4.79114,-6.74581 0.38471,-12.10459 -2.29418,-2.79001 -10.58208,-1.5864 -12.19678,-10.20602 -0.77962,-4.16166 -2.03442,-5.90552 -4.52935,-6.294407 -2.20961,-0.344427 -2.63168,-2.841768 -0.4803,-2.841768 2.17928,0 3.72555,-2.212733 3.72555,-5.331333 0,-2.990241 -1.04377,-4.263315 -4.06885,-4.962897 -1.51385,-0.350086 -2.16839,-0.950289 -2.31756,-2.125072 -0.11431,-0.900449 0.11853,-1.637194 0.51733,-1.637194 1.48686,0 3.91796,-3.63368 3.91796,-5.856079 0,-2.630067 -2.16715,-5.241148 -4.35007,-5.241148 -0.8268,0 -1.5033,-0.305682 -1.5033,-0.679307 0,-0.373627 -0.17768,-1.205918 -0.3948,-1.849546 -0.25427,-0.753762 -0.0396,-1.170227 0.60318,-1.170227 1.33432,0 3.69387,-3.502882 3.69387,-5.483772 0,-2.389867 -1.71787,-4.697788 -3.90308,-5.243748 -2.34301,-0.58539 -2.6926,-3.18553 -0.62571,-4.653849 1.6763,-1.190825 2.76472,-4.384914 2.26538,-6.647993 -0.23314,-1.056687 -1.24081,-2.149258 -2.56081,-2.776642 -1.69117,-0.8038 -2.26953,-1.599109 -2.59415,-3.567411 -0.22972,-1.393147 -1.18218,-3.402601 -2.11653,-4.465448 -1.52935,-1.739642 -2.18523,-1.932445 -6.57377,-1.932445 -4.72884,0 -4.93926,0.07755 -7.02176,2.589347 z m 10.41376,0.355054 c 1.67246,0.723314 3.53745,4.044681 2.76469,4.923684 -0.22417,0.255031 -3.05698,-0.121679 -6.29511,-0.837123 -5.06736,-1.119622 -5.77586,-1.453825 -5.08617,-2.399117 1.65704,-2.271196 5.51835,-3.027385 8.61659,-1.687444 z m -2.02913,7.354053 c 4.94606,1.153215 9.29202,2.437016 9.65764,2.852925 0.9665,1.099433 -0.005,3.864368 -1.35793,3.864368 -2.14769,0 -20.48931,-4.450133 -21.0716,-5.112497 -0.31771,-0.361393 -0.3825,-1.35643 -0.14402,-2.211188 0.56872,-2.038303 1.82609,-1.979273 12.91591,0.606392 z m 0.11236,8.054298 c 5.2373,1.17595 5.87643,1.496337 6.07228,3.044182 0.18757,1.481912 0,1.669622 -1.30075,1.309377 -0.8358,-0.231295 -4.22685,-1.005002 -7.53562,-1.719368 -5.53545,-1.195085 -6.01597,-1.436227 -6.01597,-3.019015 0,-1.407834 0.26572,-1.648388 1.46335,-1.324812 0.80483,0.217457 4.09736,0.986788 7.31671,1.709636 z m -2.22384,5.680617 c 15.43862,3.51415 14.25578,3.08047 14.25578,5.226648 0,1.022257 -0.41104,2.038079 -0.91344,2.25736 -1.04851,0.457705 -25.13414,-4.8019 -25.99697,-5.676989 -0.66168,-0.671086 0.0139,-4.385748 0.7977,-4.385748 0.29032,0 5.62594,1.160426 11.85693,2.578729 z m 2.33157,8.555968 c 5.74754,1.285968 7.32638,1.905351 7.57118,2.970263 0.17009,0.740022 0.18986,1.481364 0.0437,1.647445 -0.14605,0.166081 -4.13838,-0.577199 -8.87193,-1.651713 -7.93595,-1.801476 -8.62352,-2.088526 -8.82538,-3.684579 -0.18732,-1.481131 3.6e-4,-1.671403 1.30075,-1.31854 0.83582,0.226786 4.7875,1.14349 8.78152,2.037124 z m -0.10773,6.108255 c 12.94887,2.940939 13.66916,3.192795 13.87552,4.851875 0.11971,0.962461 -0.0566,2.06183 -0.39168,2.443054 -0.37889,0.430999 -5.74983,-0.460403 -14.20073,-2.356854 -17.80922,-3.99654 -16.51804,-3.56723 -16.51804,-5.492092 0,-3.383716 -0.11975,-3.387559 17.23493,0.554017 z m -1.89242,7.567227 c 4.6179,1.031747 9.05467,2.036845 9.85953,2.233545 1.42999,0.349479 2.18598,3.288697 0.84585,3.288697 -0.9572,0 -20.42133,-4.450295 -20.66212,-4.724204 -0.35209,-0.400501 0.56929,-2.673947 1.08368,-2.673947 0.2623,0 4.25519,0.844164 8.87306,1.875909 z m 2.46426,6.735008 c 7.82634,1.791345 14.48454,3.436155 14.796,3.655132 0.86323,0.60685 0.67488,3.806392 -0.24662,4.190005 -0.44715,0.186129 -8.12968,-1.301586 -17.07234,-3.306035 -16.88399,-3.784459 -18.5257,-4.487977 -17.1746,-7.359729 0.76908,-1.63466 -0.66407,-1.83988 19.69756,2.820627 z m 10.15936,11.903453 v 1.712747 l -12.17329,-0.201272 -12.17327,-0.201285 0.20013,-3.692984 c 0.11008,-2.031145 0.29877,-3.874518 0.41933,-4.096404 0.12054,-0.221875 5.50845,0.759797 11.97312,2.181511 11.19928,2.462945 11.75398,2.66575 11.75398,4.297687 z m 5.85336,4.949517 c 0,0.34069 1.84504,8.90325 2.36423,10.97203 0.3046,1.21379 -0.97805,1.29468 -20.5309,1.29468 -11.47069,0 -20.84728,-0.24968 -20.83687,-0.55487 0.0105,-0.30517 0.58723,-2.88528 1.28181,-5.73356 0.69459,-2.84829 1.2714,-5.4284 1.28181,-5.73357 0.0193,-0.56563 36.43992,-0.81023 36.43992,-0.24471 z"
       id="path5207"
       inkscape:connector-curvature="0" />
    <path
       inkscape:export-filename="/Users/ingmarkappel/Desktop/tooth menu.png"
       style="fill:#000000;stroke-width:0.282223"
       d="m 172.45864,118.12843 c 0.44057,2.97981 1.36973,4.4091 3.57325,8.27441 -17.80657,26.82799 7.26901,54.18551 -38.00842,54.92201 -43.314295,0.70457 -20.53753,-31.1852 -37.49953,-54.92201 2.13189,-3.73977 4.13034,-5.21247 4.58699,-7.96084 l 33.14469,-0.15679 z"
       id="path4440-5-2"
       inkscape:connector-curvature="0"
       inkscape:export-xdpi="90"
       inkscape:export-ydpi="90"
       sodipodi:nodetypes="ccscccc" />
    <path
       d="m 96.819771,132.75288 c -3.45728,6.89527 -4.79018,11.78691 -5.59345,19.23914 -0.55711,5.16851 -0.21781,13.84551 0.6997,17.88366 1.74811,7.69488 5.433854,13.79665 10.745569,17.78961 9.0898,6.83302 20.71864,7.81264 32.89825,2.77089 l 2.90473,-1.20251 2.61896,1.20975 c 4.82967,2.23142 12.14074,3.63878 16.47962,3.1719 17.61998,-1.89597 27.5145,-14.26629 27.5115,-34.3917 -0.002,-10.14543 -1.32558,-16.86434 -5.50923,-25.58087 -13.15751,26.3995 8.62099,51.37899 -41.5277,52.10586 -48.148179,0.6979 -28.23648,-28.51414 -41.227949,-52.99573 z"
       style="fill:#91d8ff;stroke:#000000;stroke-width:1;stroke-miterlimit:4;stroke-dasharray:none;stroke-opacity:1;fill-opacity:1"
       id="path4440-5-6"
       sodipodi:nodetypes="cscscccscccc" />
  </g>
</svg>
