<?xml version="1.0" encoding="UTF-8" standalone="no"?>
<svg
   xmlns:dc="http://purl.org/dc/elements/1.1/"
   xmlns:cc="http://creativecommons.org/ns#"
   xmlns:rdf="http://www.w3.org/1999/02/22-rdf-syntax-ns#"
   xmlns:svg="http://www.w3.org/2000/svg"
   xmlns="http://www.w3.org/2000/svg"
   xmlns:sodipodi="http://sodipodi.sourceforge.net/DTD/sodipodi-0.dtd"
   xmlns:inkscape="http://www.inkscape.org/namespaces/inkscape"
   sodipodi:docname="38-36_46-48.svg"
   inkscape:version="1.0 (4035a4f, 2020-05-01)"
   id="svg4820"
   version="1.1"
   viewBox="0 0 117.76489 157.81284"
   height="157.81284mm"
   width="117.76489mm">
  <defs
     id="defs4814" />
  <sodipodi:namedview
     inkscape:window-maximized="0"
     inkscape:window-y="23"
     inkscape:window-x="0"
     inkscape:window-height="943"
     inkscape:window-width="1248"
     fit-margin-bottom="0"
     fit-margin-right="0"
     fit-margin-left="0"
     fit-margin-top="0"
     showgrid="false"
     inkscape:document-rotation="0"
     inkscape:current-layer="layer1"
     inkscape:document-units="mm"
     inkscape:cy="63.943254"
     inkscape:cx="99.690684"
     inkscape:zoom="0.35"
     inkscape:pageshadow="2"
     inkscape:pageopacity="0.0"
     borderopacity="1.0"
     bordercolor="#666666"
     pagecolor="#ffffff"
     id="base" />
  <metadata
     id="metadata4817">
    <rdf:RDF>
      <cc:Work
         rdf:about="">
        <dc:format>image/svg+xml</dc:format>
        <dc:type
           rdf:resource="http://purl.org/dc/dcmitype/StillImage" />
        <dc:title></dc:title>
      </cc:Work>
    </rdf:RDF>
  </metadata>
  <g
     transform="translate(-79.45684,-131.24835)"
     id="layer1"
     inkscape:groupmode="layer"
     inkscape:label="Ebene 1">
    <path
       inkscape:export-filename="/Users/ingmarkappel/Desktop/tooth menu_lower_jaw.png"
       inkscape:connector-curvature="0"
       id="path4275-9"
       d="m 113.685,288.91605 c -2.07995,-0.38964 -6.59384,-4.5842 -9.02786,-8.38917 -5.469806,-8.55071 -9.253672,-23.07678 -10.934136,-41.97576 -0.310529,-3.4925 -0.682695,-12.14436 -0.826967,-19.22636 -0.301724,-14.80786 -0.10256,-13.79739 -4.102354,-20.81392 -7.246648,-12.71204 -9.334471,-20.04855 -9.336842,-32.8083 -0.0037,-20.12543 9.891662,-32.49526 27.511669,-34.39126 2.4568,-0.26435 7.88227,0.33407 11.18884,1.23408 1.40019,0.38114 4.16899,1.42251 6.1529,2.31413 11.146,5.00942 15.4073,5.13176 25.7357,0.73886 6.41423,-2.72816 9.3915,-3.60017 14.03728,-4.11138 7.72995,-0.85059 15.33813,1.20003 21.42298,5.77412 5.31179,3.99291 8.99752,10.09475 10.74567,17.78965 0.91739,4.03815 1.2569,12.71527 0.69977,17.88378 -1.0276,9.53312 -2.90506,14.86026 -9.01384,25.57632 -3.99568,7.00922 -3.80484,6.0548 -4.09104,20.46111 -0.26453,13.31584 -0.64674,19.42655 -1.76533,28.22226 -1.74834,13.74772 -4.97749,24.947 -9.29445,32.23482 -1.7561,2.96458 -5.41858,6.99965 -7.38767,8.13921 -4.60223,2.66339 -8.51823,1.54423 -10.79763,-3.0859 -0.97347,-1.97739 -1.16764,-2.92953 -1.78023,-8.7295 -1.97812,-18.72847 -5.67267,-35.33623 -9.84537,-44.25724 -3.78754,-8.0975 -7.1586,-6.65461 -11.12664,4.7625 -3.44424,9.90989 -6.29133,23.99639 -7.91442,39.15833 -0.38427,3.58952 -0.97059,7.30944 -1.30296,8.26645 -1.32992,3.82945 -4.99542,5.97341 -8.94707,5.23317 z m 2.24299,-7.76699 c 0.10318,-0.33954 0.59637,-4.07046 1.09595,-8.29092 4.07428,-34.41796 11.70466,-53.57201 21.32288,-53.52567 10.28401,0.0496 18.18536,21.37322 22.09732,59.63471 0.28462,2.78367 0.53518,3.073 1.85034,2.13653 4.12865,-2.93988 7.96535,-10.72893 10.44724,-21.20953 2.73646,-11.55548 4.08285,-25.12207 4.08864,-41.19815 0.003,-5.37803 0.16507,-10.79063 0.36254,-12.02798 0.19747,-1.23734 0.30441,-2.30431 0.23763,-2.37111 -0.0668,-0.0668 -1.77963,0.35986 -3.8063,0.94812 -13.45082,3.90412 -25.14704,5.73843 -36.66961,5.75093 -10.98722,0.0118 -21.10221,-1.55276 -33.63674,-5.20308 l -4.179822,-1.21728 0.247311,0.93636 c 0.136003,0.51503 0.302288,5.69885 0.369486,11.51969 0.186125,16.11912 1.182425,27.50696 3.361185,38.41843 2.46905,12.3652 5.55616,19.95003 9.88545,24.28781 2.15849,2.16279 2.62915,2.38972 2.9265,1.41114 z m 29.54412,-76.64884 c 9.24323,-0.91239 20.92734,-3.4023 30.55795,-6.51188 5.81398,-1.87731 5.43597,-1.51184 8.76495,-8.4733 3.67095,-7.67656 4.7003,-12.11354 4.97456,-21.44279 0.2135,-7.26268 -0.10163,-10.29459 -1.49623,-14.39491 -1.28261,-3.77106 -2.58837,-5.90782 -5.30592,-8.68285 -1.94702,-1.9882 -3.14652,-2.8597 -5.46805,-3.97293 -6.84333,-3.28154 -13.28618,-3.267 -21.14197,0.0477 -9.80409,4.13673 -13.6952,5.07791 -19.81102,4.79193 -4.49416,-0.21011 -6.76402,-0.85177 -15.11398,-4.27242 -7.55678,-3.09569 -12.64652,-3.75668 -18.12942,-2.35438 -7.877301,2.01464 -13.410183,7.60863 -15.720821,15.8945 -1.057627,3.79253 -1.470462,9.78798 -1.05235,15.28228 0.712272,9.35925 2.250101,14.14893 7.46108,23.23764 1.690427,2.94829 1.844097,3.1056 3.71904,3.80712 8.169121,3.05644 21.227761,6.09789 30.072471,7.00399 4.2994,0.44049 13.42528,0.4613 17.68971,0.0403 z"
       style="fill:#000000;stroke-width:0.282223"
       inkscape:export-xdpi="90"
       inkscape:export-ydpi="90" />
  </g>
</svg>
