<?xml version="1.0" encoding="UTF-8" standalone="no"?>
<svg
   xmlns:dc="http://purl.org/dc/elements/1.1/"
   xmlns:cc="http://creativecommons.org/ns#"
   xmlns:rdf="http://www.w3.org/1999/02/22-rdf-syntax-ns#"
   xmlns:svg="http://www.w3.org/2000/svg"
   xmlns="http://www.w3.org/2000/svg"
   xmlns:sodipodi="http://sodipodi.sourceforge.net/DTD/sodipodi-0.dtd"
   xmlns:inkscape="http://www.inkscape.org/namespaces/inkscape"
   sodipodi:docname="35_45.svg"
   inkscape:version="1.0 (4035a4f, 2020-05-01)"
   id="svg5422"
   version="1.1"
   viewBox="0 0 90.307114 174.66692"
   height="174.66692mm"
   width="90.307114mm">
  <defs
     id="defs5416" />
  <sodipodi:namedview
     inkscape:window-maximized="0"
     inkscape:window-y="23"
     inkscape:window-x="0"
     inkscape:window-height="943"
     inkscape:window-width="1248"
     fit-margin-bottom="0"
     fit-margin-right="0"
     fit-margin-left="0"
     fit-margin-top="0"
     showgrid="false"
     inkscape:document-rotation="0"
     inkscape:current-layer="layer1"
     inkscape:document-units="mm"
     inkscape:cy="270.07921"
     inkscape:cx="-52.198023"
     inkscape:zoom="0.35"
     inkscape:pageshadow="2"
     inkscape:pageopacity="0.0"
     borderopacity="1.0"
     bordercolor="#666666"
     pagecolor="#ffffff"
     id="base" />
  <metadata
     id="metadata5419">
    <rdf:RDF>
      <cc:Work
         rdf:about="">
        <dc:format>image/svg+xml</dc:format>
        <dc:type
           rdf:resource="http://purl.org/dc/dcmitype/StillImage" />
        <dc:title></dc:title>
      </cc:Work>
    </rdf:RDF>
  </metadata>
  <g
     transform="translate(-119.64406,-76.708208)"
     id="layer1"
     inkscape:groupmode="layer"
     inkscape:label="Ebene 1">
    <path
       inkscape:export-filename="/Users/ingmarkappel/Desktop/tooth menu_lower_jaw.png"
       style="fill:#000000;stroke-width:0.282223"
       d="m 162.81871,251.21502 c -4.12834,-0.81351 -9.30128,-5.07647 -14.90646,-12.28401 -6.49225,-8.3483 -9.9955,-17.91405 -12.51797,-34.17993 -1.35441,-8.73339 -1.96909,-17.22842 -2.25213,-31.12572 -0.30173,-14.80789 -0.10245,-13.79742 -4.10241,-20.81389 -6.0364,-10.58943 -7.94764,-15.95614 -8.98167,-25.22361 -1.43454,-12.85604 0.88618,-23.93868 6.5379,-31.220857 5.34952,-6.892798 16.55854,-14.780795 25.23518,-17.758832 10.69123,-3.669453 22.17285,-2.046393 35.84028,5.066481 4.34255,2.259894 9.4,5.359654 12.57723,7.708702 3.68585,2.724912 7.19954,9.103166 8.73255,15.851266 0.9175,4.03815 1.25701,12.71527 0.69991,17.88377 -1.02757,9.53313 -2.90517,14.86024 -9.0139,25.57641 -3.99573,7.00922 -3.80492,6.05475 -4.09109,20.46112 -0.60765,30.58639 -3.48742,46.03033 -11.50566,61.70001 -4.71594,9.21684 -10.77384,16.02751 -15.82217,17.789 -1.95131,0.68081 -4.65243,0.9203 -6.42959,0.57009 z m 4.41054,-7.62615 c 3.03335,-1.43939 7.64538,-6.96765 10.83706,-12.9899 0.71966,-1.3582 1.92531,-3.5807 2.67938,-4.93889 4.07955,-7.34994 7.22009,-22.37469 8.44353,-40.39305 0.26444,-3.89061 0.70696,-26.10889 0.52044,-26.10581 -0.009,1.4e-4 -1.59571,0.64634 -3.5278,1.43603 -4.4704,1.82705 -10.33636,3.59257 -14.62557,4.40193 -4.48847,0.84695 -12.12314,0.86631 -16.4042,0.0416 -3.65368,-0.70386 -10.31186,-2.7119 -13.14255,-3.96375 -1.06595,-0.47151 -1.95834,-0.85728 -1.98261,-0.85728 -0.21957,-2.5e-4 0.18683,22.95059 0.4809,27.16391 0.46454,6.65065 1.57198,15.81108 2.51686,20.81389 1.56831,8.30405 4.06936,16.56309 5.66194,18.69722 0.3621,0.48509 1.95834,2.86634 3.54725,5.29167 1.83558,2.80207 3.98755,5.51868 5.90212,7.45151 4.32991,4.37095 6.35457,5.25052 9.09325,3.95089 z m 5.73812,-85.25578 c 5.14011,-1.21793 10.35473,-3.09061 15.39719,-5.52966 l 4.28473,-2.0725 1.80309,-3.15107 c 5.94899,-10.39576 7.7264,-16.43083 8.04672,-27.32368 0.21251,-7.23061 -0.10273,-10.29724 -1.47179,-14.32252 -1.90331,-5.59593 -3.59297,-7.703511 -9.09461,-11.343726 -7.62931,-5.047967 -16.82295,-9.060856 -23.42639,-10.225474 -3.96971,-0.700081 -10.22353,-0.289871 -13.70703,0.899075 -5.66561,1.93373 -11.10767,5.160235 -16.75694,9.935181 -6.3833,5.395354 -8.6216,8.520744 -10.22886,14.284224 -2.01224,7.21434 -1.4489,19.59994 1.26128,27.72963 1.65862,4.97561 6.40641,13.56673 8.06958,14.60176 4.62587,2.87892 13.37843,6.09602 19.59525,7.20273 4.05923,0.72257 11.64003,0.40307 16.22778,-0.68397 z"
       id="path4706-2"
       inkscape:connector-curvature="0"
       inkscape:export-xdpi="90"
       inkscape:export-ydpi="90" />
  </g>
</svg>
