<?xml version="1.0" encoding="UTF-8" standalone="no"?>
<svg
   xmlns:dc="http://purl.org/dc/elements/1.1/"
   xmlns:cc="http://creativecommons.org/ns#"
   xmlns:rdf="http://www.w3.org/1999/02/22-rdf-syntax-ns#"
   xmlns:svg="http://www.w3.org/2000/svg"
   xmlns="http://www.w3.org/2000/svg"
   xmlns:sodipodi="http://sodipodi.sourceforge.net/DTD/sodipodi-0.dtd"
   xmlns:inkscape="http://www.inkscape.org/namespaces/inkscape"
   width="119.76489mm"
   height="157.81284mm"
   viewBox="0 0 119.76489 157.81284"
   version="1.1"
   id="svg4820"
   inkscape:version="1.0 (4035a4f, 2020-05-01)"
   sodipodi:docname="38-36_46-48.svg">
  <defs
     id="defs4814" />
  <sodipodi:namedview
     id="base"
     pagecolor="#ffffff"
     bordercolor="#666666"
     borderopacity="1.0"
     inkscape:pageopacity="0.0"
     inkscape:pageshadow="2"
     inkscape:zoom="0.35"
     inkscape:cx="99.690684"
     inkscape:cy="63.943254"
     inkscape:document-units="mm"
     inkscape:current-layer="layer1"
     inkscape:document-rotation="0"
     showgrid="false"
     fit-margin-top="0"
     fit-margin-left="0"
     fit-margin-right="0"
     fit-margin-bottom="0"
     inkscape:window-width="1248"
     inkscape:window-height="943"
     inkscape:window-x="0"
     inkscape:window-y="23"
     inkscape:window-maximized="0" />
  <metadata
     id="metadata4817">
    <rdf:RDF>
      <cc:Work
         rdf:about="">
        <dc:format>image/svg+xml</dc:format>
        <dc:type
           rdf:resource="http://purl.org/dc/dcmitype/StillImage" />
        <dc:title></dc:title>
      </cc:Work>
    </rdf:RDF>
  </metadata>
  <g
     inkscape:label="Ebene 1"
     inkscape:groupmode="layer"
     id="layer1"
     transform="translate(-79.45684,-131.24835)">
    <path
       inkscape:export-filename="/Users/ingmarkappel/Desktop/tooth menu_lower_jaw.png"
       inkscape:connector-curvature="0"
       id="path4275-9-1"
       d="m 90.142219,199.8131 c -7.246648,-12.71204 -9.334471,-20.04855 -9.336842,-32.8083 -0.0037,-20.12543 9.891662,-32.49526 27.511613,-34.39126 2.4568,-0.26435 7.88227,0.33407 11.18884,1.23408 1.40019,0.38114 4.16899,1.42251 6.1529,2.31413 11.14601,5.00942 15.40731,5.13176 25.73571,0.73886 6.41423,-2.72816 9.3915,-3.60017 14.03728,-4.11138 7.72995,-0.85059 15.33813,1.20003 21.42298,5.77412 5.31179,3.99291 8.99752,10.09475 10.74567,17.78965 0.91739,4.03815 1.2569,12.71527 0.69977,17.88378 -1.0276,9.53312 -2.90506,14.86026 -9.01384,25.57632 -31.56889,16.49798 -60.33064,22.24348 -99.144081,0 z"
       style="fill:#ffffff;stroke:#000000;stroke-width:1;stroke-miterlimit:4;stroke-dasharray:none;stroke-opacity:1"
       inkscape:export-xdpi="90"
       inkscape:export-ydpi="90"
       sodipodi:nodetypes="ccccccscsscc" />
  </g>
</svg>
