<?xml version="1.0" encoding="UTF-8" standalone="no"?>
<svg
   xmlns:dc="http://purl.org/dc/elements/1.1/"
   xmlns:cc="http://creativecommons.org/ns#"
   xmlns:rdf="http://www.w3.org/1999/02/22-rdf-syntax-ns#"
   xmlns:svg="http://www.w3.org/2000/svg"
   xmlns="http://www.w3.org/2000/svg"
   xmlns:sodipodi="http://sodipodi.sourceforge.net/DTD/sodipodi-0.dtd"
   xmlns:inkscape="http://www.inkscape.org/namespaces/inkscape"
   sodipodi:docname="18-16_26-28.svg"
   inkscape:version="1.0 (4035a4f, 2020-05-01)"
   id="svg1190"
   version="1.1"
   viewBox="0 0 119.76492 157.83627"
   height="157.83627mm"
   width="119.76492mm">
  <defs
     id="defs1184" />
  <sodipodi:namedview
     inkscape:window-maximized="0"
     inkscape:window-y="180"
     inkscape:window-x="362"
     inkscape:window-height="943"
     inkscape:window-width="1248"
     fit-margin-bottom="0"
     fit-margin-right="0"
     fit-margin-left="0"
     fit-margin-top="0"
     showgrid="false"
     inkscape:document-rotation="0"
     inkscape:current-layer="layer1"
     inkscape:document-units="mm"
     inkscape:cy="406.84469"
     inkscape:cx="199.69074"
     inkscape:zoom="0.35"
     inkscape:pageshadow="2"
     inkscape:pageopacity="0.0"
     borderopacity="1.0"
     bordercolor="#666666"
     pagecolor="#ffffff"
     id="base" />
  <metadata
     id="metadata1187">
    <rdf:RDF>
      <cc:Work
         rdf:about="">
        <dc:format>image/svg+xml</dc:format>
        <dc:type
           rdf:resource="http://purl.org/dc/dcmitype/StillImage" />
        <dc:title></dc:title>
      </cc:Work>
    </rdf:RDF>
  </metadata>
  <g
     transform="translate(-52.998492,-40.522342)"
     id="layer1"
     inkscape:groupmode="layer"
     inkscape:label="Ebene 1">
    <path
       sodipodi:nodetypes="ccsscssssscc"
       inkscape:export-ydpi="90"
       inkscape:export-xdpi="90"
       inkscape:connector-curvature="0"
       id="path4350-1-7"
       d="m 162.56911,130.11342 c 7.24665,12.7121 9.3345,20.04858 9.33687,32.80833 0.004,20.1254 -9.89169,32.49526 -27.5117,34.39123 -2.4568,0.26436 -7.88227,-0.33404 -11.18884,-1.23407 -1.40019,-0.38112 -4.16899,-1.42246 -6.1529,-2.31411 -11.14599,-5.00942 -15.4073,-5.13174 -25.7357,-0.73883 -6.414239,2.72813 -9.391519,3.60014 -14.037289,4.11133 -7.72996,0.85058 -15.33813,-1.20001 -21.42298,-5.77407 -5.31179,-3.99294 -8.99753,-10.09478 -10.745668,-17.78965 -0.917392,-4.03815 -1.256905,-12.71527 -0.69977,-17.88378 1.027599,-9.53312 2.905058,-14.86027 9.013838,-25.57638 51.991049,-29.23197 88.552449,-7.00114 99.144139,0 z"
       style="fill:#808080;stroke:#000000;stroke-width:1;stroke-miterlimit:4;stroke-dasharray:none;stroke-opacity:1"
       inkscape:export-filename="/Users/ingmarkappel/Desktop/tooth menu.png" />
  </g>
</svg>
