<?xml version="1.0" encoding="UTF-8" standalone="no"?>
<svg
   xmlns:dc="http://purl.org/dc/elements/1.1/"
   xmlns:cc="http://creativecommons.org/ns#"
   xmlns:rdf="http://www.w3.org/1999/02/22-rdf-syntax-ns#"
   xmlns:svg="http://www.w3.org/2000/svg"
   xmlns="http://www.w3.org/2000/svg"
   xmlns:sodipodi="http://sodipodi.sourceforge.net/DTD/sodipodi-0.dtd"
   xmlns:inkscape="http://www.inkscape.org/namespaces/inkscape"
   width="119.76492mm"
   height="157.83627mm"
   viewBox="0 0 119.76492 157.83627"
   version="1.1"
   id="svg1190"
   inkscape:version="1.0 (4035a4f, 2020-05-01)"
   sodipodi:docname="18-16_26-28.svg">
  <defs
     id="defs1184" />
  <sodipodi:namedview
     id="base"
     pagecolor="#ffffff"
     bordercolor="#666666"
     borderopacity="1.0"
     inkscape:pageopacity="0.0"
     inkscape:pageshadow="2"
     inkscape:zoom="0.35"
     inkscape:cx="199.69074"
     inkscape:cy="406.84469"
     inkscape:document-units="mm"
     inkscape:current-layer="layer1"
     inkscape:document-rotation="0"
     showgrid="false"
     fit-margin-top="0"
     fit-margin-left="0"
     fit-margin-right="0"
     fit-margin-bottom="0"
     inkscape:window-width="1248"
     inkscape:window-height="943"
     inkscape:window-x="481"
     inkscape:window-y="85"
     inkscape:window-maximized="0" />
  <metadata
     id="metadata1187">
    <rdf:RDF>
      <cc:Work
         rdf:about="">
        <dc:format>image/svg+xml</dc:format>
        <dc:type
           rdf:resource="http://purl.org/dc/dcmitype/StillImage" />
        <dc:title></dc:title>
      </cc:Work>
    </rdf:RDF>
  </metadata>
  <g
     inkscape:label="Ebene 1"
     inkscape:groupmode="layer"
     id="layer1"
     transform="translate(-52.998492,-40.522342)">
    <path
       sodipodi:nodetypes="ccsscssssscc"
       inkscape:export-ydpi="90"
       inkscape:export-xdpi="90"
       inkscape:connector-curvature="0"
       id="path4350-1-1"
       d="m 162.7239,130.32302 c 7.24665,12.7121 9.3345,20.04858 9.33687,32.80833 0.004,20.1254 -9.89169,32.49526 -27.5117,34.39123 -2.4568,0.26436 -7.88227,-0.33404 -11.18884,-1.23407 -1.40019,-0.38112 -4.16899,-1.42246 -6.1529,-2.31411 -11.14599,-5.00942 -15.4073,-5.13174 -25.73576,-0.73883 -6.414232,2.72813 -9.391502,3.60014 -14.037272,4.11133 -7.72996,0.85058 -15.33813,-1.20001 -21.42299,-5.77407 -5.31178,-3.99294 -8.99752,-10.09478 -10.74566,-17.78965 -0.91739,-4.03815 -1.25691,-12.71527 -0.69977,-17.88378 1.0276,-9.53312 2.90505,-14.86027 9.01384,-25.57638 51.991092,-29.23199 88.552492,-7.00114 99.144182,0 z"
       style="fill:#ffffff;stroke:#000000;stroke-width:1;stroke-miterlimit:4;stroke-dasharray:none;stroke-opacity:1"
       inkscape:export-filename="/Users/ingmarkappel/Desktop/tooth menu.png" />
  </g>
</svg>
