<?xml version="1.0" encoding="UTF-8" standalone="no"?>
<svg
   xmlns:dc="http://purl.org/dc/elements/1.1/"
   xmlns:cc="http://creativecommons.org/ns#"
   xmlns:rdf="http://www.w3.org/1999/02/22-rdf-syntax-ns#"
   xmlns:svg="http://www.w3.org/2000/svg"
   xmlns="http://www.w3.org/2000/svg"
   xmlns:sodipodi="http://sodipodi.sourceforge.net/DTD/sodipodi-0.dtd"
   xmlns:inkscape="http://www.inkscape.org/namespaces/inkscape"
   sodipodi:docname="32-42.svg"
   inkscape:version="1.0 (4035a4f, 2020-05-01)"
   id="svg6626"
   version="1.1"
   viewBox="0 0 81.087273 161.14189"
   height="161.14189mm"
   width="81.087273mm">
  <defs
     id="defs6620" />
  <sodipodi:namedview
     inkscape:window-maximized="0"
     inkscape:window-y="23"
     inkscape:window-x="0"
     inkscape:window-height="943"
     inkscape:window-width="1248"
     fit-margin-bottom="0"
     fit-margin-right="0"
     fit-margin-left="0"
     fit-margin-top="0"
     showgrid="false"
     inkscape:document-rotation="0"
     inkscape:current-layer="layer1"
     inkscape:document-units="mm"
     inkscape:cy="164.52011"
     inkscape:cx="-24.82946"
     inkscape:zoom="0.35"
     inkscape:pageshadow="2"
     inkscape:pageopacity="0.0"
     borderopacity="1.0"
     bordercolor="#666666"
     pagecolor="#ffffff"
     id="base" />
  <metadata
     id="metadata6623">
    <rdf:RDF>
      <cc:Work
         rdf:about="">
        <dc:format>image/svg+xml</dc:format>
        <dc:type
           rdf:resource="http://purl.org/dc/dcmitype/StillImage" />
        <dc:title></dc:title>
      </cc:Work>
    </rdf:RDF>
  </metadata>
  <g
     transform="translate(-112.40279,-104.63739)"
     id="layer1"
     inkscape:groupmode="layer"
     inkscape:label="Ebene 1">
    <path
       inkscape:export-ydpi="90"
       inkscape:export-xdpi="90"
       style="fill:#91d8ff;fill-opacity:1;stroke:#000000;stroke-width:1;stroke-miterlimit:4;stroke-dasharray:none;stroke-opacity:1"
       d="m 122.37019,170.97398 c -2.15756,-3.63477 -4.54851,-8.82955 -4.90126,-10.64892 -0.0916,-0.47242 -0.71947,-2.76395 -1.39525,-5.09228 -2.51525,-8.66594 -3.2122,-18.17663 -1.86953,-25.51212 1.02111,-5.57858 3.79561,-14.40621 5.67377,-18.05201 0.25101,-0.48723 0.66853,-1.33601 0.92783,-1.88612 0.25934,-0.55013 0.88271,-1.21291 1.38535,-1.4728 0.96807,-0.50064 9.34432,-1.63997 17.27913,-2.35032 6.89687,-0.61742 22.93334,-0.51904 29.87447,0.18327 8.67457,0.87771 13.95707,1.67525 14.87401,2.24564 1.61637,1.00548 5.17426,10.359 6.88221,18.09305 2.47289,11.19778 1.98716,19.18066 -1.89706,31.17705 -1.78929,5.52617 -3.6026,9.46339 -7.57516,16.44797 -22.95949,17.3093 -36.25901,18.9991 -59.25851,-3.13241 z"
       id="path4720-8"
       inkscape:connector-curvature="0"
       inkscape:transform-center-x="-601.04076"
       inkscape:transform-center-y="8.8388162"
       sodipodi:nodetypes="csccccccsscscc" />
  </g>
</svg>
