<?xml version="1.0" encoding="UTF-8" standalone="no"?>
<svg
   xmlns:dc="http://purl.org/dc/elements/1.1/"
   xmlns:cc="http://creativecommons.org/ns#"
   xmlns:rdf="http://www.w3.org/1999/02/22-rdf-syntax-ns#"
   xmlns:svg="http://www.w3.org/2000/svg"
   xmlns="http://www.w3.org/2000/svg"
   xmlns:sodipodi="http://sodipodi.sourceforge.net/DTD/sodipodi-0.dtd"
   xmlns:inkscape="http://www.inkscape.org/namespaces/inkscape"
   width="92.263611mm"
   height="189.14583mm"
   viewBox="0 0 92.263611 189.14583"
   version="1.1"
   id="svg3014"
   inkscape:version="1.0 (4035a4f, 2020-05-01)"
   sodipodi:docname="13_23.svg">
  <defs
     id="defs3008" />
  <sodipodi:namedview
     id="base"
     pagecolor="#ffffff"
     bordercolor="#666666"
     borderopacity="1.0"
     inkscape:pageopacity="0.0"
     inkscape:pageshadow="2"
     inkscape:zoom="0.35"
     inkscape:cx="2.0054682"
     inkscape:cy="474.58381"
     inkscape:document-units="mm"
     inkscape:current-layer="layer1"
     inkscape:document-rotation="0"
     showgrid="false"
     fit-margin-top="0"
     fit-margin-left="0"
     fit-margin-right="0"
     fit-margin-bottom="0"
     inkscape:window-width="1248"
     inkscape:window-height="943"
     inkscape:window-x="0"
     inkscape:window-y="23"
     inkscape:window-maximized="0" />
  <metadata
     id="metadata3011">
    <rdf:RDF>
      <cc:Work
         rdf:about="">
        <dc:format>image/svg+xml</dc:format>
        <dc:type
           rdf:resource="http://purl.org/dc/dcmitype/StillImage" />
        <dc:title></dc:title>
      </cc:Work>
    </rdf:RDF>
  </metadata>
  <g
     inkscape:label="Ebene 1"
     inkscape:groupmode="layer"
     id="layer1"
     transform="translate(-105.30272,-22.599701)">
    <path
       inkscape:export-filename="/Users/ingmarkappel/Desktop/tooth menu.png"
       style="fill:#91d8ff;fill-opacity:1;stroke:#000000;stroke-width:1;stroke-miterlimit:4;stroke-dasharray:none;stroke-opacity:1"
       d="m 187.35283,132.70755 c 4.83252,8.47705 6.89131,13.38955 8.06535,19.24493 1.98233,9.88723 1.65667,20.61879 -0.854,28.13434 -1.94226,5.81369 -4.12804,8.9888 -10.17976,14.78773 -8.44491,8.09236 -16.73123,13.16646 -25.32041,15.50504 -4.14638,1.12892 -10.7267,1.05636 -15.36982,-0.16948 -8.68031,-2.2917 -17.30474,-7.16756 -26.58926,-15.03236 -4.83362,-4.0944 -8.06534,-9.72677 -9.69348,-16.89338 -0.91753,-4.03814 -1.25705,-12.71526 -0.69994,-17.88377 1.0276,-9.53312 2.90519,-14.86027 9.01389,-25.57638 0,0 34.43482,-36.932247 71.62743,-2.11667 z"
       id="path4590-5-0"
       inkscape:connector-curvature="0"
       inkscape:export-xdpi="90"
       inkscape:export-ydpi="90"
       sodipodi:nodetypes="ccccssccccc" />
    <path
       sodipodi:nodetypes="cscccccc"
       inkscape:export-ydpi="90"
       inkscape:export-xdpi="90"
       inkscape:connector-curvature="0"
       id="path839"
       d="m 151.85063,211.17997 c -2.8338,-0.0102 -5.75436,-0.33568 -8.15644,-0.96986 -8.68031,-2.29171 -17.30474,-7.16756 -26.58926,-15.03236 -4.83362,-4.0944 -8.06534,-9.72677 -9.69348,-16.89338 -0.91753,-4.03814 -1.25705,-12.71526 -0.69994,-17.88377 1.0276,-9.53312 2.90519,-14.86027 9.01389,-25.57638 0,0 16.11941,-17.28849 38.21278,-17.05765 z"
       style="fill:#808080;fill-opacity:1;stroke:#000000;stroke-width:1;stroke-miterlimit:4;stroke-dasharray:none;stroke-opacity:1"
       inkscape:export-filename="/Users/ingmarkappel/Desktop/tooth menu.png" />
  </g>
</svg>
