<?xml version="1.0" encoding="UTF-8" standalone="no"?>
<svg
   xmlns:dc="http://purl.org/dc/elements/1.1/"
   xmlns:cc="http://creativecommons.org/ns#"
   xmlns:rdf="http://www.w3.org/1999/02/22-rdf-syntax-ns#"
   xmlns:svg="http://www.w3.org/2000/svg"
   xmlns="http://www.w3.org/2000/svg"
   xmlns:sodipodi="http://sodipodi.sourceforge.net/DTD/sodipodi-0.dtd"
   xmlns:inkscape="http://www.inkscape.org/namespaces/inkscape"
   sodipodi:docname="12_22.svg"
   inkscape:version="1.0 (4035a4f, 2020-05-01)"
   id="svg3616"
   version="1.1"
   viewBox="0 0 81.08728 161.14185"
   height="161.14185mm"
   width="81.08728mm">
  <defs
     id="defs3610" />
  <sodipodi:namedview
     inkscape:window-maximized="0"
     inkscape:window-y="23"
     inkscape:window-x="0"
     inkscape:window-height="943"
     inkscape:window-width="1248"
     fit-margin-bottom="0"
     fit-margin-right="0"
     fit-margin-left="0"
     fit-margin-top="0"
     showgrid="false"
     inkscape:document-rotation="0"
     inkscape:current-layer="layer1"
     inkscape:document-units="mm"
     inkscape:cy="178.80573"
     inkscape:cx="-1.9723016"
     inkscape:zoom="0.35"
     inkscape:pageshadow="2"
     inkscape:pageopacity="0.0"
     borderopacity="1.0"
     bordercolor="#666666"
     pagecolor="#ffffff"
     id="base" />
  <metadata
     id="metadata3613">
    <rdf:RDF>
      <cc:Work
         rdf:about="">
        <dc:format>image/svg+xml</dc:format>
        <dc:type
           rdf:resource="http://purl.org/dc/dcmitype/StillImage" />
        <dc:title></dc:title>
      </cc:Work>
    </rdf:RDF>
  </metadata>
  <g
     transform="translate(-106.35517,-100.85765)"
     id="layer1"
     inkscape:groupmode="layer"
     inkscape:label="Ebene 1">
    <path
       inkscape:export-filename="/Users/ingmarkappel/Desktop/tooth menu.png"
       style="fill:#ff0000;stroke:#000000;stroke-width:1;stroke-miterlimit:4;stroke-dasharray:none;stroke-opacity:1"
       d="m 171.75506,188.26927 c 2.15984,2.30925 2.72932,2.2917 5.75372,7.38682 2.15756,3.63477 4.54852,8.82956 4.90127,10.64893 0.0916,0.47242 0.71947,2.76395 1.39525,5.09228 2.51528,8.66594 3.2122,18.1766 1.86952,25.51209 -1.0211,5.57859 -3.7956,14.4062 -5.67376,18.05202 -0.25101,0.48721 -0.66853,1.33601 -0.92784,1.88611 -0.25933,0.55014 -0.8827,1.2129 -1.38534,1.4728 -0.96808,0.50064 -9.34432,1.63997 -17.27911,2.35033 -6.89689,0.61742 -22.93338,0.51903 -29.87449,-0.18328 -8.67458,-0.87771 -13.95705,-1.67525 -14.87399,-2.24564 -1.6164,-1.00547 -5.17429,-10.359 -6.88224,-18.09304 -2.47289,-11.19778 -1.98715,-19.18064 1.89707,-31.17704 1.78929,-5.52616 3.60259,-9.46338 7.57515,-16.44797 0,0 21.81448,-24.54737 53.50479,-4.25441 z"
       id="path4688-0-9"
       inkscape:connector-curvature="0"
       inkscape:transform-center-x="601.04081"
       inkscape:transform-center-y="-8.8388279"
       inkscape:export-xdpi="90"
       inkscape:export-ydpi="90"
       sodipodi:nodetypes="csscssscsscsscc" />
  </g>
</svg>
