<?xml version="1.0" encoding="UTF-8" standalone="no"?>
<svg
   xmlns:dc="http://purl.org/dc/elements/1.1/"
   xmlns:cc="http://creativecommons.org/ns#"
   xmlns:rdf="http://www.w3.org/1999/02/22-rdf-syntax-ns#"
   xmlns:svg="http://www.w3.org/2000/svg"
   xmlns="http://www.w3.org/2000/svg"
   xmlns:sodipodi="http://sodipodi.sourceforge.net/DTD/sodipodi-0.dtd"
   xmlns:inkscape="http://www.inkscape.org/namespaces/inkscape"
   sodipodi:docname="11_21.svg"
   inkscape:version="1.0 (4035a4f, 2020-05-01)"
   id="svg4218"
   version="1.1"
   viewBox="0 0 85.013519 133.06143"
   height="133.06143mm"
   width="85.013519mm">
  <defs
     id="defs4212" />
  <sodipodi:namedview
     inkscape:window-maximized="0"
     inkscape:window-y="23"
     inkscape:window-x="0"
     inkscape:window-height="943"
     inkscape:window-width="1248"
     fit-margin-bottom="0"
     fit-margin-right="0"
     fit-margin-left="0"
     fit-margin-top="0"
     showgrid="false"
     inkscape:document-rotation="0"
     inkscape:current-layer="layer1"
     inkscape:document-units="mm"
     inkscape:cy="245.57203"
     inkscape:cx="228.39344"
     inkscape:zoom="1.0366903"
     inkscape:pageshadow="2"
     inkscape:pageopacity="0.0"
     borderopacity="1.0"
     bordercolor="#666666"
     pagecolor="#ffffff"
     id="base" />
  <metadata
     id="metadata4215">
    <rdf:RDF>
      <cc:Work
         rdf:about="">
        <dc:format>image/svg+xml</dc:format>
        <dc:type
           rdf:resource="http://purl.org/dc/dcmitype/StillImage" />
        <dc:title />
      </cc:Work>
    </rdf:RDF>
  </metadata>
  <g
     transform="translate(-127.58589,-129.57262)"
     id="layer1"
     inkscape:groupmode="layer"
     inkscape:label="Ebene 1">
    <rect
       style="opacity:1;fill:#ffaaaa;fill-opacity:1;fill-rule:evenodd;stroke:none;stroke-width:2.00177;stroke-linecap:round;stroke-linejoin:round;stroke-miterlimit:4;stroke-dasharray:none;stroke-dashoffset:0;stroke-opacity:1"
       id="rect5219"
       width="83.297646"
       height="68.791656"
       x="128.72975"
       y="129.57262"
       ry="26.458334" />
    <path
       inkscape:export-filename="/Users/ingmarkappel/Desktop/tooth menu.png"
       style="fill:#ff0000;stroke:#000000;stroke-width:1;stroke-miterlimit:4;stroke-dasharray:none;stroke-opacity:1"
       d="m 198.03584,186.00792 c 0.63827,2.30926 2.20015,5.4667 5.22455,10.56183 2.15756,3.63477 4.54852,8.82954 4.90127,10.64892 0.0916,0.47241 0.71947,2.76394 1.39525,5.09227 2.51528,8.66595 3.21223,18.17661 1.86955,25.5121 -1.53994,8.41316 -5.69589,19.71401 -7.737,21.03848 -1.46832,0.95276 -18.53337,2.79092 -29.87633,3.2181 -11.39057,0.42897 -35.63346,-1.77868 -37.63351,-3.42706 -1.46725,-1.20923 -5.04515,-10.95273 -6.58882,-17.94301 -2.40605,-10.89502 -1.97778,-19.06938 1.58426,-30.23779 1.75655,-5.50751 3.29249,-8.96098 6.24253,-14.03581 3.10297,-5.33801 4.49374,-8.17211 5.11728,-10.42803 31.25335,-17.66479 55.50097,0 55.50097,0 z"
       id="path4638-9"
       inkscape:connector-curvature="0"
       inkscape:export-xdpi="90"
       inkscape:export-ydpi="90"
       sodipodi:nodetypes="csscsssscsccc" />
  </g>
</svg>
