<?xml version="1.0" encoding="UTF-8" standalone="no"?>
<svg
   xmlns:dc="http://purl.org/dc/elements/1.1/"
   xmlns:cc="http://creativecommons.org/ns#"
   xmlns:rdf="http://www.w3.org/1999/02/22-rdf-syntax-ns#"
   xmlns:svg="http://www.w3.org/2000/svg"
   xmlns="http://www.w3.org/2000/svg"
   xmlns:sodipodi="http://sodipodi.sourceforge.net/DTD/sodipodi-0.dtd"
   xmlns:inkscape="http://www.inkscape.org/namespaces/inkscape"
   width="80.083611mm"
   height="131.68729mm"
   viewBox="0 0 80.08361 131.68729"
   version="1.1"
   id="svg3616"
   inkscape:version="1.0 (4035a4f, 2020-05-01)"
   sodipodi:docname="12_22.svg">
  <defs
     id="defs3610" />
  <sodipodi:namedview
     id="base"
     pagecolor="#ffffff"
     bordercolor="#666666"
     borderopacity="1.0"
     inkscape:pageopacity="0.0"
     inkscape:pageshadow="2"
     inkscape:zoom="1.0208303"
     inkscape:cx="161.1883"
     inkscape:cy="321.69493"
     inkscape:document-units="mm"
     inkscape:current-layer="layer1"
     inkscape:document-rotation="0"
     showgrid="false"
     fit-margin-top="0"
     fit-margin-left="0"
     fit-margin-right="0"
     fit-margin-bottom="0"
     inkscape:window-width="1248"
     inkscape:window-height="943"
     inkscape:window-x="0"
     inkscape:window-y="23"
     inkscape:window-maximized="0" />
  <metadata
     id="metadata3613">
    <rdf:RDF>
      <cc:Work
         rdf:about="">
        <dc:format>image/svg+xml</dc:format>
        <dc:type
           rdf:resource="http://purl.org/dc/dcmitype/StillImage" />
        <dc:title />
      </cc:Work>
    </rdf:RDF>
  </metadata>
  <g
     inkscape:label="Ebene 1"
     inkscape:groupmode="layer"
     id="layer1"
     transform="translate(-105.86077,-130.81509)">
    <rect
       style="opacity:1;fill:#ffaaaa;fill-opacity:1;fill-rule:evenodd;stroke:none;stroke-width:1.94151;stroke-linecap:round;stroke-linejoin:round;stroke-miterlimit:4;stroke-dasharray:none;stroke-dashoffset:0;stroke-opacity:1"
       id="rect5219"
       width="78.358406"
       height="68.791656"
       x="106.80299"
       y="130.81509"
       ry="26.458334" />
    <path
       sodipodi:nodetypes="csscssscsscsscc"
       inkscape:export-ydpi="90"
       inkscape:export-xdpi="90"
       inkscape:transform-center-y="-8.8388279"
       inkscape:transform-center-x="601.04081"
       inkscape:connector-curvature="0"
       id="path4688-0"
       d="m 170.85166,189.18925 c 2.15984,2.30925 2.72932,2.2917 5.75372,7.38682 2.15756,3.63477 4.54852,8.82955 4.90127,10.64893 0.0916,0.47241 0.71947,2.76394 1.39525,5.09227 2.51528,8.66595 3.2122,18.17661 1.86952,25.5121 -1.0211,5.57858 -3.7956,14.4062 -5.67376,18.05201 -0.25101,0.48722 -0.66853,1.33601 -0.92784,1.88612 -0.25933,0.55013 -0.8827,1.2129 -1.38534,1.4728 -0.96808,0.50063 -9.34432,1.63997 -17.27911,2.35032 -6.89689,0.61742 -22.93338,0.51903 -29.87449,-0.18328 -8.67458,-0.87771 -13.95705,-1.67524 -14.87399,-2.24564 -1.6164,-1.00547 -5.17429,-10.35899 -6.88224,-18.09304 -2.47289,-11.19778 -1.98715,-19.18064 1.89707,-31.17703 1.78929,-5.52616 3.60259,-9.46339 7.57515,-16.44797 0,0 21.81448,-24.54737 53.50479,-4.25441 z"
       style="fill:#ff0000;stroke:#000000;stroke-width:1;stroke-miterlimit:4;stroke-dasharray:none;stroke-opacity:1"
       inkscape:export-filename="/Users/ingmarkappel/Desktop/tooth menu.png" />
  </g>
</svg>
