<?xml version="1.0" standalone="no"?>
<!DOCTYPE svg PUBLIC "-//W3C//DTD SVG 20010904//EN"
 "http://www.w3.org/TR/2001/REC-SVG-20010904/DTD/svg10.dtd">
<svg version="1.0" xmlns="http://www.w3.org/2000/svg"
 width="219.000000pt" height="474.000000pt" viewBox="0 0 219.000000 474.000000"
 preserveAspectRatio="xMidYMid meet">

<g transform="translate(0.000000,474.000000) scale(0.100000,-0.100000)"
fill="#000000" stroke="none">
<path d="M44 3786 c-17 -8 -34 -21 -38 -31 -3 -9 -6 -73 -6 -143 0 -109 3
-132 22 -171 41 -85 127 -156 268 -221 11 -5 25 -66 51 -216 20 -116 44 -233
54 -263 21 -64 70 -115 121 -127 71 -17 98 -97 36 -110 -91 -19 -129 -69 -139
-182 -10 -126 22 -183 127 -221 68 -25 90 -50 90 -103 0 -31 -5 -40 -30 -53
-16 -8 -43 -35 -60 -60 -66 -96 -77 -187 -34 -273 30 -60 63 -87 123 -101 24
-5 44 -11 45 -13 1 -1 8 -28 15 -58 11 -49 10 -56 -5 -65 -78 -46 -134 -139
-134 -225 0 -92 44 -161 132 -206 26 -13 52 -33 58 -43 23 -44 5 -103 -46
-151 -36 -34 -64 -102 -71 -175 -7 -76 11 -122 63 -161 83 -63 101 -87 114
-149 16 -77 59 -172 96 -211 39 -42 87 -54 210 -54 135 0 160 6 199 49 121
135 128 140 176 156 55 19 84 52 105 122 35 115 4 231 -69 267 -94 46 -86 120
15 141 62 12 132 108 144 199 11 79 -76 226 -134 226 -28 0 -42 21 -42 62 0
45 19 58 87 58 99 0 154 72 155 200 1 110 -38 175 -129 216 -54 24 -73 47 -73
86 0 39 17 47 89 41 58 -4 70 -2 101 19 70 47 100 169 70 280 -13 44 -66 93
-120 109 -68 20 -75 36 -72 153 5 186 25 236 98 236 56 0 106 57 133 155 6 22
22 108 36 190 45 267 40 252 91 274 57 26 149 112 185 176 28 48 29 54 29 188
0 76 -4 147 -10 157 -5 10 -24 23 -41 29 -51 18 -2044 15 -2085 -3z m1782
-579 c10 -10 -75 -445 -88 -453 -18 -11 -769 -25 -1011 -18 -242 6 -247 7
-252 28 -6 31 -76 398 -78 415 -6 40 21 41 735 39 377 -2 690 -7 694 -11z
m-388 -603 l94 -6 -6 -96 c-13 -191 -15 -202 -41 -202 -50 0 -511 107 -671
155 -112 34 -134 53 -134 116 l0 49 333 -5 c182 -3 374 -8 425 -11z m-751
-239 c288 -61 808 -197 934 -244 103 -39 131 -89 93 -163 -15 -30 -17 -30 -67
-24 -86 12 -1034 257 -1109 287 -37 15 -51 84 -28 143 12 33 27 33 177 1z
m356 -399 c276 -71 414 -110 424 -120 11 -10 -17 -87 -34 -93 -19 -8 -638 143
-670 163 -23 15 -46 76 -36 100 9 24 54 17 316 -50z m-261 -182 c137 -28 677
-163 779 -194 90 -27 103 -43 94 -115 -12 -93 -26 -94 -355 -14 -477 116 -675
174 -711 210 -19 19 -25 71 -13 117 8 30 49 29 206 -4z m302 -384 c213 -54
291 -82 306 -111 6 -10 10 -34 10 -53 0 -29 -4 -36 -19 -36 -25 0 -385 94
-482 126 -87 28 -107 46 -116 99 l-6 38 54 -6 c30 -4 144 -29 253 -57z m-256
-186 c271 -56 711 -172 739 -196 16 -13 17 -94 2 -137 -8 -23 -17 -31 -35 -31
-48 0 -785 191 -851 220 l-43 19 0 56 c0 66 13 95 42 95 11 0 77 -12 146 -26z
m248 -370 c228 -58 267 -72 278 -99 11 -30 6 -85 -8 -91 -19 -7 -418 100 -458
123 -23 13 -36 30 -42 55 -8 31 -4 68 7 68 2 0 103 -25 223 -56z m-80 -224
c187 -48 393 -106 462 -132 l52 -19 0 -49 c0 -69 -23 -94 -86 -92 -60 1 -188
29 -403 88 -186 51 -268 80 -293 102 -32 27 -14 129 24 146 20 8 81 -3 244
-44z m138 -351 c67 -16 131 -37 144 -45 21 -14 21 -16 7 -44 -8 -16 -36 -42
-63 -57 -40 -24 -58 -28 -122 -28 -57 0 -83 5 -110 20 -44 26 -100 117 -100
163 l0 35 62 -7 c34 -3 116 -20 182 -37z"/>
</g>
</svg>
