<?xml version="1.0" encoding="UTF-8" standalone="no"?>
<svg
   xmlns:dc="http://purl.org/dc/elements/1.1/"
   xmlns:cc="http://creativecommons.org/ns#"
   xmlns:rdf="http://www.w3.org/1999/02/22-rdf-syntax-ns#"
   xmlns:svg="http://www.w3.org/2000/svg"
   xmlns="http://www.w3.org/2000/svg"
   xmlns:sodipodi="http://sodipodi.sourceforge.net/DTD/sodipodi-0.dtd"
   xmlns:inkscape="http://www.inkscape.org/namespaces/inkscape"
   sodipodi:docname="12_22.svg"
   inkscape:version="1.0 (4035a4f, 2020-05-01)"
   id="svg3616"
   version="1.1"
   viewBox="0 0 80.083931 161.64473"
   height="161.64473mm"
   width="80.083931mm">
  <defs
     id="defs3610" />
  <sodipodi:namedview
     inkscape:window-maximized="0"
     inkscape:window-y="23"
     inkscape:window-x="0"
     inkscape:window-height="943"
     inkscape:window-width="1248"
     fit-margin-bottom="0"
     fit-margin-right="0"
     fit-margin-left="0"
     fit-margin-top="0"
     showgrid="false"
     inkscape:document-rotation="0"
     inkscape:current-layer="layer1"
     inkscape:document-units="mm"
     inkscape:cy="431.92673"
     inkscape:cx="128.16531"
     inkscape:zoom="0.80286102"
     inkscape:pageshadow="2"
     inkscape:pageopacity="0.0"
     borderopacity="1.0"
     bordercolor="#666666"
     pagecolor="#ffffff"
     id="base" />
  <metadata
     id="metadata3613">
    <rdf:RDF>
      <cc:Work
         rdf:about="">
        <dc:format>image/svg+xml</dc:format>
        <dc:type
           rdf:resource="http://purl.org/dc/dcmitype/StillImage" />
        <dc:title></dc:title>
      </cc:Work>
    </rdf:RDF>
  </metadata>
  <g
     transform="translate(-105.86056,-100.85765)"
     id="layer1"
     inkscape:groupmode="layer"
     inkscape:label="Ebene 1">
    <path
       sodipodi:nodetypes="csscssscsscsscc"
       inkscape:export-ydpi="90"
       inkscape:export-xdpi="90"
       inkscape:transform-center-y="-8.8388279"
       inkscape:transform-center-x="601.04081"
       inkscape:connector-curvature="0"
       id="path4688-0-9"
       d="m 170.85166,189.18925 c 2.15984,2.30925 2.72932,2.2917 5.75372,7.38682 2.15756,3.63477 4.54852,8.82955 4.90127,10.64893 0.0916,0.47241 0.71947,2.76394 1.39525,5.09227 2.51528,8.66595 3.2122,18.17661 1.86952,25.5121 -1.0211,5.57858 -3.7956,14.4062 -5.67376,18.05201 -0.25101,0.48722 -0.66853,1.33601 -0.92784,1.88612 -0.25933,0.55013 -0.8827,1.2129 -1.38534,1.4728 -0.96808,0.50063 -9.34432,1.63997 -17.27911,2.35032 -6.89689,0.61742 -22.93338,0.51903 -29.87449,-0.18328 -8.67458,-0.87771 -13.95705,-1.67524 -14.87399,-2.24564 -1.6164,-1.00547 -5.17429,-10.35899 -6.88224,-18.09304 -2.47289,-11.19778 -1.98715,-19.18064 1.89707,-31.17703 1.78929,-5.52616 3.60259,-9.46339 7.57515,-16.44797 0,0 21.81448,-24.54737 53.50479,-4.25441 z"
       style="fill:#ffffff;stroke:#000000;stroke-width:1;stroke-miterlimit:4;stroke-dasharray:none;stroke-opacity:1"
       inkscape:export-filename="/Users/ingmarkappel/Desktop/tooth menu.png" />
    <path
       inkscape:export-filename="/Users/ingmarkappel/Desktop/tooth menu.png"
       style="fill:#000000;stroke:none;stroke-width:0.282223"
       d="m 148.23389,101.13581 c 2.26441,0.62179 3.86769,1.70276 6.09756,4.11127 7.12125,7.6918 11.46617,18.80779 14.17187,36.257 1.38325,8.92073 1.96562,17.06513 2.16252,30.24375 0.14109,9.44132 2.86803,20.52461 2.86803,20.52461 -13.40196,24.28142 1.62985,57.47475 -27.07662,58.15401 -30.58976,0.72383 -12.8069,-31.16187 -29.11038,-56.98279 3.99116,-7.01725 3.79965,-6.05821 4.08576,-20.46111 0.13682,-6.888 0.43355,-14.8255 0.65936,-17.63889 1.81553,-22.61909 6.01458,-37.5686 13.16027,-46.85328 4.74769,-6.1689 8.84533,-8.490405 12.98163,-7.35457 z m -3.40151,7.25079 c -1.93768,1.18158 -4.33558,4.51824 -6.81008,9.47609 -3.27259,6.55701 -4.04246,8.48586 -5.14293,12.88528 -3.01718,12.06207 -4.3554,25.17891 -4.50912,44.19814 l -0.0857,10.60662 2.64583,-1.14628 c 5.90751,-2.55941 12.82195,-3.93711 17.62015,-3.51078 3.55292,0.31569 7.56324,1.33671 11.26653,2.8685 1.67183,0.69151 3.27782,1.33486 3.56887,1.42966 0.46341,0.15093 0.52065,-1.13414 0.46062,-10.34099 -0.12155,-18.64165 -1.53145,-31.96099 -4.73504,-44.73276 -2.05085,-8.17609 -6.83965,-17.46094 -10.89578,-21.12534 -1.62309,-1.46635 -1.89557,-1.51534 -3.38331,-0.60814 z"
       id="path4688-0"
       inkscape:connector-curvature="0"
       inkscape:transform-center-x="601.04081"
       inkscape:transform-center-y="-8.8388279"
       inkscape:export-xdpi="90"
       inkscape:export-ydpi="90"
       sodipodi:nodetypes="ccsccscsccccccccssssssccc" />
  </g>
</svg>
