<?xml version="1.0" encoding="UTF-8" standalone="no"?>
<svg
   xmlns:dc="http://purl.org/dc/elements/1.1/"
   xmlns:cc="http://creativecommons.org/ns#"
   xmlns:rdf="http://www.w3.org/1999/02/22-rdf-syntax-ns#"
   xmlns:svg="http://www.w3.org/2000/svg"
   xmlns="http://www.w3.org/2000/svg"
   xmlns:sodipodi="http://sodipodi.sourceforge.net/DTD/sodipodi-0.dtd"
   xmlns:inkscape="http://www.inkscape.org/namespaces/inkscape"
   sodipodi:docname="38-36_46-48.svg"
   inkscape:version="1.0 (4035a4f, 2020-05-01)"
   id="svg4820"
   version="1.1"
   viewBox="0 0 118.76968 158.31621"
   height="158.31621mm"
   width="118.76968mm">
  <defs
     id="defs4814" />
  <sodipodi:namedview
     inkscape:window-maximized="0"
     inkscape:window-y="23"
     inkscape:window-x="0"
     inkscape:window-height="943"
     inkscape:window-width="1248"
     fit-margin-bottom="0"
     fit-margin-right="0"
     fit-margin-left="0"
     fit-margin-top="0"
     showgrid="false"
     inkscape:document-rotation="0"
     inkscape:current-layer="layer1"
     inkscape:document-units="mm"
     inkscape:cy="-19.62171"
     inkscape:cx="288.19834"
     inkscape:zoom="0.54010193"
     inkscape:pageshadow="2"
     inkscape:pageopacity="0.0"
     borderopacity="1.0"
     bordercolor="#666666"
     pagecolor="#ffffff"
     id="base" />
  <metadata
     id="metadata4817">
    <rdf:RDF>
      <cc:Work
         rdf:about="">
        <dc:format>image/svg+xml</dc:format>
        <dc:type
           rdf:resource="http://purl.org/dc/dcmitype/StillImage" />
        <dc:title></dc:title>
      </cc:Work>
    </rdf:RDF>
  </metadata>
  <g
     transform="translate(-78.956842,-130.74497)"
     id="layer1"
     inkscape:groupmode="layer"
     inkscape:label="Ebene 1">
    <path
       sodipodi:nodetypes="ccccccscsscc"
       inkscape:export-ydpi="90"
       inkscape:export-xdpi="90"
       style="fill:#ffffff;stroke:#000000;stroke-width:1;stroke-miterlimit:4;stroke-dasharray:none;stroke-opacity:1"
       d="m 88.793683,198.51084 c -7.24664,-12.71204 -9.33447,-20.04855 -9.33684,-32.8083 -0.004,-20.12543 9.89166,-32.49526 27.511667,-34.39126 2.4568,-0.26435 7.88227,0.33407 11.18884,1.23408 1.40019,0.38114 4.16899,1.42251 6.1529,2.31413 11.146,5.00942 15.4073,5.13176 25.7357,0.73886 6.41423,-2.72816 9.3915,-3.60017 14.03728,-4.11138 7.72995,-0.85059 15.33813,1.20003 21.42298,5.77412 5.31179,3.99291 8.99752,10.09475 10.74567,17.78965 0.91739,4.03815 1.2569,12.71527 0.69977,17.88378 -1.0276,9.53312 -2.90506,14.86026 -9.01384,25.57632 -39.49726,8.91432 -56.19409,12.93626 -99.144127,0 z"
       id="path4275-9-6"
       inkscape:connector-curvature="0"
       inkscape:export-filename="/Users/ingmarkappel/Desktop/tooth menu_lower_jaw.png" />
    <path
       inkscape:export-filename="/Users/ingmarkappel/Desktop/tooth menu_lower_jaw.png"
       inkscape:connector-curvature="0"
       id="path4275-9"
       d="m 113.685,288.91605 c -2.07995,-0.38964 -6.59384,-4.5842 -9.02786,-8.38917 -5.469806,-8.55071 -9.253672,-23.07678 -10.934136,-41.97576 -0.310529,-3.4925 -0.682695,-12.14436 -0.826967,-19.22636 -0.301724,-14.80786 -0.10256,-13.79739 -4.102354,-20.81392 28.659757,-26.83668 9.775527,-19.83679 20.291497,-44.44539 17.88801,-4.69826 41.43919,-4.56316 55.52722,0.17569 13.07014,21.12497 -6.73196,16.68533 23.32541,44.2697 -3.99568,7.00922 -3.80484,6.0548 -4.09104,20.46111 -0.26453,13.31584 -0.64674,19.42655 -1.76533,28.22226 -1.74834,13.74772 -4.97749,24.947 -9.29445,32.23482 -1.7561,2.96458 -5.41858,6.99965 -7.38767,8.13921 -4.60223,2.66339 -8.51823,1.54423 -10.79763,-3.0859 -0.97347,-1.97739 -1.16764,-2.92953 -1.78023,-8.7295 -1.97812,-18.72847 -5.67267,-35.33623 -9.84537,-44.25724 -3.78754,-8.0975 -7.1586,-6.65461 -11.12664,4.7625 -3.44424,9.90989 -6.29133,23.99639 -7.91442,39.15833 -0.38427,3.58952 -0.97059,7.30944 -1.30296,8.26645 -1.32992,3.82945 -4.99542,5.97341 -8.94707,5.23317 z m 2.24299,-7.76699 c 0.10318,-0.33954 0.59637,-4.07046 1.09595,-8.29092 4.07428,-34.41796 11.70466,-53.57201 21.32288,-53.52567 10.28401,0.0496 18.18536,21.37322 22.09732,59.63471 0.28462,2.78367 0.53518,3.073 1.85034,2.13653 4.12865,-2.93988 7.96535,-10.72893 10.44724,-21.20953 2.73646,-11.55548 4.08285,-25.12207 4.08864,-41.19815 0.003,-5.37803 0.16507,-10.79063 0.36254,-12.02798 0.19747,-1.23734 0.30441,-2.30431 0.23763,-2.37111 -0.0668,-0.0668 -1.77963,0.35986 -3.8063,0.94812 -13.45082,3.90412 -25.14704,5.73843 -36.66961,5.75093 -10.98722,0.0118 -21.10221,-1.55276 -33.63674,-5.20308 l -4.179822,-1.21728 0.247311,0.93636 c 0.136003,0.51503 0.302288,5.69885 0.369486,11.51969 0.186125,16.11912 1.182425,27.50696 3.361185,38.41843 2.46905,12.3652 5.55616,19.95003 9.88545,24.28781 2.15849,2.16279 2.62915,2.38972 2.9265,1.41114 z"
       style="fill:#000000;stroke-width:0.282223"
       inkscape:export-xdpi="90"
       inkscape:export-ydpi="90"
       sodipodi:nodetypes="scscccccssssssccscssccscscssccccccscs" />
  </g>
</svg>
