<?xml version="1.0" encoding="UTF-8" standalone="no"?>
<svg
   xmlns:dc="http://purl.org/dc/elements/1.1/"
   xmlns:cc="http://creativecommons.org/ns#"
   xmlns:rdf="http://www.w3.org/1999/02/22-rdf-syntax-ns#"
   xmlns:svg="http://www.w3.org/2000/svg"
   xmlns="http://www.w3.org/2000/svg"
   xmlns:sodipodi="http://sodipodi.sourceforge.net/DTD/sodipodi-0.dtd"
   xmlns:inkscape="http://www.inkscape.org/namespaces/inkscape"
   width="91.312637mm"
   height="179.39648mm"
   viewBox="0 0 91.312638 179.39649"
   version="1.1"
   id="svg5422"
   inkscape:version="1.0 (4035a4f, 2020-05-01)"
   sodipodi:docname="35,34_44,45.svg">
  <defs
     id="defs5416" />
  <sodipodi:namedview
     id="base"
     pagecolor="#ffffff"
     bordercolor="#666666"
     borderopacity="1.0"
     inkscape:pageopacity="0.0"
     inkscape:pageshadow="2"
     inkscape:zoom="0.94145434"
     inkscape:cx="144.18112"
     inkscape:cy="295.29975"
     inkscape:document-units="mm"
     inkscape:current-layer="layer1"
     inkscape:document-rotation="0"
     showgrid="false"
     fit-margin-top="0"
     fit-margin-left="0"
     fit-margin-right="0"
     fit-margin-bottom="0"
     inkscape:window-width="1248"
     inkscape:window-height="943"
     inkscape:window-x="0"
     inkscape:window-y="23"
     inkscape:window-maximized="0" />
  <metadata
     id="metadata5419">
    <rdf:RDF>
      <cc:Work
         rdf:about="">
        <dc:format>image/svg+xml</dc:format>
        <dc:type
           rdf:resource="http://purl.org/dc/dcmitype/StillImage" />
        <dc:title />
      </cc:Work>
    </rdf:RDF>
  </metadata>
  <g
     inkscape:label="Ebene 1"
     inkscape:groupmode="layer"
     id="layer1"
     transform="translate(-117.55584,-71.978643)">
    <path
       sodipodi:nodetypes="ccsccccsscc"
       inkscape:export-ydpi="90"
       inkscape:export-xdpi="90"
       inkscape:connector-curvature="0"
       id="path4706-2-0"
       d="m 129.03974,152.2823 c -6.0364,-10.58943 -9.53514,-19.66031 -10.56917,-28.92778 -1.43454,-12.85604 0.88618,-23.938677 6.5379,-31.220853 5.34952,-6.892798 16.55854,-14.780796 25.23518,-17.758833 10.69123,-3.669453 22.17285,-2.046393 35.84028,5.066482 4.34255,2.259894 9.4,5.359653 12.57723,7.708701 3.68585,2.724912 7.19954,9.103167 8.73255,15.851263 0.9175,4.03815 1.25702,12.71527 0.69991,17.88377 -0.4168,3.86676 -0.79932,7.73801 -1.51445,11.68906 -1.04796,5.78989 -2.81017,11.75114 -6.44112,18.12069 -37.26798,24.92945 -71.09831,1.5875 -71.09831,1.5875 z"
       style="fill:#808080;stroke:#000000;stroke-width:1;stroke-miterlimit:4;stroke-dasharray:none;stroke-opacity:1"
       inkscape:export-filename="/Users/ingmarkappel/Desktop/tooth menu_lower_jaw.png" />
    <path
       inkscape:export-filename="/Users/ingmarkappel/Desktop/tooth menu_lower_jaw.png"
       style="fill:#91d8ff;fill-opacity:1;stroke:#000000;stroke-width:1;stroke-miterlimit:4;stroke-dasharray:none;stroke-opacity:1"
       d="m 164.52888,72.588314 c 6.64459,0.515227 13.74274,2.787278 21.55505,6.853002 4.34255,2.259894 9.4,5.359653 12.57723,7.708701 3.68585,2.724912 7.19954,9.103167 8.73255,15.851263 0.9175,4.03815 1.25702,12.71527 0.69991,17.88377 -0.4168,3.86676 -0.79932,7.73801 -1.51445,11.68906 -1.04796,5.78989 -2.81017,11.75114 -6.44112,18.12069 -13.01477,8.70589 -25.6103,11.52483 -36.49219,11.50677 z"
       id="path840"
       inkscape:connector-curvature="0"
       inkscape:export-xdpi="90"
       inkscape:export-ydpi="90"
       sodipodi:nodetypes="ccccssccc" />
    <path
       sodipodi:nodetypes="sccccccccccsccccscssccccccccc"
       inkscape:export-ydpi="90"
       inkscape:export-xdpi="90"
       inkscape:connector-curvature="0"
       id="path4706-2"
       d="m 162.81871,251.21502 c -4.12834,-0.81351 -9.30128,-5.07647 -14.90646,-12.28401 -6.49225,-8.3483 -9.9955,-17.91405 -12.51797,-34.17993 -1.35441,-8.73339 -1.96909,-17.22842 -2.25213,-31.12572 -0.30173,-14.80789 -0.10245,-13.79742 -4.10241,-20.81389 19.21845,-27.73282 9.35449,-35.39225 18.55808,-62.561633 13.48544,-5.415835 20.07719,-7.179177 33.74462,-0.0663 5.2678,22.705643 0.55759,36.355873 19.32478,60.511263 -3.99573,7.00922 -3.80492,6.05475 -4.09109,20.46112 -0.60765,30.58639 -3.48742,46.03033 -11.50566,61.70001 -4.71594,9.21684 -10.77384,16.02751 -15.82217,17.789 -1.95131,0.68081 -4.65243,0.9203 -6.42959,0.57009 z m 4.41054,-7.62615 c 3.03335,-1.43939 7.64538,-6.96765 10.83706,-12.9899 0.71966,-1.3582 1.92531,-3.5807 2.67938,-4.93889 4.07955,-7.34994 7.22009,-22.37469 8.44353,-40.39305 0.26444,-3.89061 0.70696,-26.10889 0.52044,-26.10581 -0.009,1.4e-4 -1.59571,0.64634 -3.5278,1.43603 -4.4704,1.82705 -10.33636,3.59257 -14.62557,4.40193 -4.48847,0.84695 -12.12314,0.86631 -16.4042,0.0416 -3.65368,-0.70386 -10.31186,-2.7119 -13.14255,-3.96375 -1.06595,-0.47151 -1.95834,-0.85728 -1.98261,-0.85728 -0.21957,-2.5e-4 0.18683,22.95059 0.4809,27.16391 0.46454,6.65065 1.57198,15.81108 2.51686,20.81389 1.56831,8.30405 4.06936,16.56309 5.66194,18.69722 0.3621,0.48509 1.95834,2.86634 3.54725,5.29167 1.83558,2.80207 3.98755,5.51868 5.90212,7.45151 4.32991,4.37095 6.35457,5.25052 9.09325,3.95089 z"
       style="fill:#000000;stroke-width:0.282223"
       inkscape:export-filename="/Users/ingmarkappel/Desktop/tooth menu_lower_jaw.png" />
  </g>
</svg>
