<?xml version="1.0" encoding="UTF-8" standalone="no"?>
<svg
   xmlns:dc="http://purl.org/dc/elements/1.1/"
   xmlns:cc="http://creativecommons.org/ns#"
   xmlns:rdf="http://www.w3.org/1999/02/22-rdf-syntax-ns#"
   xmlns:svg="http://www.w3.org/2000/svg"
   xmlns="http://www.w3.org/2000/svg"
   xmlns:sodipodi="http://sodipodi.sourceforge.net/DTD/sodipodi-0.dtd"
   xmlns:inkscape="http://www.inkscape.org/namespaces/inkscape"
   width="94.128693mm"
   height="157.83925mm"
   viewBox="0 0 94.128693 157.83925"
   version="1.1"
   id="svg2412"
   inkscape:version="1.0 (4035a4f, 2020-05-01)"
   sodipodi:docname="14_24.svg">
  <defs
     id="defs2406" />
  <sodipodi:namedview
     id="base"
     pagecolor="#ffffff"
     bordercolor="#666666"
     borderopacity="1.0"
     inkscape:pageopacity="0.0"
     inkscape:pageshadow="2"
     inkscape:zoom="0.75904399"
     inkscape:cx="36.263947"
     inkscape:cy="454.7423"
     inkscape:document-units="mm"
     inkscape:current-layer="layer1"
     inkscape:document-rotation="0"
     showgrid="false"
     fit-margin-top="0"
     fit-margin-left="0"
     fit-margin-right="0"
     fit-margin-bottom="0"
     inkscape:window-width="1248"
     inkscape:window-height="943"
     inkscape:window-x="0"
     inkscape:window-y="23"
     inkscape:window-maximized="0" />
  <metadata
     id="metadata2409">
    <rdf:RDF>
      <cc:Work
         rdf:about="">
        <dc:format>image/svg+xml</dc:format>
        <dc:type
           rdf:resource="http://purl.org/dc/dcmitype/StillImage" />
        <dc:title></dc:title>
      </cc:Work>
    </rdf:RDF>
  </metadata>
  <g
     inkscape:label="Ebene 1"
     inkscape:groupmode="layer"
     id="layer1"
     transform="translate(-91.274937,-32.205378)">
    <path
       inkscape:export-ydpi="90"
       inkscape:export-xdpi="90"
       inkscape:connector-curvature="0"
       id="path4440-5"
       d="m 151.17544,32.350509 c 2.08001,0.389636 6.59384,4.584192 9.02801,8.389197 5.46975,8.550683 9.2535,23.076746 10.93413,41.975671 0.31045,3.4925 0.68273,12.144359 0.82692,19.226383 0.30169,14.80787 0.10244,13.79739 4.10238,20.81389 7.24662,12.71211 9.3345,20.04859 9.33675,32.80833 0.003,20.12541 -9.8916,32.49529 -27.51158,34.39126 -4.33888,0.46688 -11.64985,-0.94019 -16.47952,-3.17161 l -2.61899,-1.21003 -2.90492,1.2025 c -12.17961,5.04175 -23.80826,4.06241 -32.89807,-2.77061 -5.311736,-3.99296 -8.99753,-10.0948 -10.745642,-17.78968 -0.917504,-4.03815 -1.257018,-12.71526 -0.699911,-17.88377 1.027571,-9.53313 2.905223,-14.86027 9.013923,-25.57639 3.99567,-7.00921 3.80492,-6.05477 4.09109,-20.46111 0.26442,-13.315835 0.64655,-19.426509 1.7653,-28.222219 1.74837,-13.747721 4.97756,-24.947031 9.2944,-32.234799 1.75599,-2.964603 5.41866,-6.999675 7.38773,-8.139204 4.60248,-2.663613 8.51806,-1.544235 10.79813,3.086777 0.97875,1.988651 1.16611,2.918065 1.79462,8.905889 0.66664,6.350395 2.29419,17.763433 2.57302,18.042269 0.0717,0.07165 0.23171,-0.469929 0.3556,-1.20351 0.95815,-5.670126 1.71027,-11.10708 2.30663,-16.679614 0.38439,-3.589528 0.97082,-7.309442 1.30302,-8.266458 1.32981,-3.829473 4.99534,-5.973402 8.94698,-5.233162 z m -2.24282,7.766981 c -0.10329,0.339542 -0.5963,4.070463 -1.09615,8.290927 -1.70603,14.413286 -4.07529,26.630657 -5.51772,28.452231 -2.15421,2.720962 -5.17765,2.722147 -7.73992,0.0031 -1.13005,-1.198969 -1.36567,-1.805071 -2.21124,-5.682691 -1.79747,-8.244416 -3.08836,-16.884366 -4.31518,-28.881661 -0.28448,-2.783642 -0.53509,-3.072976 -1.85024,-2.136507 -4.1286,2.939853 -7.96544,10.728904 -10.44728,21.209508 -2.7421,11.579972 -3.98441,24.296508 -4.20454,43.038853 -0.0694,5.91784 -0.24698,11.1195 -0.39455,11.5592 l -0.26839,0.79951 1.5711,-0.67346 c 2.9464,-1.26295 10.52268,-3.58663 14.48847,-4.44359 11.78221,-2.54613 21.3625,-1.84026 33.83672,2.49309 1.99929,0.69441 3.89466,1.34202 4.21216,1.43911 0.5018,0.1533 0.54049,-0.0246 0.29352,-1.35354 -0.15604,-0.84153 -0.29098,-6.05443 -0.29913,-11.5842 -0.0446,-29.620609 -5.07831,-53.050074 -13.13126,-61.118751 -2.15844,-2.162754 -2.62919,-2.389688 -2.92637,-1.411111 z m -16.55289,76.8615 c -6.92912,1.00708 -16.63474,4.09191 -23.52379,7.47665 -1.93294,0.94974 -1.94956,0.97178 -4.43173,5.88846 -4.22741,8.37444 -5.390729,13.04626 -5.689857,22.85018 -0.221572,7.26615 0.09059,10.28313 1.488977,14.39491 1.2827,3.77105 2.58826,5.90781 5.30606,8.68282 5.17006,5.27953 12.83716,7.48515 20.51022,5.90025 1.4794,-0.30559 3.29836,-0.79908 4.04198,-1.09666 l 1.35213,-0.54099 v -2.43115 c 0,-2.85019 -0.12277,-2.79973 3.77895,-1.55371 1.51102,0.48259 3.02514,0.87948 3.36466,0.88194 0.33982,0.003 0.61753,0.14204 0.61753,0.31013 0,0.50877 8.80643,3.84102 11.71501,4.43278 7.75663,1.57824 15.43759,-0.53297 20.55425,-5.64963 5.41725,-5.41717 7.74558,-14.12119 6.86674,-25.66958 -0.71656,-9.41479 -2.5654,-15.00635 -8.00862,-24.21918 -1.51412,-2.56306 -2.17731,-2.98823 -8.74888,-5.60914 -10.29462,-4.1058 -19.76315,-5.41873 -29.19363,-4.04808 z"
       style="fill:#000000;stroke-width:0.282223"
       inkscape:export-filename="/Users/ingmarkappel/Desktop/tooth menu.png" />
    <path
       sodipodi:nodetypes="csscssccccc"
       inkscape:export-filename="/Users/ingmarkappel/Desktop/tooth menu.png"
       style="fill:#91d8ff;fill-opacity:1;stroke:#000000;stroke-width:1;stroke-miterlimit:4;stroke-dasharray:2, 1;stroke-dashoffset:0;stroke-opacity:1"
       d="m 185.40363,157.15148 c 0.003,20.12541 -9.8916,30.90779 -27.51158,32.80376 -4.33888,0.46688 -11.64985,-0.94019 -16.47952,-3.17161 l -2.61899,-1.21003 -2.90492,1.2025 c -12.17961,5.04175 -23.80826,4.06241 -32.89807,-2.77061 -5.311734,-3.99296 -8.997528,-10.0948 -10.745641,-17.78968 -0.467838,-2.05906 -0.785398,-5.32426 -0.910437,-8.71542 l 7.613458,10.55509 79.12014,0.23571 z"
       id="path4440-5-1"
       inkscape:connector-curvature="0"
       inkscape:export-xdpi="90"
       inkscape:export-ydpi="90" />
  </g>
</svg>
