<?xml version="1.0" encoding="UTF-8" standalone="no"?>
<svg
   xmlns:dc="http://purl.org/dc/elements/1.1/"
   xmlns:cc="http://creativecommons.org/ns#"
   xmlns:rdf="http://www.w3.org/1999/02/22-rdf-syntax-ns#"
   xmlns:svg="http://www.w3.org/2000/svg"
   xmlns="http://www.w3.org/2000/svg"
   xmlns:sodipodi="http://sodipodi.sourceforge.net/DTD/sodipodi-0.dtd"
   xmlns:inkscape="http://www.inkscape.org/namespaces/inkscape"
   sodipodi:docname="11_21.svg"
   inkscape:version="1.0 (4035a4f, 2020-05-01)"
   id="svg4218"
   version="1.1"
   viewBox="0 0 85.013634 163.89414"
   height="163.89413mm"
   width="85.013634mm">
  <defs
     id="defs4212" />
  <sodipodi:namedview
     inkscape:window-maximized="0"
     inkscape:window-y="23"
     inkscape:window-x="0"
     inkscape:window-height="943"
     inkscape:window-width="1248"
     fit-margin-bottom="0"
     fit-margin-right="0"
     fit-margin-left="0"
     fit-margin-top="0"
     showgrid="false"
     inkscape:document-rotation="0"
     inkscape:current-layer="layer1"
     inkscape:document-units="mm"
     inkscape:cy="320.86119"
     inkscape:cx="133.43155"
     inkscape:zoom="1.1699437"
     inkscape:pageshadow="2"
     inkscape:pageopacity="0.0"
     borderopacity="1.0"
     bordercolor="#666666"
     pagecolor="#ffffff"
     id="base" />
  <metadata
     id="metadata4215">
    <rdf:RDF>
      <cc:Work
         rdf:about="">
        <dc:format>image/svg+xml</dc:format>
        <dc:type
           rdf:resource="http://purl.org/dc/dcmitype/StillImage" />
        <dc:title></dc:title>
      </cc:Work>
    </rdf:RDF>
  </metadata>
  <g
     transform="translate(-127.75643,-100.72331)"
     id="layer1"
     inkscape:groupmode="layer"
     inkscape:label="Ebene 1">
    <path
       inkscape:export-filename="/Users/ingmarkappel/Desktop/tooth menu.png"
       style="fill:#000000;stroke-width:0.282223"
       d="m 172.53339,101.04851 c 2.39712,0.56287 6.31667,2.88959 8.77779,5.21061 6.71331,6.33115 11.09294,17.47659 13.84715,35.23864 1.38326,8.92073 1.96562,17.06513 2.16253,30.24375 0.14108,9.44132 0.30934,12.79889 0.71498,14.26641 0.63827,2.30926 2.20015,5.4667 5.22455,10.56183 2.15756,3.63477 4.54852,8.82954 4.90127,10.64892 0.0916,0.47241 0.71947,2.76394 1.39525,5.09227 2.51528,8.66595 3.21223,18.17661 1.86955,25.5121 -1.53994,8.41316 -5.69589,19.71401 -7.737,21.03848 -1.46832,0.95276 -18.53337,2.79092 -29.87633,3.2181 -11.39057,0.42897 -35.63346,-1.77868 -37.63351,-3.42706 -1.46725,-1.20923 -5.04515,-10.95273 -6.58882,-17.94301 -2.40605,-10.89502 -1.97778,-19.06938 1.58426,-30.23779 1.75655,-5.50751 3.29249,-8.96098 6.24253,-14.03581 3.10297,-5.33801 4.49374,-8.17211 5.11728,-10.42803 0.40516,-1.46589 0.57497,-4.83556 0.71893,-14.26641 0.19781,-12.95931 0.47834,-17.53438 1.64369,-26.80459 1.74128,-13.85186 4.96243,-25.06808 9.31105,-32.42183 3.14759,-5.32274 8.90244,-10.04285 13.79951,-11.31841 2.30042,-0.59919 2.56765,-0.60791 4.52534,-0.14817 z m -5.17852,7.97247 c -2.76521,1.91412 -6.48775,7.00648 -9.75811,13.3488 -3.37674,6.54866 -5.94448,19.83345 -7.05398,36.49534 -0.28307,4.25055 -0.704,27.51711 -0.49787,27.51675 0.0243,-6e-5 0.90938,-0.38267 1.9667,-0.85025 3.18036,-1.40651 7.98951,-3.01476 11.37618,-3.80436 4.9283,-1.14904 11.53744,-1.07414 16.47444,0.18669 2.99748,0.7655 7.47225,2.32675 10.35507,3.61287 0.46736,0.2085 0.34194,-19.34399 -0.171,-26.6617 -1.10806,-15.80718 -4.05649,-31.07814 -7.20917,-37.33848 -2.78178,-5.52391 -7.77124,-11.76875 -10.6115,-13.2814 -1.38712,-0.73881 -3.07001,-0.47075 -4.87076,0.77574 z m -1.53348,79.3004 c -4.28334,0.81952 -8.98779,2.52736 -13.84644,5.02658 -2.44408,1.25721 -5.04213,2.59054 -5.77345,2.96299 -1.17306,0.59741 -1.58324,1.20557 -3.4826,5.16357 -1.18409,2.46752 -2.35853,4.72454 -2.60985,5.01559 -0.70496,0.81639 -3.20192,8.35742 -4.11045,12.41405 -1.1673,5.21188 -1.15965,13.61895 0.0175,19.15956 0.85863,4.04182 3.00595,10.97562 4.1496,13.39915 l 0.66282,1.40473 2.99861,0.43138 c 9.37627,1.34885 14.46327,1.68791 25.4,1.69297 10.95612,0.005 15.4103,-0.26047 25.4,-1.51396 l 4.76253,-0.5976 0.77126,-1.5875 c 1.1562,-2.37982 3.21005,-8.72996 4.07963,-12.61362 0.99492,-4.44333 1.07408,-14.17582 0.15136,-18.60722 -1.5424,-7.40742 -4.42276,-15.40614 -7.44793,-20.6827 -1.61603,-2.81878 -1.92676,-3.14678 -4.40896,-4.65419 -9.604,-5.8324 -18.53946,-7.97774 -26.71352,-6.41378 z"
       id="path4638-9"
       inkscape:connector-curvature="0"
       inkscape:export-xdpi="90"
       inkscape:export-ydpi="90" />
    <path
       inkscape:export-ydpi="90"
       inkscape:export-xdpi="90"
       inkscape:connector-curvature="0"
       id="path4638-9-5"
       d="m 212.21445,229.25015 c 0.16941,3.76462 -0.0287,7.36623 -0.61268,10.55644 -1.53994,8.41316 -5.69589,19.71401 -7.737,21.03848 -1.46832,0.95276 -18.53337,2.79092 -29.87633,3.2181 -11.39057,0.42897 -35.63346,-1.77868 -37.63351,-3.42706 -1.46725,-1.20923 -5.04515,-10.95273 -6.58882,-17.94301 -1.19938,-5.43099 -1.69447,-8.59843 -1.44818,-13.38519 l 6.95829,5.76865 69.46994,-0.5296 z"
       style="fill:#91d8ff;fill-opacity:1;stroke:#000000;stroke-width:1;stroke-miterlimit:4;stroke-dasharray:2, 1;stroke-dashoffset:0;stroke-opacity:1"
       inkscape:export-filename="/Users/ingmarkappel/Desktop/tooth menu.png"
       sodipodi:nodetypes="cssssccccc" />
    <path
       sodipodi:nodetypes="csccccc"
       inkscape:export-filename="/Users/ingmarkappel/Desktop/tooth menu.png"
       style="fill:#808080;fill-opacity:1;stroke:#000000;stroke-width:1;stroke-miterlimit:4;stroke-dasharray:2, 1;stroke-dashoffset:0;stroke-opacity:1"
       d="m 170.14197,264.11555 c -12.25507,-0.0676 -31.99085,-1.99908 -33.78704,-3.47944 -1.46723,-1.20925 -5.04515,-10.95273 -6.58882,-17.94301 -1.19938,-5.43099 -1.69447,-8.59843 -1.44818,-13.38519 l 7.22652,5.28669 34.60023,-0.0238 z"
       id="path840"
       inkscape:connector-curvature="0"
       inkscape:export-xdpi="90"
       inkscape:export-ydpi="90" />
  </g>
</svg>
