<?xml version="1.0" encoding="UTF-8" standalone="no"?>
<svg
   xmlns:dc="http://purl.org/dc/elements/1.1/"
   xmlns:cc="http://creativecommons.org/ns#"
   xmlns:rdf="http://www.w3.org/1999/02/22-rdf-syntax-ns#"
   xmlns:svg="http://www.w3.org/2000/svg"
   xmlns="http://www.w3.org/2000/svg"
   xmlns:sodipodi="http://sodipodi.sourceforge.net/DTD/sodipodi-0.dtd"
   xmlns:inkscape="http://www.inkscape.org/namespaces/inkscape"
   width="56.012531mm"
   height="126.69835mm"
   viewBox="0 0 56.012531 126.69835"
   version="1.1"
   id="svg3616"
   inkscape:version="1.0 (4035a4f, 2020-05-01)"
   sodipodi:docname="12_22.svg">
  <defs
     id="defs3610" />
  <sodipodi:namedview
     id="base"
     pagecolor="#ffffff"
     bordercolor="#666666"
     borderopacity="1.0"
     inkscape:pageopacity="0.0"
     inkscape:pageshadow="2"
     inkscape:zoom="0.62226003"
     inkscape:cx="68.850222"
     inkscape:cy="285.56026"
     inkscape:document-units="mm"
     inkscape:current-layer="layer1"
     inkscape:document-rotation="0"
     showgrid="false"
     fit-margin-top="0"
     fit-margin-left="0"
     fit-margin-right="0"
     fit-margin-bottom="0"
     inkscape:window-width="1248"
     inkscape:window-height="943"
     inkscape:window-x="0"
     inkscape:window-y="23"
     inkscape:window-maximized="0" />
  <metadata
     id="metadata3613">
    <rdf:RDF>
      <cc:Work
         rdf:about="">
        <dc:format>image/svg+xml</dc:format>
        <dc:type
           rdf:resource="http://purl.org/dc/dcmitype/StillImage" />
        <dc:title></dc:title>
      </cc:Work>
    </rdf:RDF>
  </metadata>
  <g
     inkscape:label="Ebene 1"
     inkscape:groupmode="layer"
     id="layer1"
     transform="translate(-117.34687,-100.85765)">
    <path
       sodipodi:nodetypes="ccsccscsccccccccssssssccc"
       inkscape:export-ydpi="90"
       inkscape:export-xdpi="90"
       inkscape:transform-center-y="-8.8388279"
       inkscape:transform-center-x="601.04081"
       inkscape:connector-curvature="0"
       id="path4688-0"
       d="m 148.23389,101.13581 c 2.26441,0.62179 3.86769,1.70276 6.09756,4.11127 7.12125,7.6918 11.46617,18.80779 14.17187,36.257 1.38325,8.92073 1.96562,17.06513 2.16252,30.24375 0.14109,9.44132 0.30935,12.79889 0.71499,14.26642 -1.22967,1.87435 3.12804,3.88863 1.68022,5.37747 -21.04714,21.64345 -34.28294,19.62585 -55.71418,2.05194 3.99116,-7.01725 3.79965,-6.05821 4.08576,-20.46111 0.13682,-6.888 0.43355,-14.8255 0.65936,-17.63889 1.81553,-22.61909 6.01458,-37.5686 13.16027,-46.85328 4.74769,-6.1689 8.84533,-8.490405 12.98163,-7.35457 z m -3.40151,7.25079 c -1.93768,1.18158 -4.33558,4.51824 -6.81008,9.47609 -3.27259,6.55701 -4.04246,8.48586 -5.14293,12.88528 -3.01718,12.06207 -4.3554,25.17891 -4.50912,44.19814 l -0.0857,10.60662 2.64583,-1.14628 c 5.90751,-2.55941 12.82195,-3.93711 17.62015,-3.51078 3.55292,0.31569 7.56324,1.33671 11.26653,2.8685 1.67183,0.69151 3.27782,1.33486 3.56887,1.42966 0.46341,0.15093 0.52065,-1.13414 0.46062,-10.34099 -0.12155,-18.64165 -1.53145,-31.96099 -4.73504,-44.73276 -2.05085,-8.17609 -6.83965,-17.46094 -10.89578,-21.12534 -1.62309,-1.46635 -1.89557,-1.51534 -3.38331,-0.60814 z"
       style="fill:#000000;stroke-width:0.282223"
       inkscape:export-filename="/Users/ingmarkappel/Desktop/tooth menu.png" />
    <ellipse
       ry="14.244112"
       rx="14.031513"
       cy="212.81189"
       cx="146.55962"
       id="path839"
       style="fill:#000000;fill-rule:evenodd;stroke:#000000;stroke-width:1;stroke-linejoin:round;paint-order:stroke markers fill" />
    <rect
       ry="2.1185188"
       y="133.59784"
       x="141.21201"
       height="49.322895"
       width="9.7795401"
       id="rect841"
       style="fill:#000000;fill-rule:evenodd;stroke:#000000;stroke-width:1;stroke-linejoin:round;paint-order:stroke markers fill" />
  </g>
</svg>
