<?xml version="1.0" encoding="UTF-8" standalone="no"?>
<svg
   xmlns:dc="http://purl.org/dc/elements/1.1/"
   xmlns:cc="http://creativecommons.org/ns#"
   xmlns:rdf="http://www.w3.org/1999/02/22-rdf-syntax-ns#"
   xmlns:svg="http://www.w3.org/2000/svg"
   xmlns="http://www.w3.org/2000/svg"
   xmlns:sodipodi="http://sodipodi.sourceforge.net/DTD/sodipodi-0.dtd"
   xmlns:inkscape="http://www.inkscape.org/namespaces/inkscape"
   width="49.823242mm"
   height="117.09533mm"
   viewBox="0 0 49.823242 117.09533"
   version="1.1"
   id="svg6626"
   inkscape:version="1.0 (4035a4f, 2020-05-01)"
   sodipodi:docname="32-42.svg">
  <defs
     id="defs6620" />
  <sodipodi:namedview
     id="base"
     pagecolor="#ffffff"
     bordercolor="#666666"
     borderopacity="1.0"
     inkscape:pageopacity="0.0"
     inkscape:pageshadow="2"
     inkscape:zoom="0.87423523"
     inkscape:cx="118.67967"
     inkscape:cy="187.76523"
     inkscape:document-units="mm"
     inkscape:current-layer="layer1"
     inkscape:document-rotation="0"
     showgrid="false"
     fit-margin-top="0"
     fit-margin-left="0"
     fit-margin-right="0"
     fit-margin-bottom="0"
     inkscape:window-width="1248"
     inkscape:window-height="943"
     inkscape:window-x="0"
     inkscape:window-y="23"
     inkscape:window-maximized="0" />
  <metadata
     id="metadata6623">
    <rdf:RDF>
      <cc:Work
         rdf:about="">
        <dc:format>image/svg+xml</dc:format>
        <dc:type
           rdf:resource="http://purl.org/dc/dcmitype/StillImage" />
        <dc:title></dc:title>
      </cc:Work>
    </rdf:RDF>
  </metadata>
  <g
     inkscape:label="Ebene 1"
     inkscape:groupmode="layer"
     id="layer1"
     transform="translate(-126.66637,-148.68377)">
    <path
       transform="matrix(0.26458333,0,0,0.26458333,112.40279,104.63739)"
       d="m 148.79688,166.47461 a 41.992664,40.992839 0 0 0 -41.81055,40.99219 41.992664,40.992839 0 0 0 8.35937,24.54492 c -15.981548,2.29052 -32.712628,6.05051 -50.199216,11.17578 -16.963615,9.54588 -9.832043,62.23815 -9.298828,97.92188 0.744227,49.80895 2.945759,80.59038 8.173828,114.30664 10.22623,65.94977 26.647615,107.96194 53.562496,137.0332 8.42786,9.10303 14.48848,13.18899 23.04688,15.53906 15.6333,4.29279 31.12047,-4.48142 49.06445,-27.79687 27.00737,-35.09182 42.87835,-91.5926 49.74024,-177.08203 0.85341,-10.63329 1.97507,-40.63459 2.49218,-66.66797 -0.27363,-17.41883 3.43963,-77.3134 -9.5664,-85.33008 -15.27976,-9.41814 -31.92659,-15.61191 -49.91211,-18.88867 a 41.992664,40.992839 0 0 0 8.52344,-24.75586 41.992664,40.992839 0 0 0 -41.99414,-40.99219 41.992664,40.992839 0 0 0 -0.18164,0 z M 83.052734,290.25195 c 0.09774,-0.0127 0.20108,10e-4 0.310547,0.0371 1.10007,0.3583 7.169554,2.79076 13.488281,5.4043 13.996688,5.78944 29.153638,9.6486 42.582028,10.8418 18.13493,1.61128 54.26815,-5.59617 76.59571,-15.26954 l -0.32422,37.75586 c -0.58103,71.88375 -5.6375,121.45799 -17.04102,167.04688 -4.15925,16.62773 -7.06865,23.91866 -19.4375,48.70117 -9.35233,18.73833 -18.41672,31.34875 -25.74023,35.81445 -5.62296,3.42868 -6.6526,3.24317 -12.78711,-2.29882 -15.33014,-13.84978 -33.4304,-48.942 -41.181642,-79.84375 -12.108057,-48.27126 -17.43513,-98.61173 -17.894531,-169.06836 -0.212705,-32.62274 -0.03641,-38.93009 1.429687,-39.1211 z"
       inkscape:transform-center-y="8.8388162"
       inkscape:transform-center-x="-601.04076"
       style="fill:#000000;stroke-width:1.06667"
       id="path4720" />
    <rect
       ry="2.1185188"
       y="183.93051"
       x="146.90437"
       height="42.067719"
       width="10.289947"
       id="rect1412"
       style="fill:#000000;fill-rule:evenodd;stroke:#000000;stroke-width:1;stroke-linejoin:round;paint-order:stroke markers fill" />
  </g>
</svg>
