<?xml version="1.0" encoding="UTF-8" standalone="no"?>
<svg
   xmlns:dc="http://purl.org/dc/elements/1.1/"
   xmlns:cc="http://creativecommons.org/ns#"
   xmlns:rdf="http://www.w3.org/1999/02/22-rdf-syntax-ns#"
   xmlns:svg="http://www.w3.org/2000/svg"
   xmlns="http://www.w3.org/2000/svg"
   xmlns:sodipodi="http://sodipodi.sourceforge.net/DTD/sodipodi-0.dtd"
   xmlns:inkscape="http://www.inkscape.org/namespaces/inkscape"
   sodipodi:docname="33_43.svg"
   inkscape:version="1.0 (4035a4f, 2020-05-01)"
   id="svg6024"
   version="1.1"
   viewBox="0 0 70.813622 145.8855"
   height="145.8855mm"
   width="70.813622mm">
  <defs
     id="defs6018" />
  <sodipodi:namedview
     inkscape:window-maximized="0"
     inkscape:window-y="23"
     inkscape:window-x="0"
     inkscape:window-height="943"
     inkscape:window-width="1248"
     fit-margin-bottom="0"
     fit-margin-right="0"
     fit-margin-left="0"
     fit-margin-top="0"
     showgrid="false"
     inkscape:document-rotation="0"
     inkscape:current-layer="layer1"
     inkscape:document-units="mm"
     inkscape:cy="118.93068"
     inkscape:cx="72.146412"
     inkscape:zoom="0.65903477"
     inkscape:pageshadow="2"
     inkscape:pageopacity="0.0"
     borderopacity="1.0"
     bordercolor="#666666"
     pagecolor="#ffffff"
     id="base" />
  <metadata
     id="metadata6021">
    <rdf:RDF>
      <cc:Work
         rdf:about="">
        <dc:format>image/svg+xml</dc:format>
        <dc:type
           rdf:resource="http://purl.org/dc/dcmitype/StillImage" />
        <dc:title></dc:title>
      </cc:Work>
    </rdf:RDF>
  </metadata>
  <g
     transform="translate(-91.976362,-100.63385)"
     id="layer1"
     inkscape:groupmode="layer"
     inkscape:label="Ebene 1">
    <path
       inkscape:export-filename="/Users/ingmarkappel/Desktop/tooth menu_lower_jaw.png"
       inkscape:connector-curvature="0"
       id="path4710-8"
       d="m 123.8706,246.12038 c -4.36741,-1.67781 -8.80846,-6.63456 -12.45731,-13.90326 -5.29051,-10.53941 -10.86581,-29.61126 -13.218698,-45.2182 -1.227977,-8.14448 -1.843503,-16.97203 -2.11582,-30.33889 -0.301723,-14.80786 -0.102446,-13.79739 -4.10241,-20.81386 14.815578,-8.47425 55.971578,-8.33731 70.813618,-1.09084 0,0 -3.13667,12.29188 -3.28405,19.61167 -0.35673,17.62806 -1.31036,28.10708 -3.51988,38.67458 -0.58307,2.78844 -1.29342,6.57341 -1.57847,8.41107 -1.21355,7.82489 -4.86607,20.27854 -8.05998,27.48215 -2.48779,5.61094 -4.92929,9.39644 -8.12546,12.59842 -3.73945,3.74622 -5.90973,4.81579 -10.07928,4.9674 -1.95524,0.0711 -3.44168,-0.0612 -4.27226,-0.38024 z m 6.21253,-7.38951 c 6.07935,-2.84359 12.89756,-17.2405 16.39627,-34.6222 0.42954,-2.13434 1.23669,-5.86492 1.7938,-8.29028 2.92862,-12.75006 4.16193,-25.15441 4.30586,-43.30372 0.0452,-5.67543 0.0754,-10.31886 0.0672,-10.31875 -0.008,1.1e-4 -1.59568,0.64634 -3.52777,1.43603 -4.4704,1.82705 -10.33639,3.59257 -14.62561,4.40193 -4.48846,0.84695 -12.12313,0.86631 -16.40413,0.0416 -3.65368,-0.70386 -10.31187,-2.7119 -13.14255,-3.96375 -1.06596,-0.47151 -1.95834,-0.85728 -1.98262,-0.85728 -0.28871,0 0.26388,24.44047 0.66605,29.45694 0.60172,7.50612 1.94962,17.25498 2.97519,21.51947 2.84846,11.84224 6.29158,23.15061 9.07146,29.79245 3.92123,9.36924 8.63939,15.50656 11.93744,15.52801 0.38805,0.003 1.49944,-0.36669 2.46944,-0.82048 z"
       style="fill:#000000;stroke-width:0.282223"
       inkscape:export-xdpi="90"
       inkscape:export-ydpi="90"
       sodipodi:nodetypes="cccccscccssscccccscsscscccccc" />
    <rect
       style="fill:#ff0000;fill-rule:evenodd;stroke:none;stroke-width:1.44415;stroke-linejoin:round;paint-order:stroke markers fill"
       id="rect1412"
       width="10.289947"
       height="87.735023"
       x="123.08279"
       y="128.19202"
       ry="4.4183125" />
    <ellipse
       ry="10.704198"
       rx="11.159697"
       cy="123.16716"
       cx="128.5"
       id="path840"
       style="fill:#ff0000;stroke:none;stroke-width:1;stroke-linejoin:round;paint-order:stroke markers fill" />
    <rect
       ry="2.1185188"
       y="131.82153"
       x="117.04565"
       height="5.2382245"
       width="23.002638"
       id="rect842"
       style="fill:#ff0000;stroke:none;stroke-width:1;stroke-linejoin:round;paint-order:stroke markers fill" />
  </g>
</svg>
