<?xml version="1.0" encoding="UTF-8" standalone="no"?>
<svg
   xmlns:dc="http://purl.org/dc/elements/1.1/"
   xmlns:cc="http://creativecommons.org/ns#"
   xmlns:rdf="http://www.w3.org/1999/02/22-rdf-syntax-ns#"
   xmlns:svg="http://www.w3.org/2000/svg"
   xmlns="http://www.w3.org/2000/svg"
   xmlns:sodipodi="http://sodipodi.sourceforge.net/DTD/sodipodi-0.dtd"
   xmlns:inkscape="http://www.inkscape.org/namespaces/inkscape"
   sodipodi:docname="12_22.svg"
   inkscape:version="1.0 (4035a4f, 2020-05-01)"
   id="svg3616"
   version="1.1"
   viewBox="0 0 80.08393 165.01183"
   height="165.01183mm"
   width="80.083931mm">
  <defs
     id="defs3610" />
  <sodipodi:namedview
     inkscape:window-maximized="0"
     inkscape:window-y="23"
     inkscape:window-x="427"
     inkscape:window-height="943"
     inkscape:window-width="1248"
     fit-margin-bottom="0"
     fit-margin-right="0"
     fit-margin-left="0"
     fit-margin-top="0"
     showgrid="false"
     inkscape:document-rotation="0"
     inkscape:current-layer="layer1"
     inkscape:document-units="mm"
     inkscape:cy="430.48701"
     inkscape:cx="199.83383"
     inkscape:zoom="1.0208303"
     inkscape:pageshadow="2"
     inkscape:pageopacity="0.0"
     borderopacity="1.0"
     bordercolor="#666666"
     pagecolor="#ffffff"
     id="base" />
  <metadata
     id="metadata3613">
    <rdf:RDF>
      <cc:Work
         rdf:about="">
        <dc:format>image/svg+xml</dc:format>
        <dc:type
           rdf:resource="http://purl.org/dc/dcmitype/StillImage" />
        <dc:title />
      </cc:Work>
    </rdf:RDF>
  </metadata>
  <g
     transform="translate(-107.03993,-101.77134)"
     id="layer1"
     inkscape:groupmode="layer"
     inkscape:label="Ebene 1">
    <path
       style="fill:#000000;stroke-width:0.844476"
       d="m 140.19688,104.49873 c -1.09176,1.50006 -2.52508,2.72738 -3.18515,2.72738 -1.59016,0 -2.90224,1.79326 -3.38166,4.62179 -0.4924,2.90506 0.49532,5.34948 2.41366,5.97339 2.07684,0.67545 2.04094,3.43136 -0.0447,3.43136 -2.10447,0 -4.48281,3.25864 -4.48281,6.14205 0,2.37077 2.28454,5.54673 3.98989,5.54673 0.45151,0 0.82094,0.70133 0.82094,1.55851 0,1.29501 -0.40091,1.5585 -2.37131,1.5585 -1.76874,0 -2.60919,0.4401 -3.30744,1.73189 -1.99076,3.68304 -0.61109,8.59952 2.65041,9.44478 1.34961,0.34979 1.82564,0.90722 1.82564,2.13786 0,1.46575 -0.24039,1.60629 -2.01129,1.17576 -2.7862,-0.67731 -5.20494,1.78013 -5.20494,5.28826 0,3.28009 1.01514,4.90077 3.59383,5.73753 2.03148,0.65921 2.08566,0.776 1.92125,4.14025 -0.26178,5.35623 -0.59229,6.18927 -2.45564,6.18927 -2.21698,0 -3.45166,1.92565 -4.25495,6.63623 -1.61156,9.45026 -4.32247,11.72991 -6.88063,12.72309 8.21567,1.58782 21.76985,0.93159 25.8882,0.88825 0,0 12.73279,-0.10927 27.24314,-1.40383 -2.21298,-1.03694 -5.09107,-3.25846 -6.58406,-12.33756 -0.72085,-4.3835 -1.88107,-6.22032 -4.18795,-6.62993 -2.04306,-0.3628 -2.43332,-2.99326 -0.44409,-2.99326 2.01501,0 3.44473,-2.33068 3.44473,-5.61551 0,-3.14964 -0.9651,-4.49058 -3.76215,-5.22747 -1.39975,-0.36874 -2.00496,-1.00094 -2.14287,-2.23833 -0.10571,-0.94846 0.10958,-1.72449 0.47833,-1.72449 1.37478,0 3.62263,-3.82736 3.62263,-6.16824 0,-2.77026 -2.0038,-5.52053 -4.02217,-5.52053 -0.76448,0 -1.38999,-0.32198 -1.38999,-0.71552 0,-0.39354 -0.16429,-1.2702 -0.36504,-1.94813 -0.23511,-0.79395 -0.0366,-1.23261 0.55772,-1.23261 1.23373,0 3.41544,-3.68962 3.41544,-5.77609 0,-2.51727 -1.58839,-4.94822 -3.60889,-5.52328 -2.16641,-0.61659 -2.48965,-3.35534 -0.57855,-4.90194 1.54996,-1.2543 2.55633,-4.61865 2.09463,-7.00238 -0.21557,-1.113 -1.14728,-2.26381 -2.36779,-2.92464 -1.5637,-0.84666 -2.09847,-1.68436 -2.39862,-3.75758 -0.2124,-1.46741 -1.09307,-3.58397 -1.95699,-4.70348 -1.41407,-1.83237 -2.02053,-2.03547 -6.07827,-2.03547 -4.37239,0 -4.56696,0.0817 -6.49248,2.72739 z m 9.62882,0.37398 c 1.54639,0.76186 3.2708,4.26029 2.5563,5.18614 -0.20728,0.26863 -2.82657,-0.12816 -5.82061,-0.88175 -4.68541,-1.1793 -5.34051,-1.53131 -4.7028,-2.527 1.53215,-2.39227 5.1024,-3.18877 7.96711,-1.77739 z m -1.87618,7.74607 c 4.57325,1.21468 8.59161,2.56692 8.92968,3.00501 0.89366,1.15803 -0.005,4.07036 -1.25557,4.07036 -1.98581,0 -18.94491,-4.68736 -19.48332,-5.38504 -0.29375,-0.38064 -0.35367,-1.42873 -0.13316,-2.32905 0.52586,-2.14696 1.68845,-2.08479 11.94237,0.63872 z m 0.10389,8.48364 c 4.84254,1.23862 5.43349,1.5761 5.61456,3.20645 0.17345,1.56092 0,1.75864 -1.20269,1.37919 -0.7728,-0.24364 -3.90824,-1.05858 -6.96762,-1.81103 -5.11821,-1.25879 -5.5625,-1.51278 -5.5625,-3.17994 0,-1.48289 0.24568,-1.73627 1.35303,-1.39544 0.74417,0.22905 3.78853,1.03939 6.76522,1.80077 z m -2.05622,5.98343 c 14.27493,3.70148 13.18125,3.24468 13.18125,5.50527 0,1.07674 -0.38006,2.14671 -0.8446,2.37769 -0.96947,0.4821 -23.23964,-5.05788 -24.03743,-5.97962 -0.61181,-0.70685 0.0128,-4.61953 0.73757,-4.61953 0.26844,0 5.20189,1.22228 10.96321,2.71619 z m 2.15583,9.01205 c 5.3143,1.35453 6.77414,2.00693 7.00049,3.12861 0.15727,0.77946 0.17555,1.56033 0.0404,1.73527 -0.13504,0.17493 -3.82645,-0.60797 -8.20321,-1.73977 -7.33776,-1.89751 -7.9735,-2.19985 -8.16015,-3.88099 -0.17321,-1.56009 3.4e-4,-1.76049 1.2027,-1.38883 0.77282,0.23888 4.42664,1.20445 8.11961,2.14571 z m -0.0996,6.43388 c 11.97284,3.0977 12.63884,3.363 12.82965,5.1105 0.11069,1.01376 -0.0523,2.17175 -0.36216,2.57329 -0.35034,0.45397 -5.31645,-0.48494 -13.13034,-2.4825 -16.46685,-4.20957 -15.27298,-3.75738 -15.27298,-5.78484 0,-3.56409 -0.11074,-3.56815 15.93583,0.58355 z m -1.74977,7.9706 c 4.26981,1.08675 8.37216,2.14543 9.11635,2.3526 1.3222,0.36812 2.02121,3.46402 0.78209,3.46402 -0.88505,0 -18.88205,-4.68752 -19.1047,-4.97604 -0.32554,-0.42184 0.52638,-2.81649 1.002,-2.81649 0.24254,0 3.93445,0.88917 8.20426,1.97591 z m 2.2785,7.09403 c 7.23641,1.88684 13.39277,3.61933 13.68075,3.84998 0.79816,0.6392 0.62401,4.0093 -0.22803,4.41336 -0.41345,0.19605 -7.51691,-1.37096 -15.7855,-3.48226 -15.61135,-3.98621 -17.12932,-4.72723 -15.88006,-7.75206 0.71112,-1.72181 -0.61402,-1.93796 18.21284,2.97098 z m 9.39359,12.53798 v 1.80403 l -11.25571,-0.212 -11.25571,-0.212 0.18505,-3.88984 c 0.10178,-2.13941 0.27626,-4.08104 0.38772,-4.31476 0.11146,-0.23371 5.09325,0.8003 11.07065,2.29779 10.35512,2.59422 10.868,2.80785 10.868,4.52678 z m 5.41217,5.21335 c 0,0.35885 1.70596,9.37785 2.18603,11.55691 -7.82865,-0.76219 -27.58808,1.99449 -38.24965,0.77925 0.01,-0.32143 0.54296,-3.03908 1.18519,-6.03919 0.64223,-3.00014 1.17557,-5.71777 1.18519,-6.03922 0.0178,-0.59579 33.69324,-0.85341 33.69324,-0.25775 z"
       id="path5207"
       inkscape:connector-curvature="0"
       sodipodi:nodetypes="cscssssssccscsscsccccscsscssssssssccssccsccscscssssscsscccscscsccscccccscccssscssscssssscssssscccsssssccscs" />
    <path
       sodipodi:nodetypes="ccscsc"
       inkscape:export-ydpi="90"
       inkscape:export-xdpi="90"
       inkscape:transform-center-y="-8.8388279"
       inkscape:transform-center-x="601.04081"
       inkscape:connector-curvature="0"
       id="path4688-0-3"
       d="m 172.96332,190.74778 c 0.75693,4.49264 1.55962,7.22592 1.55962,7.22592 -13.40196,24.28142 1.62985,57.47475 -27.07662,58.15401 -30.58976,0.72383 -12.8069,-31.16187 -29.11038,-56.98279 0.59648,-2.68024 -0.86898,-7.87214 1.78116,-7.89721 z"
       style="fill:#000000;stroke:none;stroke-width:0.282223"
       inkscape:export-filename="/Users/ingmarkappel/Desktop/tooth menu.png" />
    <path
       id="path4688-0-0"
       style="fill:#91d8ff;fill-opacity:1;stroke:#000000;stroke-width:1;stroke-miterlimit:4;stroke-dasharray:none;stroke-opacity:1"
       inkscape:transform-center-x="601.04081"
       inkscape:transform-center-y="-8.8388279"
       d="m 178.29507,201.74959 c -11.67188,25.44487 2.5346,56.75317 -30.91026,57.43732 -35.23657,0.72082 -18.95742,-28.58284 -32.35668,-54.98786 -1.75141,3.49338 -2.92144,6.40383 -4.07727,9.97355 -3.88422,11.99639 -4.36993,19.97913 -1.89704,31.17691 1.70795,7.73405 5.26587,17.08748 6.88227,18.09295 0.91694,0.5704 6.19945,1.36815 14.87403,2.24586 6.94111,0.70231 22.97777,0.80036 29.87466,0.18294 7.93479,-0.71036 16.31097,-1.84962 17.27905,-2.35025 0.50264,-0.2599 1.12611,-0.92265 1.38544,-1.47278 0.25931,-0.55011 0.67658,-1.39897 0.92759,-1.88619 1.87816,-3.64581 4.65298,-12.47354 5.67408,-18.05212 1.34268,-7.3355 0.64562,-16.84568 -1.86966,-25.51163 -0.67578,-2.32832 -1.30366,-4.6203 -1.39526,-5.09271 -0.32515,-1.67705 -2.38132,-6.20842 -4.39095,-9.75599 z"
       sodipodi:nodetypes="csccsssssscsssc" />
  </g>
</svg>
