<?xml version="1.0" encoding="UTF-8" standalone="no"?>
<svg
   xmlns:dc="http://purl.org/dc/elements/1.1/"
   xmlns:cc="http://creativecommons.org/ns#"
   xmlns:rdf="http://www.w3.org/1999/02/22-rdf-syntax-ns#"
   xmlns:svg="http://www.w3.org/2000/svg"
   xmlns="http://www.w3.org/2000/svg"
   xmlns:sodipodi="http://sodipodi.sourceforge.net/DTD/sodipodi-0.dtd"
   xmlns:inkscape="http://www.inkscape.org/namespaces/inkscape"
   width="118.76951mm"
   height="165.64551mm"
   viewBox="0 0 118.76951 165.64551"
   version="1.1"
   id="svg4820"
   inkscape:version="1.0 (4035a4f, 2020-05-01)"
   sodipodi:docname="38-36_46-48.svg">
  <defs
     id="defs4814" />
  <sodipodi:namedview
     id="base"
     pagecolor="#ffffff"
     bordercolor="#666666"
     borderopacity="1.0"
     inkscape:pageopacity="0.0"
     inkscape:pageshadow="2"
     inkscape:zoom="0.66402228"
     inkscape:cx="362.00345"
     inkscape:cy="406.71467"
     inkscape:document-units="mm"
     inkscape:current-layer="layer1"
     inkscape:document-rotation="0"
     showgrid="false"
     fit-margin-top="0"
     fit-margin-left="0"
     fit-margin-right="0"
     fit-margin-bottom="0"
     inkscape:window-width="1248"
     inkscape:window-height="943"
     inkscape:window-x="182"
     inkscape:window-y="70"
     inkscape:window-maximized="0" />
  <metadata
     id="metadata4817">
    <rdf:RDF>
      <cc:Work
         rdf:about="">
        <dc:format>image/svg+xml</dc:format>
        <dc:type
           rdf:resource="http://purl.org/dc/dcmitype/StillImage" />
        <dc:title />
      </cc:Work>
    </rdf:RDF>
  </metadata>
  <g
     inkscape:label="Ebene 1"
     inkscape:groupmode="layer"
     id="layer1"
     transform="translate(-79.150437,-123.56006)">
    <path
       sodipodi:nodetypes="csssssssscsscssssccsccsssscssssssssssscssccssscssssssssccsssscscssccccsssccsscsssscssssscscssscccssssscsssss"
       inkscape:connector-curvature="0"
       id="path5207"
       d="m 148.49727,286.54048 c 1.73715,-1.46579 4.01778,-2.66508 5.06804,-2.66508 2.53019,0 4.61792,-1.75229 5.38074,-4.51621 0.78347,-2.83869 -0.78812,-5.22727 -3.8405,-5.83692 -3.30456,-0.66003 -3.24744,-3.35297 0.0712,-3.35297 3.34853,0 7.13282,-3.18419 7.13282,-6.00173 0,-2.31662 -3.63503,-5.42003 -6.34851,-5.42003 -0.71842,0 -1.30623,-0.68531 -1.30623,-1.5229 0,-1.26542 0.6379,-1.52289 3.77311,-1.52289 2.81433,0 4.15161,-0.43005 5.26263,-1.69233 3.1676,-3.5989 0.97233,-8.40307 -4.2172,-9.22902 -2.14744,-0.34179 -2.90486,-0.88649 -2.90486,-2.08901 0,-1.43228 0.38249,-1.5696 3.20026,-1.14891 4.43326,0.66184 8.28184,-1.73946 8.28184,-5.16745 0,-3.20516 -1.61523,-4.7888 -5.71832,-5.60646 -3.2324,-0.64415 -3.31861,-0.75826 -3.057,-4.04566 0.41652,-5.23386 0.94242,-6.04788 3.90729,-6.04788 3.52755,0 5.4921,-1.88166 6.77026,-6.48463 4.66781,-10.93715 14.06428,-8.83978 16.88671,-21.43571 0,-0.35251 -18.201,8.35491 -41.09342,8.35491 -22.89242,0 -53.264309,-5.54701 -53.264309,-5.21234 5.01214,10.07973 2.999787,2.77291 14.355419,18.42023 1.14699,4.28336 2.99307,6.07821 6.66366,6.47847 3.25081,0.3545 3.87177,2.92486 0.70662,2.92486 -3.20619,0 -5.48109,2.27745 -5.48109,5.48724 0,3.07769 1.53561,4.38799 5.98615,5.10804 2.22721,0.36032 3.19018,0.97808 3.40964,2.18721 0.16819,0.92679 -0.17437,1.68508 -0.76111,1.68508 -2.18749,0 -5.76416,3.73994 -5.76416,6.02733 0,2.70698 3.18834,5.39442 6.39989,5.39442 1.21641,0 2.21168,0.31462 2.21168,0.69917 0,0.38455 0.26141,1.24118 0.58084,1.90364 0.3741,0.7758 0.0583,1.20444 -0.88741,1.20444 -1.96306,0 -5.43449,3.60533 -5.43449,5.64414 0,2.45976 2.52737,4.83517 5.74229,5.39709 3.44708,0.60252 3.96141,3.2787 0.92056,4.78996 -2.46621,1.22564 -4.06751,4.51314 -3.33288,6.84241 0.34301,1.08758 1.8255,2.2121 3.76752,2.85783 2.48808,0.82732 3.33898,1.64587 3.81656,3.67174 0.33796,1.43388 1.73923,3.5021 3.11387,4.59603 2.25,1.79052 3.21496,1.98897 9.67143,1.98897 6.95715,0 7.26672,-0.0799 10.33053,-2.66508 z m -15.32091,-0.36544 c -2.46053,-0.74445 -5.20433,-4.16296 -4.06745,-5.06767 0.32982,-0.26249 4.49749,0.12524 9.26146,0.86161 7.45519,1.15236 8.49755,1.49634 7.48287,2.46927 -2.43788,2.33763 -8.11869,3.11592 -12.67688,1.73679 z m 2.9853,-7.56911 c -7.27673,-1.18694 -13.67056,-2.50828 -14.20847,-2.93636 -1.42194,-1.13158 0.008,-3.97737 1.9978,-3.97737 3.15972,0 30.1442,4.58027 31.00088,5.262 0.46741,0.37196 0.56275,1.3961 0.21189,2.27585 -0.83672,2.09792 -2.68657,2.03716 -19.0021,-0.62412 z m -0.16531,-8.28984 c -7.7052,-1.21033 -8.6455,-1.54009 -8.93362,-3.13319 -0.27597,-1.52526 0,-1.71846 1.91367,-1.34768 1.22965,0.23806 6.2186,1.03439 11.08653,1.76965 8.14383,1.23003 8.85078,1.47822 8.85078,3.1073 0,1.449 -0.39092,1.6966 -2.15289,1.36356 -1.18408,-0.22382 -6.02811,-1.01565 -10.76447,-1.75964 z m 3.27174,-5.84674 c -22.71355,-3.61691 -20.97333,-3.17055 -20.97333,-5.37949 0,-1.05215 0.60472,-2.09768 1.34387,-2.32338 1.54258,-0.47109 36.97776,4.94233 38.24717,5.84301 0.97348,0.69071 -0.0205,4.514 -1.17358,4.514 -0.42713,0 -8.27699,-1.19435 -17.44413,-2.65414 z m -3.43024,-8.80617 c -8.45585,-1.32358 -10.77867,-1.96108 -11.13883,-3.05713 -0.25024,-0.76166 -0.27933,-1.52469 -0.0643,-1.69563 0.21487,-0.17093 6.08846,0.59408 13.05254,1.70002 11.67548,1.85416 12.68704,2.14961 12.98402,3.79233 0.2756,1.52445 -5.3e-4,1.72028 -1.91367,1.3571 -1.22968,-0.23342 -7.04345,-1.17693 -12.91952,-2.09669 z m 0.1585,-6.28689 c -19.05059,-3.02694 -20.1103,-3.28617 -20.4139,-4.99376 -0.17612,-0.9906 0.0833,-2.12213 0.57625,-2.5145 0.55743,-0.4436 8.45926,0.47387 20.89234,2.42578 26.20123,4.11342 24.30161,3.67155 24.30161,5.6527 0,3.48266 0.17619,3.48663 -25.3563,-0.57022 z m 2.78415,-7.78852 c -6.79391,-1.06192 -13.32137,-2.09642 -14.50549,-2.29886 -2.10382,-0.35971 -3.21605,-3.38487 -1.24442,-3.38487 1.40825,0 30.04418,4.58043 30.39844,4.86235 0.51799,0.41221 -0.83755,2.75215 -1.59433,2.75215 -0.38591,0 -6.2603,-0.86886 -13.0542,-1.93077 z m -3.62545,-6.93196 c -11.51422,-1.84373 -21.3099,-3.53664 -21.76812,-3.76203 -1.27,-0.6246 -0.99289,-3.91771 0.36283,-4.31254 0.65785,-0.19157 11.96053,1.33965 25.11711,3.40271 24.84,3.89515 27.25531,4.61924 25.26755,7.57496 -1.13149,1.68247 0.977,1.89369 -28.97937,-2.9031 z m -14.94661,-12.25155 v -1.76283 l 17.90953,0.20716 17.90952,0.20716 -0.29444,3.80098 c -0.16194,2.09053 -0.43956,3.98781 -0.61692,4.21619 -0.17735,0.22837 -8.10413,-0.78202 -17.61506,-2.2453 -16.47656,-2.53496 -17.29263,-2.74371 -17.29263,-4.42336 z M 111.59686,217.31 c 0,-0.35065 -2.71444,-9.16361 -3.47829,-11.29289 -0.44812,-1.24929 1.43893,-1.33254 30.2054,-1.33254 16.87587,0 30.67086,0.25699 30.65554,0.57109 -0.0153,0.31409 -0.86393,2.96965 -1.88582,5.90123 -1.02188,2.93159 -1.8705,5.58714 -1.88581,5.90124 -0.0284,0.58219 -53.61102,0.83392 -53.61102,0.25187 z"
       style="fill:#000000;stroke-width:1.05299" />
    <path
       sodipodi:nodetypes="ccccssc"
       inkscape:export-ydpi="90"
       inkscape:export-xdpi="90"
       style="fill:#000000;stroke-width:0.282223"
       d="m 89.146782,191.35098 c 28.659758,-26.83668 9.77552,-19.83679 20.291498,-44.44539 17.88801,-4.69826 41.43919,-4.56316 55.52722,0.17569 13.07014,21.12497 -6.73196,16.68533 23.32541,44.2697 -1.3107,3.39546 -0.42598,9.81667 -3.82223,9.83611 l -89.479578,0.51227 c -3.83897,0.022 -3.819,-6.80185 -5.84232,-10.34838 z"
       id="path4275-9-3"
       inkscape:connector-curvature="0"
       inkscape:export-filename="/Users/ingmarkappel/Desktop/tooth menu_lower_jaw.png" />
    <path
       d="m 108.82331,124.06149 c -0.63585,-0.007 -1.20074,0.0119 -1.66139,0.0615 -17.619992,1.896 -27.515482,14.26575 -27.511482,34.39118 0.002,11.59793 1.72824,18.71612 7.4843,29.46228 26.859222,-24.94036 7.88116,-19.01789 19.128522,-44.24588 19.89833,-5.0094 46.09652,-4.86561 61.76781,0.18707 13.94381,21.60183 -5.73754,18.13769 22.12165,43.76219 4.52297,-8.41079 6.08822,-13.54596 6.99233,-21.93355 0.55713,-5.1685 0.21769,-13.84551 -0.6997,-17.88366 -1.74814,-7.6949 -5.4338,-13.79722 -10.74559,-17.79013 -6.08485,-4.57409 -13.69303,-6.62439 -21.42298,-5.7738 -4.64578,0.51121 -7.62316,1.38321 -14.03739,4.11137 -10.3284,4.3929 -14.5899,4.27045 -25.7359,-0.73897 -1.98391,-0.89162 -4.7524,-1.93293 -6.15259,-2.31407 -2.68659,-0.73126 -6.77224,-1.26347 -9.52759,-1.29553 z"
       style="fill:#91d8ff;stroke:#000000;stroke-width:1;stroke-miterlimit:4;stroke-dasharray:none;stroke-opacity:1;fill-opacity:1"
       id="path4275-9-6"
       sodipodi:nodetypes="cccccccsscscscc" />
  </g>
</svg>
