<?xml version="1.0" encoding="UTF-8" standalone="no"?>
<svg
   xmlns:dc="http://purl.org/dc/elements/1.1/"
   xmlns:cc="http://creativecommons.org/ns#"
   xmlns:rdf="http://www.w3.org/1999/02/22-rdf-syntax-ns#"
   xmlns:svg="http://www.w3.org/2000/svg"
   xmlns="http://www.w3.org/2000/svg"
   xmlns:sodipodi="http://sodipodi.sourceforge.net/DTD/sodipodi-0.dtd"
   xmlns:inkscape="http://www.inkscape.org/namespaces/inkscape"
   width="91.312637mm"
   height="179.39648mm"
   viewBox="0 0 91.312638 179.39649"
   version="1.1"
   id="svg5422"
   inkscape:version="1.0 (4035a4f, 2020-05-01)"
   sodipodi:docname="35,34_44,45.svg">
  <defs
     id="defs5416" />
  <sodipodi:namedview
     id="base"
     pagecolor="#ffffff"
     bordercolor="#666666"
     borderopacity="1.0"
     inkscape:pageopacity="0.0"
     inkscape:pageshadow="2"
     inkscape:zoom="0.94145434"
     inkscape:cx="272.70567"
     inkscape:cy="387.87009"
     inkscape:document-units="mm"
     inkscape:current-layer="layer1"
     inkscape:document-rotation="0"
     showgrid="false"
     fit-margin-top="0"
     fit-margin-left="0"
     fit-margin-right="0"
     fit-margin-bottom="0"
     inkscape:window-width="1248"
     inkscape:window-height="943"
     inkscape:window-x="0"
     inkscape:window-y="23"
     inkscape:window-maximized="0" />
  <metadata
     id="metadata5419">
    <rdf:RDF>
      <cc:Work
         rdf:about="">
        <dc:format>image/svg+xml</dc:format>
        <dc:type
           rdf:resource="http://purl.org/dc/dcmitype/StillImage" />
        <dc:title></dc:title>
      </cc:Work>
    </rdf:RDF>
  </metadata>
  <g
     inkscape:label="Ebene 1"
     inkscape:groupmode="layer"
     id="layer1"
     transform="translate(-117.55584,-71.978643)">
    <path
       transform="matrix(0.26458333,0,0,0.26458333,117.55584,71.978643)"
       d="M 166.48828 1.875 C 151.67789 1.8847913 137.4351 4.2892411 123.54492 9.0566406 C 90.751322 20.312214 48.386627 50.124261 28.167969 76.175781 C 6.8071373 103.69897 -1.9648522 145.58602 3.4570312 194.17578 C 6.7951506 224.0936 16.954321 253.48228 34.056641 286.35547 C 99.84377 191.25064 63.864372 158.49464 101.69727 57.304688 C 160.54795 35.890697 189.31407 28.918956 248.95898 57.042969 C 270.67717 141.85815 253.54876 194.72364 320.64453 280.83984 C 328.80321 262.92049 333.4337 245.77908 336.4668 229.02148 C 339.16965 214.08838 340.61415 199.45828 342.18945 184.84375 C 344.29507 165.30926 343.01264 132.5123 339.54492 117.25 C 333.75087 91.745385 320.46983 67.638724 306.53906 57.339844 C 294.53063 48.461552 275.41669 36.74641 259.00391 28.205078 C 225.10438 10.562908 194.76266 1.8563076 166.48828 1.875 z M 304.78516 302.25586 C 144.75819 335.27486 176.65575 319.62926 49.269531 307.17188 C 75.299441 322.53081 184.53666 377.60531 304.78516 302.25586 z "
       style="fill:#ffff00;stroke:#000000;stroke-width:3.77953;stroke-miterlimit:4;stroke-dasharray:none;stroke-opacity:1"
       id="path4706-2-0" />
    <path
       inkscape:export-filename="/Users/ingmarkappel/Desktop/tooth menu_lower_jaw.png"
       style="fill:#000000;stroke-width:0.282223"
       d="m 162.28954,251.21503 c -4.12834,-0.81352 -9.30128,-5.07647 -14.90646,-12.28402 -6.49225,-8.3483 -9.9955,-17.91404 -12.51797,-34.17993 -1.35441,-8.73338 -1.96909,-17.22841 -2.25213,-31.12571 -0.30173,-14.80789 -0.10245,-13.79742 -4.10241,-20.81389 19.21845,-27.73282 9.35449,-35.39226 18.55808,-62.561635 13.48544,-5.415835 20.07719,-7.179177 33.74462,-0.0663 5.2678,22.705645 0.55759,36.355865 19.32478,60.511255 -3.99573,7.00922 -3.80492,6.05476 -4.09109,20.46112 -0.60765,30.5864 -3.48742,46.03033 -11.50566,61.70002 -4.71594,9.21683 -10.77384,16.02751 -15.82217,17.789 -1.95131,0.68081 -4.65243,0.9203 -6.42959,0.57009 z m 4.41054,-7.62616 c 3.03335,-1.43938 7.64538,-6.96764 10.83706,-12.98989 0.71966,-1.35821 1.92531,-3.58071 2.67938,-4.93889 4.07955,-7.34994 7.22009,-22.37469 8.44353,-40.39306 0.26444,-3.89061 0.70696,-26.10889 0.52044,-26.10581 -0.009,1.4e-4 -1.59571,0.64634 -3.5278,1.43604 -4.4704,1.82704 -10.33636,3.59256 -14.62557,4.40192 -4.48847,0.84695 -12.12314,0.86631 -16.4042,0.0416 -3.65368,-0.70386 -10.31186,-2.7119 -13.14255,-3.96374 -1.06595,-0.47152 -1.95834,-0.85729 -1.98261,-0.85729 -0.21957,-2.5e-4 0.18683,22.95059 0.4809,27.16391 0.46454,6.65066 1.57198,15.81108 2.51686,20.81389 1.56831,8.30406 4.06936,16.5631 5.66194,18.69722 0.3621,0.48509 1.95834,2.86634 3.54725,5.29168 1.83558,2.80207 3.98755,5.51868 5.90212,7.4515 4.32991,4.37096 6.35457,5.25053 9.09325,3.9509 z"
       id="path4706-2-7"
       inkscape:connector-curvature="0"
       inkscape:export-xdpi="90"
       inkscape:export-ydpi="90"
       sodipodi:nodetypes="sccccccccccsccccscssccccccccc" />
  </g>
</svg>
