<?xml version="1.0" encoding="UTF-8" standalone="no"?>
<svg
   xmlns:dc="http://purl.org/dc/elements/1.1/"
   xmlns:cc="http://creativecommons.org/ns#"
   xmlns:rdf="http://www.w3.org/1999/02/22-rdf-syntax-ns#"
   xmlns:svg="http://www.w3.org/2000/svg"
   xmlns="http://www.w3.org/2000/svg"
   xmlns:sodipodi="http://sodipodi.sourceforge.net/DTD/sodipodi-0.dtd"
   xmlns:inkscape="http://www.inkscape.org/namespaces/inkscape"
   sodipodi:docname="13_23.svg"
   inkscape:version="1.0 (4035a4f, 2020-05-01)"
   id="svg3014"
   version="1.1"
   viewBox="0 0 91.271713 189.65314"
   height="189.65314mm"
   width="91.271713mm">
  <defs
     id="defs3008" />
  <sodipodi:namedview
     inkscape:window-maximized="0"
     inkscape:window-y="23"
     inkscape:window-x="0"
     inkscape:window-height="943"
     inkscape:window-width="1248"
     fit-margin-bottom="0"
     fit-margin-right="0"
     fit-margin-left="0"
     fit-margin-top="0"
     showgrid="false"
     inkscape:document-rotation="0"
     inkscape:current-layer="layer1"
     inkscape:document-units="mm"
     inkscape:cy="355.47436"
     inkscape:cx="91.933543"
     inkscape:zoom="0.78044804"
     inkscape:pageshadow="2"
     inkscape:pageopacity="0.0"
     borderopacity="1.0"
     bordercolor="#666666"
     pagecolor="#ffffff"
     id="base" />
  <metadata
     id="metadata3011">
    <rdf:RDF>
      <cc:Work
         rdf:about="">
        <dc:format>image/svg+xml</dc:format>
        <dc:type
           rdf:resource="http://purl.org/dc/dcmitype/StillImage" />
        <dc:title />
      </cc:Work>
    </rdf:RDF>
  </metadata>
  <g
     transform="translate(-104.79807,-22.599701)"
     id="layer1"
     inkscape:groupmode="layer"
     inkscape:label="Ebene 1">
    <path
       id="path4590-5-0"
       style="fill:#91d8ff;stroke:#000000;stroke-width:3.77953;stroke-miterlimit:4;stroke-dasharray:none;stroke-opacity:1;fill-opacity:1"
       d="M 321.41211,447.68359 C 267.84756,589.03845 340.84238,673.84428 182.47461,674.41602 8.9538127,675.04246 92.71642,588.32995 21.201172,452.16016 8.8368827,477.22844 3.9831326,495.48356 1.0214844,522.95898 c -2.1056126,19.53453 -0.8232987,52.32954 2.6445312,67.5918 6.1536,27.0864 18.3679184,48.37471 36.6367184,63.84961 35.0911,29.72523 67.686666,48.15291 100.494146,56.81445 17.5488,4.6331 42.42043,4.90741 58.09179,0.64063 32.46304,-8.83873 63.78145,-28.01627 95.69922,-58.60156 22.87264,-21.91722 31.13378,-33.91763 38.47461,-55.89063 9.48915,-28.40523 10.71883,-68.96492 3.22656,-106.33398 -2.88471,-14.38717 -7.20409,-27.29004 -14.87695,-43.34571 z"
       transform="matrix(0.26458333,0,0,0.26458333,105.30272,22.599701)" />
    <path
       inkscape:export-filename="/Users/ingmarkappel/Desktop/tooth menu.png"
       style="fill:#000000;stroke-width:0.282223"
       d="m 154.31992,22.998693 c 4.36736,1.677811 8.80841,6.634564 12.45726,13.903254 5.29056,10.539419 10.86586,29.611261 13.21875,45.218177 1.22792,8.144481 1.84345,16.972026 2.11582,30.338856 0.30167,14.80786 0.10245,13.7974 4.10235,20.81389 -16.483,39.23538 3.93094,63.05299 -33.15912,63.20439 -40.37101,0.16479 -17.63602,-23.8872 -38.46831,-61.08772 3.99743,-7.01224 3.80238,-6.03067 4.09787,-20.6375 0.35676,-17.628051 1.31036,-28.107046 3.51988,-38.674547 0.58307,-2.788441 1.29342,-6.573406 1.57846,-8.411069 1.21356,-7.824891 4.86608,-20.278539 8.05999,-27.482177 2.48779,-5.610916 4.92929,-9.396419 8.12546,-12.598427 3.73944,-3.74619 5.90973,-4.815755 10.07928,-4.967393 1.95524,-0.07109 3.44173,0.06121 4.27231,0.380266 z m -6.21259,7.389508 c -6.07935,2.843587 -12.89755,17.240504 -16.39626,34.622232 -0.42954,2.134275 -1.2367,5.864886 -1.7938,8.290248 -2.92862,12.750038 -4.16193,25.154379 -4.30587,43.303669 -0.0452,5.67546 -0.0754,10.31889 -0.0672,10.31875 0.008,-1.2e-4 1.59569,-0.64635 3.52778,-1.43604 4.4704,-1.82705 10.33639,-3.59254 14.6256,-4.4019 4.48846,-0.84698 12.12314,-0.86634 16.40419,-0.0417 3.65363,0.70386 10.31181,2.71193 13.1425,3.96379 1.06595,0.47148 1.95834,0.85727 1.98261,0.85727 0.28871,0 -0.26388,-24.4405 -0.66604,-29.456969 -0.60167,-7.506061 -1.94957,-17.254891 -2.97519,-21.51941 -2.84847,-11.842269 -6.29158,-23.150603 -9.07147,-29.792449 -3.92116,-9.369269 -8.63938,-15.506558 -11.93743,-15.528007 -0.38806,-0.0028 -1.49945,0.366691 -2.46945,0.820476 z"
       id="path4590-5"
       inkscape:connector-curvature="0"
       inkscape:export-xdpi="90"
       inkscape:export-ydpi="90"
       sodipodi:nodetypes="cccccsccccccccccccsccccscccccc" />
  </g>
</svg>
