<?xml version="1.0" encoding="UTF-8" standalone="no"?>
<svg
   xmlns:dc="http://purl.org/dc/elements/1.1/"
   xmlns:cc="http://creativecommons.org/ns#"
   xmlns:rdf="http://www.w3.org/1999/02/22-rdf-syntax-ns#"
   xmlns:svg="http://www.w3.org/2000/svg"
   xmlns="http://www.w3.org/2000/svg"
   xmlns:sodipodi="http://sodipodi.sourceforge.net/DTD/sodipodi-0.dtd"
   xmlns:inkscape="http://www.inkscape.org/namespaces/inkscape"
   sodipodi:docname="all.svg"
   inkscape:version="1.0 (4035a4f, 2020-05-01)"
   id="svg6626"
   version="1.1"
   viewBox="0 0 57.873219 125.4151"
   height="125.4151mm"
   width="57.873219mm">
  <defs
     id="defs6620" />
  <sodipodi:namedview
     inkscape:window-maximized="0"
     inkscape:window-y="23"
     inkscape:window-x="0"
     inkscape:window-height="943"
     inkscape:window-width="1248"
     fit-margin-bottom="0"
     fit-margin-right="0"
     fit-margin-left="0"
     fit-margin-top="0"
     showgrid="false"
     inkscape:document-rotation="0"
     inkscape:current-layer="layer1"
     inkscape:document-units="mm"
     inkscape:cy="146.27856"
     inkscape:cx="123.05824"
     inkscape:zoom="1.1017978"
     inkscape:pageshadow="2"
     inkscape:pageopacity="0.0"
     borderopacity="1.0"
     bordercolor="#666666"
     pagecolor="#ffffff"
     id="base" />
  <metadata
     id="metadata6623">
    <rdf:RDF>
      <cc:Work
         rdf:about="">
        <dc:format>image/svg+xml</dc:format>
        <dc:type
           rdf:resource="http://purl.org/dc/dcmitype/StillImage" />
        <dc:title></dc:title>
      </cc:Work>
    </rdf:RDF>
  </metadata>
  <g
     transform="translate(-122.9472,-140.62689)"
     id="layer1"
     inkscape:groupmode="layer"
     inkscape:label="Ebene 1">
    <path
       style="fill:#000000;stroke-width:0.83796"
       d="m 158.75454,263.34831 c 1.08842,-1.48153 2.51736,-2.69369 3.17541,-2.69369 1.5853,0 2.89338,-1.7711 3.37133,-4.56467 0.49089,-2.86916 -0.4938,-5.28337 -2.40628,-5.89958 -2.07049,-0.6671 -2.0347,-3.38895 0.0446,-3.38895 2.09804,0 4.4691,-3.21836 4.4691,-6.06614 0,-2.34148 -2.27754,-5.4782 -3.97769,-5.4782 -0.45013,0 -0.81842,-0.69266 -0.81842,-1.53925 0,-1.279 0.39967,-1.53923 2.36406,-1.53923 1.76333,0 2.60121,-0.43467 3.29733,-1.71049 1.98467,-3.63753 0.60921,-8.49326 -2.64231,-9.32808 -1.34549,-0.34545 -1.82006,-0.896 -1.82006,-2.11143 0,-1.44764 0.23965,-1.58644 2.00514,-1.16124 2.77768,0.66895 5.18903,-1.75812 5.18903,-5.2229 0,-3.23957 -1.01203,-4.8402 -3.58284,-5.66663 -2.02528,-0.65107 -2.07929,-0.7664 -1.91538,-4.08909 0.26097,-5.29003 0.59048,-6.11279 2.44813,-6.11279 2.21021,0 3.44111,-1.90185 4.24194,-6.55422 1.60664,-9.33347 1.67152,-12.66944 4.22186,-13.65035 1.30899,-0.50347 2.06342,-1.84001 2.06342,-2.1963 0,-0.3563 -11.41893,5.80614 -25.7623,5.80614 -9.60703,1.65902 -30.19073,-7.40032 -23.99458,-3.62326 2.20621,1.02412 2.43777,4.82531 3.92619,13.79222 0.71866,4.32934 1.87533,6.14345 4.17516,6.54801 2.03681,0.3583 2.42587,2.95625 0.44273,2.95625 -2.00885,0 -3.4342,2.30189 -3.4342,5.54613 0,3.11072 0.96215,4.43508 3.75065,5.16286 1.39548,0.36419 1.99882,0.98858 2.13633,2.21068 0.10538,0.93674 -0.10926,1.70317 -0.47688,1.70317 -1.37058,0 -3.61156,3.78008 -3.61156,6.09202 0,2.73603 1.99767,5.45231 4.00988,5.45231 0.76215,0 1.38574,0.318 1.38574,0.70668 0,0.38867 0.16379,1.2545 0.36393,1.92406 0.23439,0.78413 0.0365,1.21738 -0.55601,1.21738 -1.22997,0 -3.40501,3.64401 -3.40501,5.70471 0,2.48616 1.58354,4.88707 3.59786,5.45502 2.15979,0.60898 2.48204,3.31388 0.57678,4.84136 -1.54522,1.2388 -2.54852,4.56158 -2.08823,6.91585 0.21491,1.09925 1.14377,2.23584 2.36056,2.8885 1.55892,0.8362 2.09205,1.66354 2.39128,3.71114 0.21175,1.44928 1.08973,3.5397 1.95101,4.64537 1.40975,1.80973 2.01435,2.01031 6.05969,2.01031 4.35904,0 4.553,-0.0807 6.47265,-2.69368 z m -9.59939,-0.36936 c -1.54166,-0.75245 -3.2608,-4.20764 -2.54848,-5.12206 0.20665,-0.26531 2.81792,0.12658 5.80281,0.87085 4.67109,1.16473 5.32419,1.5124 4.68843,2.49578 -1.52746,2.36271 -5.0868,3.14936 -7.94276,1.75543 z m 1.87045,-7.65035 c -4.55927,-1.19968 -8.56536,-2.5352 -8.90239,-2.96787 -0.89092,-1.14373 0.005,-4.02007 1.25173,-4.02007 1.97974,0 18.88701,4.62943 19.42377,5.31849 0.29286,0.37595 0.35259,1.41108 0.13276,2.30027 -0.52425,2.12043 -1.68329,2.05902 -11.90587,-0.63082 z m -0.10357,-8.37881 c -4.82774,-1.22332 -5.41689,-1.55662 -5.59741,-3.16682 -0.17291,-1.54163 0,-1.7369 1.19902,-1.36214 0.77044,0.24061 3.8963,1.04549 6.94632,1.78864 5.10256,1.24323 5.54551,1.49409 5.54551,3.14065 0,1.46456 -0.24494,1.71481 -1.34891,1.37819 -0.74189,-0.22622 -3.77694,-1.02655 -6.74453,-1.77852 z m 2.04992,-5.90949 c -14.23129,-3.65573 -13.14095,-3.20458 -13.14095,-5.43723 0,-1.06344 0.37889,-2.12019 0.84201,-2.34831 0.96651,-0.47615 23.16861,4.99538 23.96397,5.90572 0.60994,0.69812 -0.0128,4.56245 -0.73532,4.56245 -0.26762,0 -5.18599,-1.20718 -10.92971,-2.68263 z m -2.14923,-8.90068 c -5.29806,-1.33779 -6.75343,-1.98213 -6.97909,-3.08994 -0.15679,-0.76984 -0.17502,-1.54106 -0.0403,-1.71383 0.13463,-0.17277 3.81475,0.60046 8.17814,1.71827 7.31533,1.87406 7.94913,2.17267 8.1352,3.83303 0.17268,1.54081 -3.3e-4,1.73874 -1.19902,1.37166 -0.77046,-0.23592 -4.41311,-1.18956 -8.09479,-2.11919 z m 0.0993,-6.35437 c -11.93625,-3.05943 -12.60022,-3.32143 -12.79044,-5.04735 -0.11035,-1.00124 0.0522,-2.14491 0.36105,-2.54149 0.34926,-0.44836 5.3002,0.47895 13.09021,2.45182 16.41652,4.15756 15.2263,3.71095 15.2263,5.71336 0,3.52004 0.11039,3.52405 -15.88712,-0.57634 z m 1.74442,-7.87211 c -4.25676,-1.07331 -8.34657,-2.11891 -9.08849,-2.32353 -1.31816,-0.36357 -2.01503,-3.4212 -0.7797,-3.4212 0.88235,0 18.82434,4.6296 19.0463,4.91454 0.32455,0.41664 -0.52477,2.78169 -0.99893,2.78169 -0.2418,0 -3.92243,-0.87819 -8.17918,-1.9515 z m -2.27154,-7.00636 c -7.2143,-1.86352 -13.35183,-3.5746 -13.63893,-3.80241 -0.79572,-0.63129 -0.6221,-3.95975 0.22734,-4.35882 0.41217,-0.19363 7.49392,1.35403 15.73725,3.43924 15.56363,3.93695 17.07695,4.66881 15.83151,7.65625 -0.70894,1.70053 0.61215,1.91401 -18.15717,-2.93426 z m -9.36488,-12.38304 V 196.742 l 11.22131,0.20938 11.2213,0.20939 -0.18448,3.84176 c -0.10146,2.11297 -0.27541,4.03062 -0.38653,4.26144 -0.11112,0.23083 -5.07769,-0.79041 -11.03681,-2.26939 -10.32348,-2.56217 -10.83479,-2.77316 -10.83479,-4.47084 z m -5.39563,-5.14893 c 0,-0.35441 -1.70075,-9.26196 -2.17934,-11.41409 -0.28077,-1.2627 0.90157,-1.34684 18.92535,-1.34684 10.57366,0 19.21699,0.25974 19.20739,0.57722 -0.01,0.31746 -0.5413,3.00152 -1.18157,5.96457 -0.64027,2.96305 -1.17197,5.6471 -1.18157,5.96457 -0.0178,0.58843 -33.59026,0.84287 -33.59026,0.25457 z"
       id="path5207"
       inkscape:connector-curvature="0"
       sodipodi:nodetypes="csssssssscssssssscsscccsssssssssssssssscssccssscssssssssccsssssscssscscsssccssccssscssssscssssscccssssscscsss" />
    <rect
       style="fill:#000000;stroke-width:0.927746;stroke-linejoin:round;paint-order:stroke markers fill"
       id="rect840"
       width="57.873219"
       height="15.128683"
       x="122.9472"
       y="165.60979"
       ry="2.1185188" />
    <ellipse
       style="fill:#000000;stroke-width:1;stroke-linejoin:round;paint-order:stroke markers fill"
       id="path842"
       cx="151.955"
       cy="155.2753"
       rx="15.128683"
       ry="14.648407" />
  </g>
</svg>
