<?xml version="1.0" encoding="UTF-8" standalone="no"?>
<svg
   xmlns:dc="http://purl.org/dc/elements/1.1/"
   xmlns:cc="http://creativecommons.org/ns#"
   xmlns:rdf="http://www.w3.org/1999/02/22-rdf-syntax-ns#"
   xmlns:svg="http://www.w3.org/2000/svg"
   xmlns="http://www.w3.org/2000/svg"
   xmlns:sodipodi="http://sodipodi.sourceforge.net/DTD/sodipodi-0.dtd"
   xmlns:inkscape="http://www.inkscape.org/namespaces/inkscape"
   sodipodi:docname="38-36_46-48.svg"
   inkscape:version="1.0 (4035a4f, 2020-05-01)"
   id="svg4820"
   version="1.1"
   viewBox="0 0 118.76968 158.31621"
   height="158.31621mm"
   width="118.76968mm">
  <defs
     id="defs4814" />
  <sodipodi:namedview
     inkscape:window-maximized="0"
     inkscape:window-y="23"
     inkscape:window-x="0"
     inkscape:window-height="943"
     inkscape:window-width="1248"
     fit-margin-bottom="0"
     fit-margin-right="0"
     fit-margin-left="0"
     fit-margin-top="0"
     showgrid="false"
     inkscape:document-rotation="0"
     inkscape:current-layer="layer1"
     inkscape:document-units="mm"
     inkscape:cy="4.4478205"
     inkscape:cx="425.20952"
     inkscape:zoom="0.54010193"
     inkscape:pageshadow="2"
     inkscape:pageopacity="0.0"
     borderopacity="1.0"
     bordercolor="#666666"
     pagecolor="#ffffff"
     id="base" />
  <metadata
     id="metadata4817">
    <rdf:RDF>
      <cc:Work
         rdf:about="">
        <dc:format>image/svg+xml</dc:format>
        <dc:type
           rdf:resource="http://purl.org/dc/dcmitype/StillImage" />
        <dc:title></dc:title>
      </cc:Work>
    </rdf:RDF>
  </metadata>
  <g
     transform="translate(-78.956842,-130.74497)"
     id="layer1"
     inkscape:groupmode="layer"
     inkscape:label="Ebene 1">
    <path
       transform="matrix(0.26458333,0,0,0.26458333,78.956842,130.74497)"
       d="M 112.15039 1.9082031 C 109.74718 1.8802395 107.61213 1.9532904 105.87109 2.140625 C 39.275792 9.3066093 1.8755069 56.05843 1.890625 132.12305 C 1.8987669 175.95776 8.4225518 202.86115 30.177734 243.47656 C 131.693 149.21377 59.964785 171.5979 102.47461 76.248047 C 177.6809 57.314882 276.69766 57.858335 335.92773 76.955078 C 388.62875 158.59978 314.24256 145.50696 419.53711 242.35547 C 436.63183 210.56664 442.5477 191.15814 445.96484 159.45703 C 448.07053 139.92251 446.78761 107.12753 443.32031 91.865234 C 436.71313 62.782148 422.78309 39.718267 402.70703 24.626953 C 379.70917 7.3390539 350.95384 -0.41014085 321.73828 2.8046875 C 304.17943 4.7368198 292.92635 8.0325941 268.68359 18.34375 C 229.64712 34.946837 213.54068 34.484022 171.41406 15.550781 C 163.91582 12.180879 153.45221 8.2452166 148.16016 6.8046875 C 138.00612 4.0408773 122.56429 2.0293788 112.15039 1.9082031 z M 406.33008 257.37695 C 211.50183 271.35181 161.47969 267.75172 41.693359 257.45312 C 198.5833 304.07433 262.52052 289.84395 406.33008 257.37695 z "
       style="fill:#ffff00;stroke:#000000;stroke-width:3.77953;stroke-miterlimit:4;stroke-dasharray:none;stroke-opacity:1"
       id="path4275-9-6" />
    <path
       inkscape:export-filename="/Users/ingmarkappel/Desktop/tooth menu_lower_jaw.png"
       inkscape:connector-curvature="0"
       id="path4275-9"
       d="m 113.685,288.91605 c -2.07995,-0.38964 -6.59384,-4.5842 -9.02786,-8.38917 -5.469806,-8.55071 -9.253672,-23.07678 -10.934136,-41.97576 -0.310529,-3.4925 -0.682695,-12.14436 -0.826967,-19.22636 -0.301724,-14.80786 -0.10256,-13.79739 -4.102354,-20.81392 28.659757,-26.83668 9.775527,-19.83679 20.291497,-44.44539 17.88801,-4.69826 41.43919,-4.56316 55.52722,0.17569 13.07014,21.12497 -6.73196,16.68533 23.32541,44.2697 -3.99568,7.00922 -3.80484,6.0548 -4.09104,20.46111 -0.26453,13.31584 -0.64674,19.42655 -1.76533,28.22226 -1.74834,13.74772 -4.97749,24.947 -9.29445,32.23482 -1.7561,2.96458 -5.41858,6.99965 -7.38767,8.13921 -4.60223,2.66339 -8.51823,1.54423 -10.79763,-3.0859 -0.97347,-1.97739 -1.16764,-2.92953 -1.78023,-8.7295 -1.97812,-18.72847 -5.67267,-35.33623 -9.84537,-44.25724 -3.78754,-8.0975 -7.1586,-6.65461 -11.12664,4.7625 -3.44424,9.90989 -6.29133,23.99639 -7.91442,39.15833 -0.38427,3.58952 -0.97059,7.30944 -1.30296,8.26645 -1.32992,3.82945 -4.99542,5.97341 -8.94707,5.23317 z m 2.24299,-7.76699 c 0.10318,-0.33954 0.59637,-4.07046 1.09595,-8.29092 4.07428,-34.41796 11.70466,-53.57201 21.32288,-53.52567 10.28401,0.0496 18.18536,21.37322 22.09732,59.63471 0.28462,2.78367 0.53518,3.073 1.85034,2.13653 4.12865,-2.93988 7.96535,-10.72893 10.44724,-21.20953 2.73646,-11.55548 4.08285,-25.12207 4.08864,-41.19815 0.003,-5.37803 0.16507,-10.79063 0.36254,-12.02798 0.19747,-1.23734 0.30441,-2.30431 0.23763,-2.37111 -0.0668,-0.0668 -1.77963,0.35986 -3.8063,0.94812 -13.45082,3.90412 -25.14704,5.73843 -36.66961,5.75093 -10.98722,0.0118 -21.10221,-1.55276 -33.63674,-5.20308 l -4.179822,-1.21728 0.247311,0.93636 c 0.136003,0.51503 0.302288,5.69885 0.369486,11.51969 0.186125,16.11912 1.182425,27.50696 3.361185,38.41843 2.46905,12.3652 5.55616,19.95003 9.88545,24.28781 2.15849,2.16279 2.62915,2.38972 2.9265,1.41114 z"
       style="fill:#000000;stroke-width:0.282223"
       inkscape:export-xdpi="90"
       inkscape:export-ydpi="90"
       sodipodi:nodetypes="scscccccssssssccscssccscscssccccccscs" />
  </g>
</svg>
