<?xml version="1.0" standalone="no"?>
<!DOCTYPE svg PUBLIC "-//W3C//DTD SVG 20010904//EN"
 "http://www.w3.org/TR/2001/REC-SVG-20010904/DTD/svg10.dtd">
<svg version="1.0" xmlns="http://www.w3.org/2000/svg"
 width="290.000000pt" height="289.000000pt" viewBox="0 0 290.000000 289.000000"
 preserveAspectRatio="xMidYMid meet">

<g transform="translate(0.000000,289.000000) scale(0.100000,-0.100000)"
fill="#000000" stroke="none">
<path d="M1552 2578 c-336 -686 -372 -762 -367 -779 4 -11 70 -148 147 -306
77 -159 184 -378 237 -488 54 -110 142 -291 196 -403 l98 -202 444 0 c243 0
443 2 443 4 0 5 -108 229 -265 551 -59 121 -149 306 -200 410 -468 961 -654
1335 -664 1335 -5 0 -36 -55 -69 -122z m240 -575 c88 -181 189 -386 223 -458
35 -71 104 -215 155 -320 51 -104 116 -241 146 -303 30 -62 81 -167 114 -232
l60 -120 -261 0 -260 0 -153 313 c-85 171 -176 359 -204 417 -27 58 -93 194
-146 302 -53 108 -96 202 -96 208 0 15 247 520 255 520 3 0 78 -147 167 -327z"/>
<path d="M727 710 c-75 -154 -137 -285 -137 -290 0 -6 102 -10 285 -10 157 0
285 2 285 4 0 13 -281 576 -288 576 -5 0 -70 -126 -145 -280z"/>
</g>
</svg>
