<?xml version="1.0" encoding="UTF-8" standalone="no"?>
<svg
   xmlns:dc="http://purl.org/dc/elements/1.1/"
   xmlns:cc="http://creativecommons.org/ns#"
   xmlns:rdf="http://www.w3.org/1999/02/22-rdf-syntax-ns#"
   xmlns:svg="http://www.w3.org/2000/svg"
   xmlns="http://www.w3.org/2000/svg"
   xmlns:sodipodi="http://sodipodi.sourceforge.net/DTD/sodipodi-0.dtd"
   xmlns:inkscape="http://www.inkscape.org/namespaces/inkscape"
   sodipodi:docname="18-16_26-28.svg"
   inkscape:version="1.0 (4035a4f, 2020-05-01)"
   id="svg1190"
   version="1.1"
   viewBox="0 0 118.76972 156.86178"
   height="156.86179mm"
   width="118.76971mm">
  <defs
     id="defs1184" />
  <sodipodi:namedview
     inkscape:window-maximized="0"
     inkscape:window-y="23"
     inkscape:window-x="0"
     inkscape:window-height="943"
     inkscape:window-width="1248"
     fit-margin-bottom="0"
     fit-margin-right="0"
     fit-margin-left="0"
     fit-margin-top="0"
     showgrid="false"
     inkscape:document-rotation="0"
     inkscape:current-layer="layer1"
     inkscape:document-units="mm"
     inkscape:cy="560.51405"
     inkscape:cx="138.91251"
     inkscape:zoom="0.49832969"
     inkscape:pageshadow="2"
     inkscape:pageopacity="0.0"
     borderopacity="1.0"
     bordercolor="#666666"
     pagecolor="#ffffff"
     id="base" />
  <metadata
     id="metadata1187">
    <rdf:RDF>
      <cc:Work
         rdf:about="">
        <dc:format>image/svg+xml</dc:format>
        <dc:type
           rdf:resource="http://purl.org/dc/dcmitype/StillImage" />
        <dc:title />
      </cc:Work>
    </rdf:RDF>
  </metadata>
  <g
     transform="translate(-52.493695,-42.0002)"
     id="layer1"
     inkscape:groupmode="layer"
     inkscape:label="Ebene 1">
    <path
       inkscape:export-filename="/Users/ingmarkappel/Desktop/tooth menu.png"
       style="fill:#91d8ff;stroke:#000000;stroke-width:1;stroke-miterlimit:4;stroke-dasharray:none;stroke-opacity:1;fill-opacity:1"
       d="m 161.42654,131.09611 c 7.24665,12.7121 9.3345,20.04858 9.33687,32.80833 0.004,20.1254 -9.89169,32.49526 -27.5117,34.39123 -2.4568,0.26436 -7.88227,-0.33404 -11.18884,-1.23407 -1.40019,-0.38112 -4.16899,-1.42246 -6.1529,-2.31411 -11.14599,-5.00942 -15.4073,-5.13174 -25.7357,-0.73883 -6.414231,2.72813 -9.391505,3.60014 -14.037276,4.11133 -7.729955,0.85058 -15.338129,-1.20001 -21.422981,-5.77407 -5.311789,-3.99294 -8.997526,-10.09478 -10.745667,-17.78965 -0.917392,-4.03815 -1.256905,-12.71527 -0.69977,-17.88378 1.027599,-9.53312 2.905054,-14.86027 9.013839,-25.57638 51.689895,-26.82289 88.552435,-7.00114 99.144125,0 z"
       id="path4350-1"
       inkscape:connector-curvature="0"
       inkscape:export-xdpi="90"
       inkscape:export-ydpi="90"
       sodipodi:nodetypes="ccsscssssscc" />
    <path
       style="fill:#000000;stroke-width:1.01881"
       d="m 103.84339,44.495029 c -1.73715,1.37217 -4.017778,2.494838 -5.068038,2.494838 -2.53019,0 -4.61792,1.64037 -5.38075,4.227727 -0.78346,2.657352 0.78813,4.893349 3.8405,5.464072 3.304568,0.617863 3.247448,3.138781 -0.0712,3.138781 -3.34853,0 -7.13282,2.980784 -7.13282,5.618343 0,2.168641 3.63503,5.073807 6.34851,5.073807 0.71842,0 1.30622,0.641536 1.30622,1.425623 0,1.184599 -0.63789,1.425614 -3.7731,1.425614 -2.81433,0 -4.15161,0.402578 -5.26263,1.584222 -3.1676,3.369009 -0.97233,7.866291 4.2172,8.639484 2.14744,0.319955 2.90486,0.829861 2.90486,1.955565 0,1.340791 -0.38249,1.469332 -3.20026,1.07552 -4.43326,-0.61957 -8.28185,1.628344 -8.28185,4.837355 0,3.000409 1.61524,4.482889 5.71832,5.248323 3.23241,0.603 3.31862,0.709816 3.05701,3.787227 -0.41653,4.89953 -0.94242,5.66154 -3.9073,5.66154 -3.52755,0 -5.49209,1.76147 -6.77025,6.07041 -2.56424,8.64448 -12.721947,12.49774 -16.792387,13.40623 -2.08918,0.46631 -3.79849,4.82198 -3.79849,5.15197 0,0.32999 28.784337,-6.80836 51.676755,-6.80836 22.89242,0 48.5018,7.152 48.5018,6.83871 0,-0.31328 -1.49696,-5.73536 -3.32659,-6.22823 -3.52118,-0.94852 -10.76992,-4.17432 -13.14549,-12.47929 -1.14699,-4.00976 -2.99308,-5.68995 -6.66367,-6.06465 -3.2508,-0.33185 -3.87176,-2.73802 -0.70661,-2.73802 3.20619,0 5.48109,-2.13196 5.48109,-5.136719 0,-2.881089 -1.53562,-4.107688 -5.98615,-4.781729 -2.22722,-0.337306 -3.19018,-0.915593 -3.40964,-2.047493 -0.16819,-0.867581 0.17437,-1.577433 0.76111,-1.577433 2.18748,0 5.76415,-3.501045 5.76415,-5.642313 0,-2.534065 -3.18834,-5.049837 -6.39989,-5.049837 -1.2164,0 -2.21167,-0.294523 -2.21167,-0.654504 0,-0.359992 -0.26141,-1.161905 -0.58084,-1.782032 -0.3741,-0.72625 -0.0583,-1.127517 0.88741,-1.127517 1.96306,0 5.43448,-3.375017 5.43448,-5.283595 0,-2.302632 -2.52737,-4.526308 -5.74228,-5.052343 -3.44708,-0.564024 -3.96141,-3.069252 -0.92056,-4.483973 2.46621,-1.147356 4.06751,-4.224853 3.33288,-6.405322 -0.34301,-1.018106 -1.8255,-2.070796 -3.76752,-2.675278 -2.48808,-0.774468 -3.33898,-1.540737 -3.81656,-3.437192 -0.33796,-1.342291 -1.73923,-3.278394 -3.11387,-4.302446 -2.25,-1.676139 -3.21496,-1.861914 -9.67144,-1.861914 -6.95714,0 -7.26671,0.07481 -10.33052,2.494829 z m 15.32091,0.342102 c 2.46053,0.696902 5.20433,3.897039 4.06745,4.743955 -0.32982,0.245721 -4.49749,-0.117243 -9.26147,-0.806565 -7.45519,-1.078753 -8.49754,-1.400756 -7.48286,-2.311551 2.43788,-2.188291 8.11869,-2.916877 12.67688,-1.625839 z m -2.9853,7.085609 c 7.27673,1.111119 13.67056,2.348058 14.20847,2.748785 1.42194,1.059301 -0.008,3.723299 -1.9978,3.723299 -3.15972,0 -30.144198,-4.287691 -31.000878,-4.925877 -0.46741,-0.3482 -0.56275,-1.306907 -0.21189,-2.130464 0.83672,-1.963899 2.68657,-1.907024 19.002098,0.584257 z m 0.16531,7.760293 c 7.7052,1.133014 8.6455,1.441717 8.93362,2.933052 0.27597,1.427823 0,1.608685 -1.91367,1.26159 -1.22965,-0.222856 -6.21861,-0.968326 -11.08653,-1.656606 -8.14383,-1.151461 -8.85079,-1.3838 -8.85079,-2.908813 0,-1.356444 0.39093,-1.588227 2.1529,-1.276462 1.18408,0.209519 6.02811,0.950777 10.76447,1.647239 z m -3.27174,5.473251 c 22.71355,3.385876 20.97333,2.968031 20.97333,5.035864 0,0.984949 -0.60472,1.963683 -1.34387,2.174963 -1.54258,0.440997 -36.977758,-4.626622 -38.247168,-5.469766 -0.97348,-0.646592 0.0204,-4.225652 1.17358,-4.225652 0.42713,0 8.276988,1.118061 17.444128,2.484591 z m 3.43024,8.243661 c 8.45585,1.239023 10.77867,1.835797 11.13883,2.861833 0.25024,0.713013 0.27933,1.427293 0.0643,1.587311 -0.21487,0.160018 -6.08846,-0.556129 -13.05254,-1.591424 -11.67549,-1.735716 -12.68705,-2.012286 -12.98403,-3.550077 -0.2756,-1.427069 5.3e-4,-1.610392 1.91368,-1.27041 1.22968,0.218509 7.04345,1.101752 12.91952,1.962767 z m -0.1585,5.885284 c 19.05059,2.833581 20.1103,3.076248 20.4139,4.674768 0.17612,0.927329 -0.0833,1.986566 -0.57625,2.353877 -0.55743,0.415267 -8.45926,-0.443602 -20.89235,-2.270824 -26.201218,-3.850654 -24.301598,-3.437021 -24.301598,-5.291616 0,-3.2602 -0.17619,-3.2639 25.356298,0.533795 z m -2.78415,7.290998 c 6.79391,0.994091 13.32137,1.962498 14.50549,2.152008 2.10382,0.336732 3.21605,3.168661 1.24442,3.168661 -1.40825,0 -30.044188,-4.287853 -30.398438,-4.55176 -0.518,-0.385883 0.83755,-2.576338 1.594328,-2.576338 0.3859,0 6.2603,0.813346 13.0542,1.807429 z m 3.62545,6.48915 c 11.51422,1.725956 21.3099,3.310717 21.76812,3.521709 1.26999,0.584698 0.99289,3.667444 -0.36284,4.037054 -0.65785,0.17934 -11.96052,-1.25407 -25.11711,-3.185351 -24.839988,-3.64632 -27.255308,-4.324153 -25.267538,-7.091063 1.13149,-1.574991 -0.977,-1.772719 28.979368,2.717651 z m 14.94661,11.468923 v 1.65022 l -17.90953,-0.19392 -17.909518,-0.19393 0.29444,-3.55817 c 0.16194,-1.957 0.43956,-3.733082 0.61692,-3.946868 0.17735,-0.213777 8.104128,0.732062 17.615048,2.101878 16.47657,2.37302 17.29264,2.56843 17.29264,4.14079 z m 8.61157,4.76885 c 0,0.32825 2.71445,8.57826 3.4783,10.57151 0.44812,1.16949 -1.43894,-2.98591 -30.20541,-2.98591 -16.875858,0 -30.670858,3.99276 -30.655528,3.69872 0.0153,-0.29403 0.86393,-2.77996 1.88581,-5.52427 1.02188,-2.74432 1.87051,-5.23024 1.88582,-5.52428 0.0284,-0.54498 53.611008,-0.78065 53.611008,-0.23577 z"
       id="path5207"
       inkscape:connector-curvature="0"
       sodipodi:nodetypes="csscssssscsscsscsccsssscsssscsssssssscscccsccsccsssssscssccsssssscssscccsscccsscsssscssssscssssscccsscsscscscs" />
  </g>
</svg>
