<?xml version="1.0" encoding="UTF-8" standalone="no"?>
<svg
   xmlns:dc="http://purl.org/dc/elements/1.1/"
   xmlns:cc="http://creativecommons.org/ns#"
   xmlns:rdf="http://www.w3.org/1999/02/22-rdf-syntax-ns#"
   xmlns:svg="http://www.w3.org/2000/svg"
   xmlns="http://www.w3.org/2000/svg"
   xmlns:sodipodi="http://sodipodi.sourceforge.net/DTD/sodipodi-0.dtd"
   xmlns:inkscape="http://www.inkscape.org/namespaces/inkscape"
   sodipodi:docname="14_24.svg"
   inkscape:version="1.0 (4035a4f, 2020-05-01)"
   id="svg2412"
   version="1.1"
   viewBox="0 0 95.133271 158.34191"
   height="158.3419mm"
   width="95.13327mm">
  <defs
     id="defs2406" />
  <sodipodi:namedview
     inkscape:window-maximized="0"
     inkscape:window-y="23"
     inkscape:window-x="0"
     inkscape:window-height="943"
     inkscape:window-width="1248"
     fit-margin-bottom="0"
     fit-margin-right="0"
     fit-margin-left="0"
     fit-margin-top="0"
     showgrid="false"
     inkscape:document-rotation="0"
     inkscape:current-layer="layer1"
     inkscape:document-units="mm"
     inkscape:cy="143.8457"
     inkscape:cx="141.99482"
     inkscape:zoom="0.76319389"
     inkscape:pageshadow="2"
     inkscape:pageopacity="0.0"
     borderopacity="1.0"
     bordercolor="#666666"
     pagecolor="#ffffff"
     id="base" />
  <metadata
     id="metadata2409">
    <rdf:RDF>
      <cc:Work
         rdf:about="">
        <dc:format>image/svg+xml</dc:format>
        <dc:type
           rdf:resource="http://purl.org/dc/dcmitype/StillImage" />
        <dc:title />
      </cc:Work>
    </rdf:RDF>
  </metadata>
  <g
     transform="translate(-90.770292,-32.205378)"
     id="layer1"
     inkscape:groupmode="layer"
     inkscape:label="Ebene 1">
    <path
       id="path4440-5-6"
       style="fill:#91d8ff;stroke:#000000;stroke-width:3.77953;stroke-miterlimit:4;stroke-dasharray:none;stroke-opacity:1;fill-opacity:1"
       d="m 190.50195,300.87695 c -33.67406,0.18724 -72.9429,7.04648 -117.812497,24.65821 70.731277,-15.2843 149.693347,-17.0883 207.292967,-7.22852 -23.35612,-10.09767 -53.17047,-17.63158 -89.48047,-17.42969 z M 22.162109,366.18945 C 9.0952036,392.25033 4.0574703,410.73841 1.0214844,438.9043 c -2.1056013,19.53452 -0.82320043,52.32949 2.6445312,67.59179 6.6070414,29.08301 20.5374324,52.14483 40.6132814,67.23633 34.355149,25.82559 78.306673,29.52809 124.339843,10.47266 l 10.97852,-4.54492 9.89843,4.57226 c 18.25387,8.43372 45.88624,13.75287 62.28516,11.98828 66.5952,-7.16587 103.99181,-53.91983 103.98047,-129.98437 -0.007,-38.34494 -5.01005,-63.73922 -20.82227,-96.6836 -49.72918,99.77765 32.58327,194.1883 -156.95507,196.93555 C -3.9931103,569.12599 71.263827,458.7183 22.162109,366.18945 Z"
       transform="matrix(0.26458333,0,0,0.26458333,91.274937,32.205378)" />
    <path
       inkscape:export-filename="/Users/ingmarkappel/Desktop/tooth menu.png"
       style="fill:#000000;stroke-width:0.282223"
       d="m 151.17544,32.350509 c 2.08001,0.389636 6.59384,4.584192 9.02801,8.389197 5.46975,8.550683 9.2535,23.076746 10.93413,41.975671 0.31045,3.4925 0.68273,12.144359 0.82692,19.226383 0.30169,14.80787 0.10244,13.79739 4.10238,20.81389 -17.80657,26.82799 7.26901,54.18551 -38.00842,54.92201 -43.314315,0.70457 -20.53753,-31.1852 -37.49954,-54.92201 3.99567,-7.00921 3.80492,-6.05477 4.09109,-20.46111 0.26442,-13.315835 0.64655,-19.426509 1.7653,-28.222219 1.74837,-13.747721 4.97756,-24.947031 9.2944,-32.234799 1.75599,-2.964603 5.41866,-6.999675 7.38773,-8.139204 4.60248,-2.663613 8.51806,-1.544235 10.79813,3.086777 0.97875,1.988651 1.16611,2.918065 1.79462,8.905889 0.66664,6.350395 2.29419,17.763433 2.57302,18.042269 0.0717,0.07165 0.23171,-0.469929 0.3556,-1.20351 0.95815,-5.670126 1.71027,-11.10708 2.30663,-16.679614 0.38439,-3.589528 0.97082,-7.309442 1.30302,-8.266458 1.32981,-3.829473 4.99534,-5.973402 8.94698,-5.233162 z m -2.24282,7.766981 c -0.10329,0.339542 -0.5963,4.070463 -1.09615,8.290927 -1.70603,14.413286 -4.07529,26.630657 -5.51772,28.452231 -2.15421,2.720962 -5.17765,2.722147 -7.73992,0.0031 -1.13005,-1.198969 -1.36567,-1.805071 -2.21124,-5.682691 -1.79747,-8.244416 -3.08836,-16.884366 -4.31518,-28.881661 -0.28448,-2.783642 -0.53509,-3.072976 -1.85024,-2.136507 -4.1286,2.939853 -7.96544,10.728904 -10.44728,21.209508 -2.7421,11.579972 -3.98441,24.296508 -4.20454,43.038853 -0.0694,5.91784 -0.24698,11.1195 -0.39455,11.5592 l -0.26839,0.79951 1.5711,-0.67346 c 2.9464,-1.26295 10.52268,-3.58663 14.48847,-4.44359 11.78221,-2.54613 21.3625,-1.84026 33.83672,2.49309 1.99929,0.69441 3.89466,1.34202 4.21216,1.43911 0.5018,0.1533 0.54049,-0.0246 0.29352,-1.35354 -0.15604,-0.84153 -0.29098,-6.05443 -0.29913,-11.5842 -0.0446,-29.620609 -5.07831,-53.050074 -13.13126,-61.118751 -2.15844,-2.162754 -2.62919,-2.389688 -2.92637,-1.411111 z"
       id="path4440-5"
       inkscape:connector-curvature="0"
       inkscape:export-xdpi="90"
       inkscape:export-ydpi="90"
       sodipodi:nodetypes="sccccscccccccccccscccccccccccccccccccc" />
  </g>
</svg>
