<?xml version="1.0" encoding="UTF-8" standalone="no"?>
<svg
   xmlns:dc="http://purl.org/dc/elements/1.1/"
   xmlns:cc="http://creativecommons.org/ns#"
   xmlns:rdf="http://www.w3.org/1999/02/22-rdf-syntax-ns#"
   xmlns:svg="http://www.w3.org/2000/svg"
   xmlns="http://www.w3.org/2000/svg"
   xmlns:sodipodi="http://sodipodi.sourceforge.net/DTD/sodipodi-0.dtd"
   xmlns:inkscape="http://www.inkscape.org/namespaces/inkscape"
   width="92.263588mm"
   height="189.14584mm"
   viewBox="0 0 92.263588 189.14584"
   version="1.1"
   id="svg6024"
   inkscape:version="1.0 (4035a4f, 2020-05-01)"
   sodipodi:docname="33_43.svg">
  <defs
     id="defs6018" />
  <sodipodi:namedview
     id="base"
     pagecolor="#ffffff"
     bordercolor="#666666"
     borderopacity="1.0"
     inkscape:pageopacity="0.0"
     inkscape:pageshadow="2"
     inkscape:zoom="0.35"
     inkscape:cx="87.719723"
     inkscape:cy="343.15524"
     inkscape:document-units="mm"
     inkscape:current-layer="layer1"
     inkscape:document-rotation="0"
     showgrid="false"
     fit-margin-top="0"
     fit-margin-left="0"
     fit-margin-right="0"
     fit-margin-bottom="0"
     inkscape:window-width="1248"
     inkscape:window-height="943"
     inkscape:window-x="500"
     inkscape:window-y="110"
     inkscape:window-maximized="0" />
  <metadata
     id="metadata6021">
    <rdf:RDF>
      <cc:Work
         rdf:about="">
        <dc:format>image/svg+xml</dc:format>
        <dc:type
           rdf:resource="http://purl.org/dc/dcmitype/StillImage" />
        <dc:title></dc:title>
      </cc:Work>
    </rdf:RDF>
  </metadata>
  <g
     inkscape:label="Ebene 1"
     inkscape:groupmode="layer"
     id="layer1"
     transform="translate(-82.624157,-57.373509)">
    <path
       inkscape:export-filename="/Users/ingmarkappel/Desktop/tooth menu_lower_jaw.png"
       inkscape:connector-curvature="0"
       id="path4710-8-0"
       d="m 95.906707,145.40866 c -4.832463,-8.47708 -9.537135,-22.38538 -10.711179,-28.24079 -1.982329,-9.8872 -1.656617,-20.618741 0.854004,-28.134321 1.942253,-5.81366 4.128092,-8.98877 10.179755,-14.78771 8.444963,-8.09235 16.731293,-13.16645 25.320413,-15.505031 4.14643,-1.128917 10.7267,-1.056358 15.36982,0.169474 8.68031,2.291697 17.30473,7.167567 26.58928,15.032367 4.83362,4.0944 8.06535,9.72676 9.69349,16.89334 0.9175,4.03815 1.25701,12.715251 0.69991,17.883761 -1.02757,9.53313 -7.13853,25.97277 -13.24723,36.68891 -14.17163,11.43625 -16.97265,11.07291 -32.03652,11.03744 -15.34097,-0.0361 -18.03529,0.009 -32.711743,-11.03744 z"
       style="fill:#91d8ff;fill-opacity:1;stroke:#000000;stroke-width:1;stroke-miterlimit:4;stroke-dasharray:none;stroke-opacity:1"
       inkscape:export-xdpi="90"
       inkscape:export-ydpi="90"
       sodipodi:nodetypes="cccccsccscsc" />
    <path
       sodipodi:nodetypes="cccccccc"
       inkscape:export-ydpi="90"
       inkscape:export-xdpi="90"
       style="fill:#808080;fill-opacity:1;stroke:#000000;stroke-width:1;stroke-miterlimit:4;stroke-dasharray:none;stroke-opacity:1"
       d="m 95.906707,145.40866 c -4.832463,-8.47708 -9.537135,-22.38538 -10.711179,-28.24079 -1.982329,-9.8872 -1.656617,-20.618741 0.854004,-28.134321 1.942253,-5.81366 4.128092,-8.98877 10.179755,-14.78771 8.444963,-8.09235 16.731293,-13.16645 25.320413,-15.505031 2.24421,-0.611014 5.20138,-0.870068 8.17851,-0.784805 l -1.10976,98.490097 c -15.34097,-0.0361 -18.03529,0.009 -32.711743,-11.03744 z"
       id="path839"
       inkscape:connector-curvature="0"
       inkscape:export-filename="/Users/ingmarkappel/Desktop/tooth menu_lower_jaw.png" />
  </g>
</svg>
