<?xml version="1.0" encoding="UTF-8" standalone="no"?>
<svg
   xmlns:dc="http://purl.org/dc/elements/1.1/"
   xmlns:cc="http://creativecommons.org/ns#"
   xmlns:rdf="http://www.w3.org/1999/02/22-rdf-syntax-ns#"
   xmlns:svg="http://www.w3.org/2000/svg"
   xmlns="http://www.w3.org/2000/svg"
   xmlns:sodipodi="http://sodipodi.sourceforge.net/DTD/sodipodi-0.dtd"
   xmlns:inkscape="http://www.inkscape.org/namespaces/inkscape"
   width="57.96413mm"
   height="136.90196mm"
   viewBox="0 0 57.964131 136.90196"
   version="1.1"
   id="svg6626"
   inkscape:version="1.0 (4035a4f, 2020-05-01)"
   sodipodi:docname="SOE.svg">
  <defs
     id="defs6620" />
  <sodipodi:namedview
     id="base"
     pagecolor="#ffffff"
     bordercolor="#666666"
     borderopacity="1.0"
     inkscape:pageopacity="0.0"
     inkscape:pageshadow="2"
     inkscape:zoom="1.1017978"
     inkscape:cx="93.107115"
     inkscape:cy="275.15895"
     inkscape:document-units="mm"
     inkscape:current-layer="layer1"
     inkscape:document-rotation="0"
     showgrid="false"
     fit-margin-top="0"
     fit-margin-left="0"
     fit-margin-right="0"
     fit-margin-bottom="0"
     inkscape:window-width="1248"
     inkscape:window-height="943"
     inkscape:window-x="0"
     inkscape:window-y="23"
     inkscape:window-maximized="0" />
  <metadata
     id="metadata6623">
    <rdf:RDF>
      <cc:Work
         rdf:about="">
        <dc:format>image/svg+xml</dc:format>
        <dc:type
           rdf:resource="http://purl.org/dc/dcmitype/StillImage" />
        <dc:title></dc:title>
      </cc:Work>
    </rdf:RDF>
  </metadata>
  <g
     inkscape:label="Ebene 1"
     inkscape:groupmode="layer"
     id="layer1"
     transform="translate(-122.94722,-140.62686)">
    <path
       id="path5207"
       style="fill:#000000;stroke-width:0.837959"
       d="m 151.83585,266.04194 a 15.128683,14.648407 0 0 0 15.10554,-14.6482 15.128683,14.648407 0 0 0 -4.40697,-10.33477 h 16.16749 c 1.17366,0 2.11874,-0.94455 2.11874,-2.11821 v -10.89184 c 0,-1.17366 -0.94508,-2.11874 -2.11874,-2.11874 h -5.95002 c -0.49416,-2.18871 -0.91994,-5.29694 -1.63608,-9.6113 -0.71866,-4.32934 -1.87562,-6.14387 -4.17545,-6.54844 -2.03681,-0.35829 -2.42601,-2.95589 -0.44287,-2.95589 2.00885,0 3.43441,-2.30219 3.43441,-5.54643 0,-3.11072 -0.96217,-4.43469 -3.75067,-5.16247 -1.39548,-0.36419 -1.99879,-0.98862 -2.1363,-2.21072 -0.10538,-0.93674 0.10935,-1.70326 0.47697,-1.70326 1.37058,0 3.61167,-3.78019 3.61167,-6.09213 0,-2.73603 -1.99789,-5.45238 -4.0101,-5.45238 -0.76215,0 -1.38544,-0.31774 -1.38544,-0.70642 0,-0.38867 -0.16418,-1.25487 -0.36432,-1.92443 -0.23439,-0.78413 -0.0365,-1.21698 0.55604,-1.21698 1.22997,0 3.40496,-3.64438 3.40496,-5.70508 0,-2.48616 -1.58339,-4.88701 -3.59771,-5.45496 -2.15979,-0.60898 -2.48197,-3.31357 -0.57671,-4.84105 1.54522,-1.2388 2.54853,-4.56159 2.08824,-6.91586 -0.21491,-1.09925 -1.14379,-2.23605 -2.36058,-2.8887 -1.55892,-0.83621 -2.09235,-1.66381 -2.39158,-3.71141 -0.21175,-1.44928 -1.08951,-3.53952 -1.95079,-4.64519 -1.40975,-1.80973 -2.01424,-2.01022 -6.05958,-2.01022 -4.35904,0 -4.55334,0.0809 -6.47299,2.6939 h 5.2e-4 c -1.08842,1.48153 -2.51747,2.69337 -3.17552,2.69337 -1.5853,0 -2.89342,1.77101 -3.37137,4.56458 -0.49089,2.86916 0.49358,5.28369 2.40606,5.8999 2.07049,0.6671 2.03486,3.38894 -0.0444,3.38894 -2.09804,0 -4.46898,3.218 -4.46898,6.06578 0,2.34148 2.27738,5.47822 3.97753,5.47822 0.45013,0 0.81856,0.69285 0.81856,1.53944 0,1.279 -0.39981,1.53944 -2.3642,1.53944 -1.76333,0 -2.60135,0.43467 -3.29747,1.71049 -1.98467,3.63753 -0.60879,8.49329 2.64273,9.32811 1.34549,0.34545 1.82004,0.89555 1.82004,2.11098 0,1.44764 -0.24007,1.58689 -2.00556,1.16169 -2.77768,-0.66895 -5.18883,1.75764 -5.18883,5.22242 0,3.23957 1.01192,4.84041 3.58273,5.66684 2.02528,0.65107 2.07955,0.76646 1.91564,4.08915 -0.26097,5.29003 -0.59078,6.11281 -2.44843,6.11281 -2.21021,0 -3.44077,1.90175 -4.2416,6.55412 -0.74701,4.33961 -1.16172,7.3705 -1.64693,9.48314 h -4.85758 c -1.17366,0 -2.11873,0.94508 -2.11873,2.11874 v 10.89184 c 0,1.17366 0.94507,2.11821 2.11873,2.11821 h 16.02538 a 15.128683,14.648407 0 0 0 -4.40697,10.33477 15.128683,14.648407 0 0 0 15.12828,14.6482 15.128683,14.648407 0 0 0 0.0233,0 z m 14.40894,-40.11176 h -26.62266 c -4.49618,-0.10589 -7.44749,-0.26874 -7.44193,-0.45268 0.01,-0.31746 0.54106,-3.00145 1.18133,-5.9645 0.64027,-2.96305 1.17224,-5.64702 1.18184,-5.96449 0.0178,-0.58843 33.5902,-0.84255 33.5902,-0.25425 0,0.35441 1.7006,9.26164 2.17919,11.41377 0.16359,0.73571 -0.19637,1.07016 -4.06797,1.22215 z m -3.50676,-16.00316 -11.22154,-0.2098 -11.22102,-0.20929 0.18397,-3.84163 c 0.10146,-2.11297 0.27542,-4.03041 0.38654,-4.26124 0.11112,-0.23082 5.07793,0.79014 11.03705,2.26912 10.32348,2.56217 10.835,2.77336 10.835,4.47104 z m 3.89227,-5.98774 c -1.14783,-0.0181 -7.85491,-1.5002 -15.58303,-3.45509 -15.56363,-3.93695 -17.07703,-4.66894 -15.83159,-7.65638 0.70894,-1.70053 -0.61229,-1.91408 18.15703,2.93419 7.2143,1.86352 13.35186,3.57454 13.63896,3.80235 0.79572,0.63129 0.62206,3.95984 -0.22738,4.35891 -0.0258,0.0121 -0.0775,0.0172 -0.15399,0.016 z m -5.66064,-9.4387 c -0.88235,0 -18.82442,-4.63001 -19.04638,-4.91495 -0.32455,-0.41664 0.52474,-2.78123 0.9989,-2.78123 0.2418,0 3.9226,0.878 8.17935,1.95131 4.25676,1.07331 8.34641,2.11875 9.08833,2.32337 1.31816,0.36357 2.01513,3.4215 0.7798,3.4215 z m 3.63544,-5.91902 c -1.6355,-0.0454 -6.09053,-0.95813 -12.41992,-2.56109 -16.41652,-4.15756 -15.22645,-3.71093 -15.22645,-5.71334 0,-3.52004 -0.11063,-3.52368 15.88688,0.57671 11.93625,3.05943 12.60021,3.32131 12.79043,5.04723 0.11035,1.00124 -0.0519,2.14487 -0.3607,2.54145 -0.0655,0.0841 -0.29282,0.11952 -0.67024,0.10904 z m -4.8519,-9.22683 c -0.85425,-0.0475 -4.14899,-0.76186 -7.96696,-1.73994 -7.31533,-1.87406 -7.94883,-2.17248 -8.1349,-3.83285 -0.17268,-1.5408 2e-4,-1.73908 1.19889,-1.37201 0.77046,0.23592 4.41292,1.18963 8.0946,2.11926 h 5.1e-4 c 5.29806,1.33778 6.75325,1.98192 6.97891,3.08973 0.15679,0.76984 0.17502,1.54134 0.0403,1.71411 -0.0168,0.0216 -0.0893,0.0285 -0.21135,0.0217 z m 3.18998,-5.91333 c -2.18171,0.11109 -23.04199,-5.05108 -23.8125,-5.93298 -0.60993,-0.69811 0.0128,-4.56251 0.73536,-4.56251 0.26762,0 5.18636,1.20708 10.93008,2.68253 14.23129,3.65573 13.1408,3.20474 13.1408,5.43739 0,1.06344 -0.3792,2.12006 -0.84232,2.34818 -0.0302,0.0149 -0.081,0.0238 -0.15142,0.0274 z m -4.9816,-9.03149 c -0.18212,-0.0103 -0.41752,-0.0681 -0.71727,-0.16175 -0.77044,-0.24061 -3.89633,-1.04589 -6.94635,-1.78904 -5.10256,-1.24323 -5.5454,-1.49381 -5.5454,-3.14037 0,-1.46457 0.24479,-1.71484 1.34876,-1.37822 0.74189,0.22622 3.7767,1.02674 6.74429,1.77871 4.82774,1.22332 5.41707,1.55653 5.59759,3.16673 0.12968,1.15622 0.0647,1.55485 -0.48162,1.52394 z m 2.43137,-6.0818 c -1.97974,0 -18.88686,-4.62948 -19.42362,-5.31854 -0.29286,-0.37595 -0.35264,-1.41093 -0.13281,-2.30012 0.52425,-2.12043 1.68316,-2.05887 11.90574,0.63097 4.55927,1.19968 8.56527,2.53511 8.9023,2.96778 0.89092,1.14373 -0.005,4.01991 -1.25161,4.01991 z m -3.58841,-9.43405 c -0.84255,0.024 -3.02096,-0.34819 -5.44618,-0.95291 -4.67109,-1.16473 -5.32436,-1.5126 -4.6886,-2.49597 1.52746,-2.36272 5.08722,-3.14938 7.94318,-1.75545 1.54166,0.75245 3.26049,4.20775 2.54817,5.12216 -0.0387,0.0497 -0.16214,0.0766 -0.35657,0.0822 z" />
    <rect
       ry="2.1185188"
       y="245.88164"
       x="123.47889"
       height="31.647188"
       width="57.432461"
       id="rect840"
       style="fill:#000000;stroke-width:0.841218;stroke-linejoin:round;paint-order:stroke markers fill" />
  </g>
</svg>
