<?xml version="1.0" encoding="UTF-8" standalone="no"?>
<svg
   xmlns:dc="http://purl.org/dc/elements/1.1/"
   xmlns:cc="http://creativecommons.org/ns#"
   xmlns:rdf="http://www.w3.org/1999/02/22-rdf-syntax-ns#"
   xmlns:svg="http://www.w3.org/2000/svg"
   xmlns="http://www.w3.org/2000/svg"
   xmlns:sodipodi="http://sodipodi.sourceforge.net/DTD/sodipodi-0.dtd"
   xmlns:inkscape="http://www.inkscape.org/namespaces/inkscape"
   sodipodi:docname="13_23.svg"
   inkscape:version="1.0 (4035a4f, 2020-05-01)"
   id="svg3014"
   version="1.1"
   viewBox="0 0 91.269005 188.98668"
   height="188.98668mm"
   width="91.269005mm">
  <defs
     id="defs3008" />
  <sodipodi:namedview
     inkscape:window-maximized="0"
     inkscape:window-y="23"
     inkscape:window-x="0"
     inkscape:window-height="943"
     inkscape:window-width="1248"
     fit-margin-bottom="0"
     fit-margin-right="0"
     fit-margin-left="0"
     fit-margin-top="0"
     showgrid="false"
     inkscape:document-rotation="0"
     inkscape:current-layer="layer1"
     inkscape:document-units="mm"
     inkscape:cy="274.72551"
     inkscape:cx="235.32547"
     inkscape:zoom="0.78086714"
     inkscape:pageshadow="2"
     inkscape:pageopacity="0.0"
     borderopacity="1.0"
     bordercolor="#666666"
     pagecolor="#ffffff"
     id="base" />
  <metadata
     id="metadata3011">
    <rdf:RDF>
      <cc:Work
         rdf:about="">
        <dc:format>image/svg+xml</dc:format>
        <dc:type
           rdf:resource="http://purl.org/dc/dcmitype/StillImage" />
        <dc:title />
      </cc:Work>
    </rdf:RDF>
  </metadata>
  <g
     transform="translate(-105.32709,-23.266289)"
     id="layer1"
     inkscape:groupmode="layer"
     inkscape:label="Ebene 1">
    <path
       inkscape:export-filename="/Users/ingmarkappel/Desktop/tooth menu.png"
       style="fill:#ffffff;stroke:#000000;stroke-width:1;stroke-miterlimit:4;stroke-dasharray:none;stroke-opacity:1"
       d="m 187.80159,134.3312 c 4.83252,8.47705 5.83299,12.33122 7.00703,18.1866 0.54935,2.73998 0.92145,5.5448 1.11892,8.32805 0.51511,7.26012 -0.15801,14.37347 -1.97292,19.80629 -1.94226,5.81369 -4.12804,8.9888 -10.17976,14.78773 -8.44491,8.09236 -16.73123,13.16646 -25.32041,15.50504 -4.14638,1.12892 -10.7267,1.05636 -15.36982,-0.16948 -8.68031,-2.2917 -17.30474,-7.16756 -26.58926,-15.03236 -4.83362,-4.0944 -8.06534,-9.72677 -9.69348,-16.89338 -0.91753,-4.03814 -1.25705,-12.71526 -0.69994,-17.88377 1.0276,-9.53312 3.96352,-14.86027 10.07222,-25.57638 0,0 30.70765,-18.25462 71.62742,-1.05834 z"
       id="path4590-5"
       inkscape:connector-curvature="0"
       inkscape:export-xdpi="90"
       inkscape:export-ydpi="90"
       sodipodi:nodetypes="ccsccssccccc" />
    <path
       style="fill:#000000;stroke-width:0.99592"
       d="m 144.35684,26.519217 c -1.27311,1.789111 -2.94453,3.252928 -3.71424,3.252928 -1.85431,0 -3.38435,2.138807 -3.94341,5.512368 -0.57418,3.464838 0.5776,6.380266 2.81461,7.124406 2.42183,0.805609 2.37997,4.092538 -0.0522,4.092538 -2.45405,0 -5.22746,3.886545 -5.22746,7.325561 0,2.827609 2.66402,6.615549 4.65266,6.615549 0.52651,0 0.9573,0.836474 0.9573,1.858819 0,1.544548 -0.4675,1.858807 -2.76522,1.858807 -2.06255,0 -3.04261,0.524901 -3.85684,2.065609 -2.32146,4.392727 -0.7126,10.25657 3.09068,11.264709 1.5738,0.417175 2.12889,1.082026 2.12889,2.549791 0,1.748203 -0.28031,1.915805 -2.34539,1.40233 -3.24902,-0.807834 -6.06955,2.12314 -6.06955,6.307255 0,3.912144 1.18376,5.845091 4.19081,6.843109 2.36895,0.786229 2.43213,0.92551 2.2404,4.938031 -0.30525,6.388323 -0.69067,7.381883 -2.86355,7.381883 -2.58525,0 -4.02502,2.29671 -4.96176,7.91498 -1.87926,11.27124 -1.95514,11.46562 -4.93826,12.65018 -1.53111,0.60799 -7.607,7.00013 -7.607,7.4304 0,0.43025 18.55005,-3.70204 35.32733,-3.70204 16.77727,0 37.02151,3.02211 37.02151,3.02211 0.37309,0.16629 -7.61442,-6.09164 -8.95531,-6.73426 -2.58058,-1.23676 -2.85143,-1.99295 -4.59243,-12.82151 -0.8406,-5.22817 -2.19354,-7.41893 -4.88363,-7.90747 -2.38243,-0.43269 -2.83752,-3.57001 -0.51786,-3.57001 2.34974,0 4.01695,-2.77978 4.01695,-6.697583 0,-3.756547 -1.12541,-5.35587 -4.3871,-6.234736 -1.63227,-0.439802 -2.338,-1.193816 -2.49884,-2.669659 -0.12326,-1.131208 0.1278,-2.056757 0.5578,-2.056757 1.60315,0 4.2244,-4.564878 4.2244,-7.356809 0,-3.304071 -2.33665,-6.584293 -4.69031,-6.584293 -0.89147,0 -1.62088,-0.384017 -1.62088,-0.853393 0,-0.469376 -0.19158,-1.514957 -0.42569,-2.323526 -0.27416,-0.946927 -0.0427,-1.47012 0.65036,-1.47012 1.43868,0 3.98281,-4.400561 3.98281,-6.889093 0,-3.002316 -1.85226,-5.901687 -4.20838,-6.58756 -2.52628,-0.735407 -2.90322,-4.001885 -0.67466,-5.84649 1.80742,-1.495993 2.98098,-5.508631 2.44258,-8.35167 -0.25138,-1.327471 -1.33786,-2.700036 -2.76112,-3.488198 -1.82345,-1.009801 -2.44705,-2.008912 -2.79706,-4.481629 -0.24768,-1.750165 -1.27464,-4.27458 -2.28207,-5.609803 -1.64897,-2.185457 -2.35617,-2.427682 -7.08795,-2.427682 -5.09872,0 -5.3256,0.09755 -7.57099,3.252929 z m 11.22831,0.446042 c 1.80326,0.908666 3.81413,5.081208 2.98094,6.185471 -0.24172,0.320387 -3.2961,-0.152857 -6.7875,-1.051652 -5.46372,-1.406546 -6.22764,-1.826393 -5.484,-3.013935 1.78666,-2.853245 5.94998,-3.80321 9.29056,-2.119884 z m -2.18785,9.238669 c 5.33293,1.448747 10.01881,3.061547 10.41303,3.584038 1.04211,1.381184 -0.006,4.854685 -1.46413,4.854685 -2.31568,0 -22.09193,-5.590561 -22.71977,-6.42268 -0.34255,-0.454005 -0.41243,-1.704029 -0.15529,-2.777835 0.61321,-2.560656 1.96892,-2.4865 13.92616,0.761792 z m 0.12115,10.118362 c 5.64695,1.477302 6.33607,1.879801 6.54723,3.824307 0.20225,1.861685 0,2.097497 -1.40248,1.644933 -0.90118,-0.290568 -4.55746,-1.262554 -8.12504,-2.159988 -5.96841,-1.501344 -6.48652,-1.804286 -6.48652,-3.79269 0,-1.768626 0.2865,-2.070829 1.5778,-1.664328 0.86779,0.273184 4.41785,1.239679 7.88901,2.147766 z m -2.39777,7.136382 c 16.64619,4.414718 15.37082,3.8699 15.37082,6.566077 0,1.28423 -0.44318,2.560374 -0.98488,2.83585 -1.13052,0.575002 -27.10008,-6.032477 -28.03039,-7.131826 -0.71344,-0.843063 0.015,-5.50968 0.86008,-5.50968 0.31304,0 6.066,1.457808 12.78437,3.239579 z m 2.51393,10.748599 c 6.19708,1.61552 7.89942,2.39363 8.16337,3.731447 0.1834,0.929666 0.20472,1.860991 0.0471,2.069634 -0.15748,0.208643 -4.46208,-0.725117 -9.56588,-2.074994 -8.55667,-2.26314 -9.29802,-2.623751 -9.51566,-4.628822 -0.20198,-1.8607 3.8e-4,-2.099733 1.40248,-1.656441 0.9012,0.284904 5.16196,1.43653 9.46839,2.559176 z m -0.11616,7.67361 c 13.9617,3.69461 14.73834,4.01101 14.96084,6.095259 0.12907,1.20911 -0.061,2.590213 -0.42232,3.069134 -0.40853,0.541451 -6.19958,-0.578391 -15.31147,-2.960843 -19.20223,-5.020729 -17.81004,-4.481401 -17.81004,-6.899544 0,-4.250858 -0.12913,-4.255685 18.58299,0.695994 z m -2.04043,9.506473 c 4.97909,1.296152 9.7629,2.558826 10.63071,2.805927 1.54184,0.439047 2.35696,4.131493 0.912,4.131493 -1.03207,0 -22.01862,-5.590767 -22.27825,-5.934871 -0.37962,-0.503136 0.61382,-3.359197 1.16844,-3.359197 0.28283,0 4.58802,1.060497 9.5671,2.356648 z m 2.657,8.460976 c 8.43848,2.250413 15.61749,4.316735 15.95331,4.591834 0.93074,0.762365 0.72766,4.781856 -0.26592,5.263775 -0.48212,0.233833 -8.76556,-1.635137 -18.40769,-4.153271 -18.20461,-4.754305 -19.97473,-5.638109 -18.51795,-9.245794 0.82924,-2.05358 -0.71602,-2.311385 21.23825,3.543456 z m 10.954,14.95393 v 2.15167 l -13.12545,-0.25285 -13.12544,-0.25288 0.21579,-4.63936 c 0.11868,-2.551652 0.32214,-4.867433 0.45213,-5.146178 0.12997,-0.278739 5.93931,0.954511 12.90963,2.74056 12.07526,3.094108 12.67334,3.348898 12.67334,5.399038 z m 6.3112,6.21793 c 0,0.42798 1.98935,11.18486 2.54916,13.78381 0.32841,1.52484 -1.05456,-3.66521 -22.13678,-3.66521 -12.3679,0 -22.4779,4.97801 -22.46668,4.59461 0.0113,-0.38338 0.63316,-3.62468 1.38207,-7.20289 0.74891,-3.57823 1.37085,-6.81953 1.38207,-7.20291 0.0208,-0.71059 39.29016,-1.01786 39.29016,-0.30741 z"
       id="path5207"
       inkscape:connector-curvature="0"
       sodipodi:nodetypes="csscsssssssscssssssssssscssscsssssssscscccsccscccssssscsscccssssscsssccccscccsscsssscssssscssssscccssssscscsss" />
  </g>
</svg>
