<?xml version="1.0" encoding="UTF-8" standalone="no"?>
<svg
   xmlns:dc="http://purl.org/dc/elements/1.1/"
   xmlns:cc="http://creativecommons.org/ns#"
   xmlns:rdf="http://www.w3.org/1999/02/22-rdf-syntax-ns#"
   xmlns:svg="http://www.w3.org/2000/svg"
   xmlns="http://www.w3.org/2000/svg"
   xmlns:sodipodi="http://sodipodi.sourceforge.net/DTD/sodipodi-0.dtd"
   xmlns:inkscape="http://www.inkscape.org/namespaces/inkscape"
   sodipodi:docname="15_25.svg"
   inkscape:version="1.0 (4035a4f, 2020-05-01)"
   id="svg1810"
   version="1.1"
   viewBox="0 0 91.312675 174.15096"
   height="174.15096mm"
   width="91.312675mm">
  <defs
     id="defs1804" />
  <sodipodi:namedview
     inkscape:window-maximized="0"
     inkscape:window-y="23"
     inkscape:window-x="0"
     inkscape:window-height="943"
     inkscape:window-width="1248"
     fit-margin-bottom="0"
     fit-margin-right="0"
     fit-margin-left="0"
     fit-margin-top="0"
     showgrid="false"
     inkscape:document-rotation="0"
     inkscape:current-layer="layer1"
     inkscape:document-units="mm"
     inkscape:cy="326.8705"
     inkscape:cx="187.53917"
     inkscape:zoom="1.1711661"
     inkscape:pageshadow="2"
     inkscape:pageopacity="0.0"
     borderopacity="1.0"
     bordercolor="#666666"
     pagecolor="#ffffff"
     id="base" />
  <metadata
     id="metadata1807">
    <rdf:RDF>
      <cc:Work
         rdf:about="">
        <dc:format>image/svg+xml</dc:format>
        <dc:type
           rdf:resource="http://purl.org/dc/dcmitype/StillImage" />
        <dc:title />
      </cc:Work>
    </rdf:RDF>
  </metadata>
  <g
     transform="translate(-62.442815,-34.631068)"
     id="layer1"
     inkscape:groupmode="layer"
     inkscape:label="Ebene 1">
    <path
       inkscape:export-filename="/Users/ingmarkappel/Desktop/tooth menu.png"
       inkscape:connector-curvature="0"
       id="path4542-5"
       d="m 152.84075,157.40621 c 1.43456,12.85601 -0.88615,23.93865 -6.53796,31.22083 -5.34952,6.89277 -16.55854,14.78077 -25.23518,17.7588 -10.69114,3.66945 -22.172791,2.04639 -35.840276,-5.06648 -4.342553,-2.25989 -9.399946,-5.35965 -12.577232,-7.7087 -3.685794,-2.72491 -7.19946,-9.10316 -8.732491,-15.85124 -0.917533,-4.03815 -1.257046,-12.71527 -0.699939,-17.88377 1.027599,-9.53313 2.905223,-14.86027 9.013923,-25.57639 38.723235,-18.18636 75.706515,-18.66169 80.609155,23.10695 z"
       style="fill:#ffffff;stroke:#000000;stroke-width:1;stroke-miterlimit:4;stroke-dasharray:none;stroke-opacity:1"
       inkscape:export-xdpi="90"
       inkscape:export-ydpi="90"
       sodipodi:nodetypes="ccscccccc" />
    <path
       style="fill:#000000;stroke-width:0.939102"
       d="m 101.74406,37.538985 c -1.2663,1.599354 -2.928783,2.907916 -3.694377,2.907916 -1.844399,0 -3.366265,1.911961 -3.922335,4.927714 -0.571108,3.09735 0.574513,5.703557 2.799559,6.368777 2.408889,0.720165 2.367251,3.65848 -0.0519,3.65848 -2.440934,0 -5.199518,3.474321 -5.199518,6.548601 0,2.527699 2.64978,5.913884 4.62779,5.913884 0.523697,0 0.952178,0.747757 0.952178,1.661668 0,1.380726 -0.464994,1.661657 -2.750427,1.661657 -2.051525,0 -3.026345,0.469234 -3.83623,1.846527 -2.309044,3.926829 -0.708787,9.168741 3.074157,10.069955 1.565391,0.372931 2.117517,0.967264 2.117517,2.279354 0,1.56278 -0.278818,1.712614 -2.332851,1.253597 -3.231656,-0.722154 -6.037112,1.897954 -6.037112,5.638291 0,3.497215 1.17744,5.225154 4.168409,6.117312 2.356287,0.702841 2.419131,0.827354 2.228428,4.414292 -0.303632,5.71078 -0.686983,6.59896 -2.848253,6.59896 -2.571432,0 -4.003497,2.05311 -4.93522,7.07549 -1.869221,10.07578 -11.469697,13.68727 -14.436872,17.65848 0,0 27.489663,-7.14239 37.097137,-7.13817 10.0805,0.004 30.33735,5.80167 36.16193,7.80274 -2.95552,-2.27042 -4.60477,-5.30042 -8.24577,-7.00009 -2.56679,-1.10557 -2.83619,-1.78156 -4.56788,-11.46161 -0.83611,-4.67367 -2.18183,-6.63206 -4.85753,-7.0688 -2.36969,-0.3868 -2.82234,-3.19137 -0.51509,-3.19137 2.33718,0 3.99548,-2.48496 3.99548,-5.98722 0,-3.358121 -1.1194,-4.787815 -4.36364,-5.573476 -1.62355,-0.393155 -2.32551,-1.067188 -2.48548,-2.386501 -0.12261,-1.011239 0.12711,-1.838614 0.55481,-1.838614 1.59458,0 4.20182,-4.080724 4.20182,-6.576539 0,-2.953629 -2.32416,-5.885946 -4.66524,-5.885946 -0.88671,0 -1.61222,-0.343287 -1.61222,-0.762883 0,-0.419586 -0.19055,-1.354275 -0.4234,-2.077088 -0.27271,-0.846488 -0.0425,-1.314194 0.64688,-1.314194 1.43099,0 3.9615,-3.933831 3.9615,-6.158419 0,-2.683887 -1.84234,-5.275743 -4.18587,-5.888866 -2.51278,-0.657411 -2.8877,-3.577449 -0.67105,-5.226409 1.79776,-1.337328 2.96504,-4.924376 2.42952,-7.465872 -0.25003,-1.186677 -1.33071,-2.413665 -2.74635,-3.118233 -1.81371,-0.902699 -2.43398,-1.795842 -2.78211,-4.006298 -0.24636,-1.564539 -1.26783,-3.82121 -2.26988,-5.014816 -1.64015,-1.953664 -2.34357,-2.170198 -7.05006,-2.170198 -5.07146,0 -5.29712,0.08709 -7.53051,2.907917 z m 11.16828,0.398734 c 1.79363,0.81229 3.79374,4.542285 2.965,5.529427 -0.24042,0.286406 -3.27848,-0.136644 -6.75121,-0.940111 -5.43451,-1.257365 -6.19434,-1.632683 -5.45468,-2.694271 1.77711,-2.550624 5.91817,-3.399834 9.24089,-1.895045 z m -2.17615,8.258796 c 5.30442,1.295091 9.96525,2.736833 10.35736,3.203911 1.03654,1.234692 -0.006,4.339788 -1.45631,4.339788 -2.3033,0 -21.973817,-4.997618 -22.598299,-5.741481 -0.340722,-0.405853 -0.410221,-1.523297 -0.154459,-2.483213 0.609933,-2.289067 1.958394,-2.222775 13.851708,0.680995 z m 0.1205,9.045191 c 5.61676,1.320611 6.3022,1.680426 6.51223,3.418686 0.20117,1.664233 0,1.875041 -1.39499,1.470476 -0.89636,-0.259755 -4.53309,-1.128654 -8.0816,-1.930896 -5.9365,-1.342111 -6.45184,-1.61292 -6.45184,-3.390434 0,-1.581036 0.28497,-1.851196 1.56937,-1.4878 0.86314,0.2442 4.39423,1.10819 7.84683,1.919968 z m -2.38495,6.379485 c 16.5572,3.946477 15.28865,3.459448 15.28865,5.869658 0,1.148031 -0.44081,2.288818 -0.97962,2.53508 -1.12448,0.514014 -26.955193,-5.392657 -27.880538,-6.375414 -0.709625,-0.75364 0.01487,-4.925307 0.855489,-4.925307 0.31136,0 6.033569,1.303182 12.716019,2.895983 z m 2.50049,9.608582 c 6.16395,1.444171 7.85719,2.139758 8.11973,3.335677 0.18241,0.83107 0.20362,1.663616 0.0469,1.850128 -0.15663,0.186513 -4.43822,-0.64821 -9.51474,-1.854922 -8.51092,-2.023106 -9.24831,-2.345468 -9.46479,-4.137877 -0.200897,-1.663354 3.8e-4,-1.87703 1.39499,-1.480756 0.89638,0.254689 5.13437,1.284173 9.41777,2.28775 z m -0.11554,6.859731 c 13.88706,3.302747 14.65955,3.585593 14.88086,5.448785 0.12838,1.080859 -0.0607,2.315489 -0.42006,2.743606 -0.40635,0.484024 -6.16644,-0.51704 -15.22963,-2.646801 -19.099553,-4.48822 -17.714812,-4.0061 -17.714812,-6.167767 0,-3.800002 -0.128435,-3.804325 18.483642,0.622177 z m -2.02952,8.498193 c 4.95247,1.158676 9.7107,2.287435 10.57388,2.508324 1.53359,0.392485 2.34436,3.693295 0.90712,3.693295 -1.02655,0 -21.900912,-4.997796 -22.159145,-5.305399 -0.377599,-0.449774 0.610538,-3.002921 1.162198,-3.002921 0.2813,0 4.563487,0.948025 9.515947,2.106701 z m 2.6428,7.563587 c 8.39337,2.011728 15.53399,3.858894 15.86802,4.104821 0.92576,0.681508 0.72377,4.274675 -0.2645,4.705485 -0.47954,0.20903 -8.7187,-1.46171 -18.30928,-3.712763 -18.107287,-4.25006 -19.867951,-5.040127 -18.418953,-8.265172 0.824808,-1.835777 -0.71219,-2.066233 21.124713,3.167629 z m 10.89543,13.367886 v 1.92346 l -13.05528,-0.22604 -13.05526,-0.22604 0.214634,-4.14731 c 0.118047,-2.28103 0.32042,-4.35118 0.449708,-4.60036 0.129281,-0.249174 5.907558,0.85327 12.840618,2.44988 12.01069,2.76595 12.60558,2.99371 12.60558,4.82641 z m 6.27746,5.55844 c 0,0.3826 1.97872,9.99858 2.53553,12.32188 -3.76875,-2.73229 -9.0746,-7.61599 -21.48927,-8.07104 -12.293517,-0.4506 -22.886899,9.24459 -22.875724,8.90187 0.01115,-0.34271 0.629767,-3.24025 1.374674,-6.43894 0.744906,-3.19871 1.363521,-6.09623 1.374681,-6.43896 0.0207,-0.63523 39.080109,-0.9099 39.080109,-0.27481 z"
       id="path5207"
       inkscape:connector-curvature="0"
       sodipodi:nodetypes="csccssssscsscssssccscccssscssssscsssccsccsccscccsscsscssccsssscscsscccccscccsscsssscssssscssssscccssssscscsss" />
  </g>
</svg>
