<?xml version="1.0" encoding="UTF-8" standalone="no"?>
<svg
   xmlns:dc="http://purl.org/dc/elements/1.1/"
   xmlns:cc="http://creativecommons.org/ns#"
   xmlns:rdf="http://www.w3.org/1999/02/22-rdf-syntax-ns#"
   xmlns:svg="http://www.w3.org/2000/svg"
   xmlns="http://www.w3.org/2000/svg"
   xmlns:sodipodi="http://sodipodi.sourceforge.net/DTD/sodipodi-0.dtd"
   xmlns:inkscape="http://www.inkscape.org/namespaces/inkscape"
   sodipodi:docname="15_25.svg"
   inkscape:version="1.0 (4035a4f, 2020-05-01)"
   id="svg1810"
   version="1.1"
   viewBox="0 0 91.289551 176.24426"
   height="176.24426mm"
   width="91.289551mm">
  <defs
     id="defs1804" />
  <sodipodi:namedview
     inkscape:window-maximized="0"
     inkscape:window-y="23"
     inkscape:window-x="0"
     inkscape:window-height="943"
     inkscape:window-width="1248"
     fit-margin-bottom="0"
     fit-margin-right="0"
     fit-margin-left="0"
     fit-margin-top="0"
     showgrid="false"
     inkscape:document-rotation="0"
     inkscape:current-layer="layer1"
     inkscape:document-units="mm"
     inkscape:cy="475.18693"
     inkscape:cx="102.65817"
     inkscape:zoom="1.007561"
     inkscape:pageshadow="2"
     inkscape:pageopacity="0.0"
     borderopacity="1.0"
     bordercolor="#666666"
     pagecolor="#ffffff"
     id="base" />
  <metadata
     id="metadata1807">
    <rdf:RDF>
      <cc:Work
         rdf:about="">
        <dc:format>image/svg+xml</dc:format>
        <dc:type
           rdf:resource="http://purl.org/dc/dcmitype/StillImage" />
        <dc:title></dc:title>
      </cc:Work>
    </rdf:RDF>
  </metadata>
  <g
     transform="translate(-62.113897,-33.618961)"
     id="layer1"
     inkscape:groupmode="layer"
     inkscape:label="Ebene 1">
    <path
       inkscape:export-filename="/Users/ingmarkappel/Desktop/tooth menu.png"
       inkscape:connector-curvature="0"
       id="path4542-5"
       d="m 110.08013,33.77908 c 4.12835,0.813477 9.3012,5.076444 14.90644,12.284004 6.49224,8.348274 9.99544,17.914026 12.51797,34.179903 1.35436,8.733395 1.96904,17.228396 2.25213,31.125693 0.30167,14.80789 0.10245,13.79742 4.10236,20.81392 6.03648,10.58937 7.94766,15.9561 8.98172,25.22361 1.43456,12.85601 -0.88615,23.93865 -6.53796,31.22083 -5.34952,6.89277 -16.55854,14.78077 -25.23518,17.7588 -10.69114,3.66945 -22.172791,2.04639 -35.840276,-5.06648 -4.342553,-2.25989 -9.399946,-5.35965 -12.577232,-7.7087 -3.685794,-2.72491 -7.19946,-9.10316 -8.732491,-15.85124 -0.917533,-4.03815 -1.257046,-12.71527 -0.699939,-17.88377 1.027599,-9.53313 2.905223,-14.86027 9.013923,-25.57639 3.995673,-7.00921 3.804919,-6.05476 4.091093,-20.46114 0.607596,-30.586363 3.487419,-46.030296 11.505606,-61.699977 4.715932,-9.216842 10.773832,-16.027513 15.822256,-17.789002 1.95125,-0.680777 4.65243,-0.920299 6.42958,-0.570061 z m -4.41059,7.626124 c -3.0333,1.439389 -7.645404,6.967643 -10.837028,12.989898 -0.719666,1.358223 -1.92532,3.580722 -2.679446,4.938889 -4.079492,7.349941 -7.220089,22.374689 -8.443523,40.393023 -0.264442,3.890606 -0.706966,26.108916 -0.520389,26.105806 0.0085,-1.1e-4 1.595656,-0.64634 3.527749,-1.43603 4.4704,-1.82705 10.336416,-3.59255 14.625627,-4.4019 4.48844,-0.84698 12.12311,-0.86634 16.4042,-0.0417 3.65362,0.70386 10.3118,2.71193 13.14249,3.96378 1.06596,0.47148 1.95834,0.85728 1.98261,0.85728 0.21957,2.2e-4 -0.18683,-22.95059 -0.4809,-27.163946 -0.46454,-6.650622 -1.57198,-15.811048 -2.51686,-20.813858 -1.56831,-8.304051 -4.06936,-16.563086 -5.66194,-18.697222 -0.36209,-0.485055 -1.95834,-2.866305 -3.54725,-5.291666 -1.83558,-2.802043 -3.98749,-5.518658 -5.90212,-7.451513 -4.32988,-4.370945 -6.35454,-5.250519 -9.09322,-3.950885 z m -5.738147,85.255776 c -5.140113,1.2179 -10.354733,3.09058 -15.397196,5.52966 l -4.28467,2.07247 -1.803145,3.1511 c -5.948934,10.39574 -7.726398,16.43083 -8.04672,27.32368 -0.212513,7.23059 0.102729,10.29721 1.471789,14.32246 1.903306,5.59593 3.592971,7.70354 9.09461,11.34373 7.629313,5.04796 16.823011,9.06085 23.426419,10.22547 3.96977,0.70008 10.22353,0.28987 13.707,-0.89907 5.66561,-1.93373 11.10773,-5.16024 16.75694,-9.93518 6.3833,-5.39536 8.62161,-8.52072 10.22886,-14.2842 2.01225,-7.21433 1.44896,-19.59994 -1.26122,-27.72966 -1.65862,-4.97561 -6.40647,-13.5667 -8.06958,-14.60172 -4.62593,-2.8789 -13.37849,-6.09603 -19.59525,-7.20271 -4.05926,-0.72257 -11.64,-0.40307 -16.227837,0.68397 z"
       style="fill:#000000;stroke-width:0.282223"
       inkscape:export-xdpi="90"
       inkscape:export-ydpi="90" />
    <path
       inkscape:export-ydpi="90"
       inkscape:export-xdpi="90"
       style="fill:#91d8ff;fill-opacity:1;stroke:#000000;stroke-width:1;stroke-miterlimit:4;stroke-dasharray:2, 1;stroke-dashoffset:0;stroke-opacity:1"
       d="m 152.9036,167.15676 c -0.22446,9.14168 -2.59973,16.96235 -6.93444,22.54748 -5.34952,6.89277 -16.55854,14.78077 -25.23518,17.7588 -10.69114,3.66945 -22.172788,2.04639 -35.840273,-5.06648 -4.342553,-2.25989 -9.399946,-5.35965 -12.577232,-7.7087 -3.685794,-2.72491 -7.19946,-9.10316 -8.732491,-15.85124 -0.917533,-4.03815 -1.257046,-6.36527 -0.699939,-11.53377 l 7.871555,5.77775 75.62691,-0.62159 z"
       id="path4542-5-1"
       inkscape:connector-curvature="0"
       inkscape:export-filename="/Users/ingmarkappel/Desktop/tooth menu.png"
       sodipodi:nodetypes="ccsccccccc" />
    <path
       sodipodi:nodetypes="cccccccc"
       inkscape:export-filename="/Users/ingmarkappel/Desktop/tooth menu.png"
       inkscape:connector-curvature="0"
       id="path840"
       d="m 108.55494,209.3544 c -7.24812,-0.15682 -15.017547,-2.45947 -23.661233,-6.95784 -4.342553,-2.25989 -9.399946,-5.35965 -12.577232,-7.7087 -3.685794,-2.72491 -7.19946,-9.10316 -8.732491,-15.85124 -0.917533,-4.03815 -1.257046,-6.36527 -0.699939,-11.53377 l 7.081863,5.28043 38.566052,-0.0612 z"
       style="fill:#808080;fill-opacity:1;stroke:#000000;stroke-width:1;stroke-miterlimit:4;stroke-dasharray:2, 1;stroke-dashoffset:0;stroke-opacity:1"
       inkscape:export-xdpi="90"
       inkscape:export-ydpi="90" />
  </g>
</svg>
