<?xml version="1.0" encoding="UTF-8" standalone="no"?>
<svg
   xmlns:dc="http://purl.org/dc/elements/1.1/"
   xmlns:cc="http://creativecommons.org/ns#"
   xmlns:rdf="http://www.w3.org/1999/02/22-rdf-syntax-ns#"
   xmlns:svg="http://www.w3.org/2000/svg"
   xmlns="http://www.w3.org/2000/svg"
   xmlns:sodipodi="http://sodipodi.sourceforge.net/DTD/sodipodi-0.dtd"
   xmlns:inkscape="http://www.inkscape.org/namespaces/inkscape"
   width="65.842796mm"
   height="132.40556mm"
   viewBox="0 0 65.842796 132.40556"
   version="1.1"
   id="svg4218"
   inkscape:version="1.0 (4035a4f, 2020-05-01)"
   sodipodi:docname="11_21.svg">
  <defs
     id="defs4212" />
  <sodipodi:namedview
     id="base"
     pagecolor="#ffffff"
     bordercolor="#666666"
     borderopacity="1.0"
     inkscape:pageopacity="0.0"
     inkscape:pageshadow="2"
     inkscape:zoom="0.86306672"
     inkscape:cx="133.11956"
     inkscape:cy="339.0362"
     inkscape:document-units="mm"
     inkscape:current-layer="layer1"
     inkscape:document-rotation="0"
     showgrid="false"
     fit-margin-top="0"
     fit-margin-left="0"
     fit-margin-right="0"
     fit-margin-bottom="0"
     inkscape:window-width="1248"
     inkscape:window-height="943"
     inkscape:window-x="0"
     inkscape:window-y="23"
     inkscape:window-maximized="0" />
  <metadata
     id="metadata4215">
    <rdf:RDF>
      <cc:Work
         rdf:about="">
        <dc:format>image/svg+xml</dc:format>
        <dc:type
           rdf:resource="http://purl.org/dc/dcmitype/StillImage" />
        <dc:title></dc:title>
      </cc:Work>
    </rdf:RDF>
  </metadata>
  <g
     inkscape:label="Ebene 1"
     inkscape:groupmode="layer"
     id="layer1"
     transform="translate(-137.41759,-100.72331)">
    <path
       sodipodi:nodetypes="cssscccsscscccccscssscccc"
       inkscape:export-ydpi="90"
       inkscape:export-xdpi="90"
       inkscape:connector-curvature="0"
       id="path4638-9"
       d="m 172.53339,101.04851 c 2.39712,0.56287 6.31667,2.88959 8.77779,5.21061 6.71331,6.33115 11.09294,17.47659 13.84715,35.23864 1.38326,8.92073 1.96562,17.06513 2.16253,30.24375 0.14108,9.44132 0.30934,12.79889 0.71498,14.26641 0.63827,2.30926 2.20015,5.4667 5.22455,10.56183 -18.61336,22.24352 -48.54456,20.21947 -65.8428,-0.1338 3.10297,-5.33801 4.49374,-8.17211 5.11728,-10.42803 0.40516,-1.46589 0.57497,-4.83556 0.71893,-14.26641 0.19781,-12.95931 0.47834,-17.53438 1.64369,-26.80459 1.74128,-13.85186 4.96243,-25.06808 9.31105,-32.42183 3.14759,-5.32274 8.90244,-10.04285 13.79951,-11.31841 2.30042,-0.59919 2.56765,-0.60791 4.52534,-0.14817 z m -5.17852,7.97247 c -2.76521,1.91412 -6.48775,7.00648 -9.75811,13.3488 -3.37674,6.54866 -5.94448,19.83345 -7.05398,36.49534 -0.28307,4.25055 -0.704,27.51711 -0.49787,27.51675 0.0243,-6e-5 0.90938,-0.38267 1.9667,-0.85025 3.18036,-1.40651 7.98951,-3.01476 11.37618,-3.80436 4.9283,-1.14904 11.53744,-1.07414 16.47444,0.18669 2.99748,0.7655 7.47225,2.32675 10.35507,3.61287 0.46736,0.2085 0.34194,-19.34399 -0.171,-26.6617 -1.10806,-15.80718 -4.05649,-31.07814 -7.20917,-37.33848 -2.78178,-5.52391 -7.77124,-11.76875 -10.6115,-13.2814 -1.38712,-0.73881 -3.07001,-0.47075 -4.87076,0.77574 z"
       style="fill:#000000;stroke-width:0.282223"
       inkscape:export-filename="/Users/ingmarkappel/Desktop/tooth menu.png" />
    <ellipse
       ry="13.335441"
       rx="13.028879"
       cy="219.29343"
       cx="171.65681"
       id="path839"
       style="fill:#000000;fill-rule:evenodd;stroke:#000000;stroke-width:1;stroke-linejoin:round;paint-order:stroke markers fill" />
    <rect
       ry="2.1185188"
       y="137.51073"
       x="165.92683"
       height="45.677715"
       width="9.8099794"
       id="rect841"
       style="fill:#000000;fill-rule:evenodd;stroke:#000000;stroke-width:1;stroke-linejoin:round;paint-order:stroke markers fill" />
  </g>
</svg>
