<?xml version="1.0" encoding="UTF-8" standalone="no"?>
<svg
   xmlns:dc="http://purl.org/dc/elements/1.1/"
   xmlns:cc="http://creativecommons.org/ns#"
   xmlns:rdf="http://www.w3.org/1999/02/22-rdf-syntax-ns#"
   xmlns:svg="http://www.w3.org/2000/svg"
   xmlns="http://www.w3.org/2000/svg"
   xmlns:sodipodi="http://sodipodi.sourceforge.net/DTD/sodipodi-0.dtd"
   xmlns:inkscape="http://www.inkscape.org/namespaces/inkscape"
   sodipodi:docname="13_23.svg"
   inkscape:version="1.0 (4035a4f, 2020-05-01)"
   id="svg3014"
   version="1.1"
   viewBox="0 0 71.627434 152.34174"
   height="152.34174mm"
   width="71.627434mm">
  <defs
     id="defs3008" />
  <sodipodi:namedview
     inkscape:window-maximized="0"
     inkscape:window-y="23"
     inkscape:window-x="0"
     inkscape:window-height="943"
     inkscape:window-width="1248"
     fit-margin-bottom="0"
     fit-margin-right="0"
     fit-margin-left="0"
     fit-margin-top="0"
     showgrid="false"
     inkscape:document-rotation="0"
     inkscape:current-layer="layer1"
     inkscape:document-units="mm"
     inkscape:cy="430.71913"
     inkscape:cx="123.07631"
     inkscape:zoom="0.85556454"
     inkscape:pageshadow="2"
     inkscape:pageopacity="0.0"
     borderopacity="1.0"
     bordercolor="#666666"
     pagecolor="#ffffff"
     id="base" />
  <metadata
     id="metadata3011">
    <rdf:RDF>
      <cc:Work
         rdf:about="">
        <dc:format>image/svg+xml</dc:format>
        <dc:type
           rdf:resource="http://purl.org/dc/dcmitype/StillImage" />
        <dc:title></dc:title>
      </cc:Work>
    </rdf:RDF>
  </metadata>
  <g
     transform="translate(-114.58667,-22.599701)"
     id="layer1"
     inkscape:groupmode="layer"
     inkscape:label="Ebene 1">
    <path
       inkscape:export-filename="/Users/ingmarkappel/Desktop/tooth menu.png"
       style="fill:#000000;stroke-width:0.282223"
       d="m 154.31992,22.998693 c 4.36736,1.677811 8.80841,6.634564 12.45726,13.903254 5.29056,10.539419 10.86586,29.611261 13.21875,45.218177 1.22792,8.144481 1.84345,16.972026 2.11582,30.338856 0.30167,14.80786 0.10245,13.7974 4.10235,20.81389 -21.45911,23.37568 -42.4675,25.63617 -71.62743,2.11667 3.99743,-7.01224 3.80238,-6.03067 4.09787,-20.6375 0.35676,-17.628051 1.31036,-28.107046 3.51988,-38.674547 0.58307,-2.788441 1.29342,-6.573406 1.57846,-8.411069 1.21356,-7.824891 4.86608,-20.278539 8.05999,-27.482177 2.48779,-5.610916 4.92929,-9.396419 8.12546,-12.598427 3.73944,-3.74619 5.90973,-4.815755 10.07928,-4.967393 1.95524,-0.07109 3.44173,0.06121 4.27231,0.380266 z m -6.21259,7.389508 c -6.07935,2.843587 -12.89755,17.240504 -16.39626,34.622232 -0.42954,2.134275 -1.2367,5.864886 -1.7938,8.290248 -2.92862,12.750038 -4.16193,25.154379 -4.30587,43.303669 -0.0452,5.67546 -0.0754,10.31889 -0.0672,10.31875 0.008,-1.2e-4 1.59569,-0.64635 3.52778,-1.43604 4.4704,-1.82705 10.33639,-3.59254 14.6256,-4.4019 4.48846,-0.84698 12.12314,-0.86634 16.40419,-0.0417 3.65363,0.70386 10.31181,2.71193 13.1425,3.96379 1.06595,0.47148 1.95834,0.85727 1.98261,0.85727 0.28871,0 -0.26388,-24.4405 -0.66604,-29.456969 -0.60167,-7.506061 -1.94957,-17.254891 -2.97519,-21.51941 -2.84847,-11.842269 -6.29158,-23.150603 -9.07147,-29.792449 -3.92116,-9.369269 -8.63938,-15.506558 -11.93743,-15.528007 -0.38806,-0.0028 -1.49945,0.366691 -2.46945,0.820476 z"
       id="path4590-5"
       inkscape:connector-curvature="0"
       inkscape:export-xdpi="90"
       inkscape:export-ydpi="90"
       sodipodi:nodetypes="cccccccccccccccccsccccscccccc" />
    <ellipse
       style="fill:#000000;fill-rule:evenodd;stroke:#000000;stroke-width:1;stroke-linejoin:round;paint-order:stroke markers fill"
       id="path839"
       cx="151.92389"
       cy="159.44281"
       rx="15.771749"
       ry="14.998625" />
    <rect
       style="fill:#000000;fill-rule:evenodd;stroke:#000000;stroke-width:1;stroke-linejoin:round;paint-order:stroke markers fill"
       id="rect841"
       width="9.8959999"
       height="66.179497"
       x="146.03438"
       y="55.820034"
       ry="2.1185188" />
  </g>
</svg>
