<?xml version="1.0" encoding="UTF-8" standalone="no"?>
<svg
   xmlns:dc="http://purl.org/dc/elements/1.1/"
   xmlns:cc="http://creativecommons.org/ns#"
   xmlns:rdf="http://www.w3.org/1999/02/22-rdf-syntax-ns#"
   xmlns:svg="http://www.w3.org/2000/svg"
   xmlns="http://www.w3.org/2000/svg"
   xmlns:sodipodi="http://sodipodi.sourceforge.net/DTD/sodipodi-0.dtd"
   xmlns:inkscape="http://www.inkscape.org/namespaces/inkscape"
   sodipodi:docname="18-16_26-28.svg"
   inkscape:version="1.0 (4035a4f, 2020-05-01)"
   id="svg1190"
   version="1.1"
   viewBox="0 0 117.76492 157.83627"
   height="157.83627mm"
   width="117.76492mm">
  <defs
     id="defs1184" />
  <sodipodi:namedview
     inkscape:window-maximized="0"
     inkscape:window-y="23"
     inkscape:window-x="0"
     inkscape:window-height="943"
     inkscape:window-width="1248"
     fit-margin-bottom="0"
     fit-margin-right="0"
     fit-margin-left="0"
     fit-margin-top="0"
     showgrid="false"
     inkscape:document-rotation="0"
     inkscape:current-layer="layer1"
     inkscape:document-units="mm"
     inkscape:cy="449.258"
     inkscape:cx="284.15759"
     inkscape:zoom="0.8372587"
     inkscape:pageshadow="2"
     inkscape:pageopacity="0.0"
     borderopacity="1.0"
     bordercolor="#666666"
     pagecolor="#ffffff"
     id="base" />
  <metadata
     id="metadata1187">
    <rdf:RDF>
      <cc:Work
         rdf:about="">
        <dc:format>image/svg+xml</dc:format>
        <dc:type
           rdf:resource="http://purl.org/dc/dcmitype/StillImage" />
        <dc:title />
      </cc:Work>
    </rdf:RDF>
  </metadata>
  <g
     transform="translate(-52.998492,-40.522342)"
     id="layer1"
     inkscape:groupmode="layer"
     inkscape:label="Ebene 1">
    <path
       inkscape:export-filename="/Users/ingmarkappel/Desktop/tooth menu.png"
       style="fill:#000000;stroke-width:0.282223"
       d="m 136.53522,40.690995 c 2.07995,0.389636 6.59384,4.584192 9.02786,8.389197 5.46981,8.550683 9.25367,23.076744 10.93414,41.97564 0.31052,3.4925 0.68269,12.144358 0.82696,19.226388 0.30173,14.80786 0.10256,13.79739 4.10236,20.81389 7.24665,12.7121 9.3345,20.04858 9.33687,32.80833 0.004,20.1254 -9.89169,32.49526 -27.5117,34.39123 -2.4568,0.26436 -7.88227,-0.33404 -11.18884,-1.23407 -1.40019,-0.38112 -4.16899,-1.42246 -6.1529,-2.31411 -11.14599,-5.00942 -15.4073,-5.13174 -25.7357,-0.73883 -6.414231,2.72813 -9.391505,3.60014 -14.037276,4.11133 -7.729955,0.85058 -15.338129,-1.20001 -21.422981,-5.77407 -5.311789,-3.99294 -8.997526,-10.09478 -10.745667,-17.78965 -0.917392,-4.03815 -1.256905,-12.71527 -0.69977,-17.88378 1.027599,-9.53312 2.905054,-14.86027 9.013839,-25.57638 3.995674,-7.00921 3.804835,-6.05477 4.091036,-20.46111 0.427849,-21.537195 1.930711,-34.438562 5.455158,-46.829865 2.352209,-8.27007 5.40924,-14.305759 9.44194,-18.641962 5.118354,-5.503559 10.412336,-6.049348 13.565492,-1.398665 1.581798,2.333075 2.002197,4.17607 2.886427,12.653461 0.421217,4.038458 0.886037,7.667554 1.032933,8.064612 0.205373,0.555216 0.448789,0.05884 1.053791,-2.148727 2.462388,-8.985023 6.814818,-16.066769 11.189628,-18.20638 1.92239,-0.940167 4.24143,-0.894531 5.86574,0.115401 2.03008,1.262352 3.03174,3.682661 3.46238,8.366167 0.73133,7.953614 2.88061,20.989741 3.28527,19.926015 0.44252,-1.163291 1.69375,-9.740447 2.39301,-16.404165 0.93484,-8.908456 1.59634,-11.355915 3.61479,-13.374369 1.91412,-1.914144 4.15318,-2.582926 6.91521,-2.065528 z m -2.24299,7.766981 c -0.10318,0.339542 -0.59637,4.070463 -1.09596,8.290927 C 129.122,91.166746 121.49162,110.32086 111.8734,110.27446 101.58544,110.22485 93.689541,88.915967 89.776078,50.639836 89.491458,47.856194 89.2409,47.56686 87.925746,48.503358 83.797087,51.443182 79.960391,59.232232 77.4785,69.712837 c -2.736455,11.555502 -4.082852,25.122007 -4.088638,41.198123 -0.0028,5.37799 -0.165071,10.79057 -0.362542,12.02791 -0.197471,1.23735 -0.304405,2.30437 -0.237631,2.37115 0.0668,0.0668 1.779636,-0.35986 3.806302,-0.94813 13.450825,-3.90412 25.147039,-5.73845 36.669609,-5.7509 10.98722,-0.0118 21.10221,1.55276 33.63674,5.20308 l 4.17982,1.21725 -0.24731,-0.93635 c -0.136,-0.515 -0.30229,-5.69886 -0.36948,-11.51969 -0.18613,-16.119095 -1.18243,-27.506931 -3.36119,-38.418348 -2.46904,-12.365199 -5.55616,-19.950061 -9.88545,-24.287816 -2.15849,-2.16281 -2.62915,-2.389717 -2.9265,-1.41114 z m -23.00774,2.698242 c -3.94251,4.070406 -6.89328,12.667177 -8.8254,25.71191 l -0.6157,4.156681 0.82217,3.427984 c 1.84229,7.681582 4.91225,15.434704 6.97978,17.627347 2.27034,2.40772 4.31396,1.22242 6.78541,-3.935591 1.71476,-3.578746 4.38288,-11.956653 4.14178,-13.005165 -0.0995,-0.432477 -0.81847,-3.26658 -1.59786,-6.298015 -1.64577,-6.401448 -3.29508,-15.806052 -4.13743,-23.592421 -0.32537,-3.007444 -0.66271,-5.587096 -0.74967,-5.732638 -0.34874,-0.583749 -1.04236,-0.17797 -2.80308,1.639908 z m -6.53638,73.950512 c -9.243231,0.9124 -20.927342,3.40228 -30.55795,6.51191 -5.813975,1.87729 -5.435967,1.51184 -8.764947,8.4733 -3.670949,7.67658 -4.700298,12.11354 -4.974562,21.44279 -0.213501,7.26268 24.463243,-17.86861 35.456967,-5.12472 10.857442,12.58591 -13.991735,34.27577 -11.274189,37.05078 -25.199758,-5.10905 0.870923,-1.50781 9.229395,-4.92297 9.804086,-4.13676 13.695196,-5.07794 19.811016,-4.79199 4.49416,0.21014 6.76401,0.85177 15.11398,4.27245 7.55678,3.09572 12.64652,3.75671 18.12942,2.35441 7.8773,-2.01467 -39.00746,-18.11151 -15.56431,-38.96337 11.11799,-9.88906 28.96345,-1.88769 28.54534,-7.38199 -1.91628,-6.73331 0.95684,-8.72405 -7.38798,-11.87623 -8.16912,-3.05651 -21.22776,-6.09791 -30.07247,-7.00404 -4.2994,-0.44046 -13.42528,-0.46126 -17.68971,-0.0403 z"
       id="path4350-1"
       inkscape:connector-curvature="0"
       inkscape:export-xdpi="90"
       inkscape:export-ydpi="90"
       sodipodi:nodetypes="scccccsscssssscccsccccccsscsssccccccssccscccscsccccssccccccssssccssssccscc" />
  </g>
</svg>
